<?xml version="1.0" encoding="utf-8"?>
<!-- Generator: Adobe Illustrator 15.0.2, SVG Export Plug-In . SVG Version: 6.00 Build 0)  -->
<!DOCTYPE svg PUBLIC "-//W3C//DTD SVG 1.1//EN" "http://www.w3.org/Graphics/SVG/1.1/DTD/svg11.dtd">
<svg version="1.1" id="Layer_1" xmlns="http://www.w3.org/2000/svg" xmlns:xlink="http://www.w3.org/1999/xlink" x="0px" y="0px"
	 width="1800px" height="3300px" viewBox="-653.5 0 1800 3300" enable-background="new -653.5 0 1800 3300" xml:space="preserve">
<path fill="none" d="M-112.689,389.031c-7.737-6.259-17.316-9.942-27.261-9.942l3.314,27.984L-112.689,389.031z"/>
<path fill="none" d="M-281.049,211.928l-8.104,7.365c-19.527,17.672-39.051,35.713-58.575,53.388
	c-9.579,8.837-19.527,18.042-29.106,26.877l-12.893,12.152c34.999,8.1,101.31,23.563,157.675,36.819
	C-229.105,296.982-247.894,248.38-281.049,211.928z"/>
<path fill="none" d="M-203.685,380.562c-1.105,5.892-2.579,11.415-4.052,16.937l13.63,3.314c2.58-7.364,6.999-14.359,12.525-20.251
	c4.79-4.786,10.685-8.837,16.946-11.781c-10.314-2.21-22.473-5.156-36.103-8.102C-201.474,367.308-202.21,373.935-203.685,380.562z"
	/>
<path fill="none" d="M-140.688,363.258c7.736,0,15.472,1.473,22.471,4.417c6.632,2.945,12.527,6.996,17.684,12.151l254.564-189.99
	l-1.841-10.679l-301.352-59.279l-0.736,3.682l-15.472-2.947c-1.476-0.367-2.58-0.367-4.053-0.735l27.26,243.746
	C-141.425,363.625-141.058,363.258-140.688,363.258z"/>
<path fill="none" d="M-232.052,353.685c-58.575-13.624-128.204-29.824-162.096-37.558l-2.948,2.579c0,0,0.37,0.369,0.37,0.735
	c0.368,0.736,0.737,1.106,1.474,1.841c0.368,0.368,0.368,0.737,0.737,1.105c0.368,0.369,0.737,1.104,1.104,1.473
	c0.37,0.368,0.37,0.736,0.37,1.103c0.369,0.369,0.369,1.106,0.737,1.842c0,0.367,0.369,0.736,0.369,1.105
	c0.367,0.734,0.367,1.103,0.736,1.838c0,0.37,0.368,0.737,0.368,1.106c0,0.736,0.369,1.105,0.369,1.84c0,0.369,0,0.737,0.369,1.105
	c0,0.736,0,1.105,0,1.842c0,0.367,0,0.735,0,1.104c0,0.738,0,1.472,0,2.209c0,0.369,0,0.735,0,1.104
	c0,1.105-0.369,2.208-0.369,3.312c0,0.738-0.369,1.475-0.737,2.21c0,0.736-0.369,1.105-0.736,1.841l0,0l5.157,1.472l35,9.941
	l34.997,9.943c11.788,3.313,23.208,6.626,34.999,9.571l43.101,11.415c1.476-4.786,2.579-9.94,3.685-14.728
	C-233.525,367.676-232.419,360.68-232.052,353.685z"/>
<path fill="none" d="M-200.369,355.526c14.736,3.312,27.998,6.257,38.683,8.835l-26.526-236.383
	c-14.366,12.521-28.368,25.407-42.366,38.295l-27.261,24.667C-217.684,234.389-195.58,293.667-200.369,355.526z"/>
<path fill="none" d="M-517.929,1931.781L-517.929,1931.781l-28.368,52.649c1.106,0,2.58-0.364,4.053-0.364h49.735
	c0.368,0,1.106,0,1.473,0L-517.929,1931.781C-517.56,1931.781-517.56,1931.781-517.929,1931.781z"/>
<polygon fill="none" points="-398.2,1684.716 -398.2,1668.884 -415.881,1668.884 -415.881,1718.962 -415.881,1741.421 
	-415.881,1767.932 -398.2,1767.194 -398.2,1703.128 "/>
<path fill="none" d="M159.188,98.155L159.188,98.155l1.477,14.359c4.418-0.736,8.471-1.841,12.523-2.946
	c4.789-1.473,9.21-3.682,12.894-6.627c1.842-1.473,3.315-2.946,3.685-4.419c0.734-1.473,0.734-2.577,0.368-3.682
	c-0.368-1.104-1.843-2.207-3.685-2.945c-1.84-0.737-4.052-1.104-6.263-1.472c-4.42-0.37-9.577,0.367-14.367,1.841
	c-0.737,0.369-1.105,1.472-1.474,2.209c-0.367,0.367-0.735,0.367-0.735,0.367l-1.105,0.369l-3.318,1.105V98.155L159.188,98.155z"/>
<path fill="none" d="M18.829,2046.658c-5.894,4.786-11.418,10.309-15.472,16.935l2.579,72.535
	c13.999-15.096,19.893-39.764,23.578-59.28C29.514,2075.742,35.774,2033.033,18.829,2046.658z"/>
<path fill="none" d="M-451.25,331.224c3.316-17.305,20.263-28.72,37.577-25.405c0.369,0,4.421,1.104,11.052,2.577l18.053-17.305
	c9.577-9.205,19.156-18.41,28.366-27.615l55.997-55.966l7-6.996c-24.684-22.461-55.628-38.661-90.997-45.288
	c-101.675-19.885-200.408,47.128-219.563,148.751c-19.527,101.624,47.523,200.3,149.201,219.813
	c78.468,15.097,155.095-21.355,195.252-85.421c-73.68-29.824-158.78-65.907-166.516-69.222
	C-443.512,365.465-454.564,348.53-451.25,331.224z"/>
<path fill="none" d="M-175.686,464.88c-1.474-1.105-2.947-2.577-4.421-3.683c-10.685-9.94-16.946-24.669-17.314-39.396
	c0-1.473,0-3.313,0-4.789l-18.052-5.89l-14.367-4.419c-4.052,11.046-9.21,21.723-15.105,31.666
	C-217.684,449.417-193.369,458.62-175.686,464.88z"/>
<path fill="none" d="M53.09,429.9c-19.523,101.625,47.522,200.3,149.202,219.816c101.677,19.513,200.411-47.499,219.936-149.12
	c19.525-101.624-47.525-200.299-149.202-219.816c-30.946-5.89-61.523-3.682-89.892,4.79c0.739,5.521,1.477,11.044,2.211,16.199
	c2.948,18.409,6.264,36.819,10.685,54.861c4.42,18.042,9.948,35.716,16.947,53.019c4.42,11.416,9.948,22.829,15.841,33.507
	c3.315-1.104,6.998-1.472,11.051-0.735c11.789,2.209,19.526,13.622,17.316,25.405c-2.212,11.781-13.632,19.514-25.421,17.305
	c-11.788-2.208-19.523-13.622-17.317-25.405c1.107-4.786,3.32-8.836,6.635-12.15c-6.635-11.046-12.159-22.46-17.315-33.875
	c-7.737-17.672-13.631-35.713-18.79-54.123c-5.157-18.411-9.209-36.82-12.524-55.6c-0.736-4.787-1.475-9.574-2.578-13.993
	C111.665,312.446,65.984,363.625,53.09,429.9z"/>
<path fill="none" d="M-137.374,431.741L-137.374,431.741c-2.577,2.209-5.893,2.579-8.472,1.475l-17.316-5.524l-17.313-5.522
	l-4.053-1.475c0,0.369,0,0.369,0,0.737c-0.369,11.415,4.053,23.197,12.156,32.035c8.106,8.468,19.895,13.622,32.051,13.622
	c5.895,0,11.791-1.104,17.315-3.682c5.527-2.21,10.315-5.893,14.369-10.311c8.104-8.834,12.525-20.25,12.156-32.032
	c0-5.892-1.474-11.782-4.052-17.305L-137.374,431.741z"/>
<path fill="none" d="M-158.001,410.386l1.84,0.369l-2.947-27.614c-4.42,1.84-8.104,4.786-11.788,8.1
	c-4.053,3.682-7.368,8.468-9.578,13.254l4.788,1.106L-158.001,410.386z"/>
<path fill="none" d="M1059.562,2255.794c-7.003,0.365-12.158,6.627-11.792,13.252c0.367,6.998,6.63,12.149,13.26,11.784
	c7.001-0.366,12.161-6.626,11.791-13.255c-0.367-6.629-5.895-11.781-12.523-11.781
	C1060.297,2255.794,1059.926,2255.794,1059.562,2255.794z"/>
<path fill="none" d="M-242.367,403.022l-42.365-12.887c-11.42-3.681-23.209-6.995-34.999-10.308l-34.997-10.312l-34.999-10.308
	l-7.736-2.21l0,0c-2.579,2.945-5.525,5.155-8.842,6.627h-0.367c-1.106,0.368-1.842,0.736-2.948,1.106h-0.369
	c-2.209,0.734-4.42,1.104-7,1.472h-0.368c22.472,9.574,95.784,40.871,160.623,66.645C-251.209,424.01-246.417,413.7-242.367,403.022
	z"/>
<path fill="none" d="M769.996,2389.814c2.578,32.771,5.895,65.173,8.105,97.944c1.475,24.301,0.369,55.596,10.684,78.058
	c6.632,14.73,17.316,26.877,32.419,33.503c22.47,9.574,46.416-7.361,62.261-20.985c22.47-19.515,35.733-41.974,38.312-71.799
	c2.577-29.456,2.577-59.649,1.104-89.104c-0.735-13.254,0-23.934,0.736-32.769l-153.622,2.577
	C769.627,2387.608,769.996,2388.711,769.996,2389.814z"/>
<path fill="#88CEB9" d="M-158.372,1416.304l5.895-695.526c-40.156-0.368-80.312-1.843-120.467-2.945l-112.73-4.051l9.577,723.507
	L-158.372,1416.304z M-358.044,1052.153c4.053,0,7.369,8.839,7.369,19.885s-3.316,19.884-7.369,19.884
	c-4.052,0-7.368-8.838-7.368-19.884C-365.782,1060.992-362.464,1052.153-358.044,1052.153z"/>
<path fill="#88CEB9" d="M-641.713,890.517l2.211,192.2l2.946,192.197c0.737,62.226,1.842,124.45,3.318,186.677l244.617-23.565
	l-2.579-724.979l-7.368-0.37l-125.256-4.786l-119.729-4.786l0.737,90.575L-641.713,890.517z M-426.568,1058.414
	c4.053,0,7.368,11.415,7.368,25.406c0,13.992-3.315,25.404-7.368,25.404c-4.05,0-7.367-11.412-7.367-25.404
	C-433.935,1069.829-430.618,1058.414-426.568,1058.414z"/>
<path fill="#5B7D7C" d="M-650.554,890.517l2.946,192.2l2.211,192.197c0.738,64.067,1.473,128.133,1.842,192.566v5.892l5.895-0.737
	l484.444-51.915l11.423-705.097v-5.157l-5.157-0.366c-41.63-2.577-83.628-4.051-125.256-5.524l-125.257-4.049l-125.255-4.05
	l-125.256-3.682h-5.526v5.524l1.842,96.096L-650.554,890.517z M-272.943,717.832c40.155,1.472,80.311,2.577,120.467,2.945
	l-5.895,695.526l-217.725,20.984l-9.577-723.507L-272.943,717.832z M-523.825,708.628l125.256,4.784l7.368,0.369l2.579,724.979
	l-244.617,23.567c-1.107-62.227-2.211-124.453-3.318-186.678l-2.946-192.934l-2.211-192.2l-1.104-96.102l-0.737-90.574
	L-523.825,708.628z"/>
<ellipse fill="#5B7D7C" cx="-358.044" cy="1072.038" rx="7.369" ry="19.884"/>
<ellipse fill="#5B7D7C" cx="-426.568" cy="1083.819" rx="7.368" ry="25.405"/>
<polygon fill="#E8A7B6" points="974.09,99.996 943.142,105.887 943.142,105.887 "/>
<polygon fill="#E8A7B6" points="884.568,232.548 958.249,224.079 958.249,119.142 884.568,133.135 "/>
<path fill="#AD4D6B" d="M974.09,238.437V99.996l-31.313,5.891l0,0c2.945-6.259,5.525-13.622,7.732-21.355
	c7.004-24.669,7.37-46.394,0.74-48.234c-6.63-1.841-17.317,16.937-24.314,41.608c-2.58,8.835-4.053,17.304-4.788,24.667
	c-0.736-7.363-2.58-15.832-4.792-24.667c-6.997-24.671-18.049-43.449-24.312-41.608c-6.631,1.84-6.265,23.564,0.735,48.234
	c3.316,11.415,7,21.355,11.053,28.719l-35.733,6.629v123.714L974.09,238.437L974.09,238.437z M958.249,224.079l-73.681,8.101
	v-99.413l73.681-13.625V224.079z"/>
<path fill="#62BFB8" d="M1075.033,233.283l-100.943,5.154l-104.993,5.157L646.95,254.64l-10.313,587.275l428.077-26.144
	L1075.033,233.283z M667.952,329.75v-46.76l370.974-3.682l-3.313,50.812l-6.631,107.145l-43.841,1.105l-31.681,0.736l-26.158,0.736
	l-26.153,0.737l-112.363,2.945l-36.839,0.738l-28.001,0.734l-17.684,0.369l-38.682,1.104V329.75H667.952z M993.985,795.153
	l-10.686,0.369l-25.051,1.104l-6.629,0.367l-7.37,0.37l-9.948,0.367l-38.314,1.843l-20.999,1.102l-21.734,1.105l-28,1.474
	l-14.363,0.734l-34.263,1.843l-34.264,1.841l-23.575,1.106l-16.947,0.734l-41.631,2.209l2.215-20.986l9.576-94.259l2.208-23.198
	l335.615-10.678l1.472,9.944l16.949,120.399L993.985,795.153z M1043.348,560.61l-1.472,28.353l-2.58,57.809l-125.626-2.948
	l-120.834-2.946l-14.365-0.367l-13.263-0.369l-35.365-0.735l-36.841-0.737l-15.108-0.366l-6.259-106.777l-3.319-55.23l378.715,6.994
	L1043.348,560.61z"/>
<polygon fill="#569B96" points="934.67,798.466 934.67,798.466 944.619,797.73 934.67,797.73 "/>
<polygon fill="#569B96" points="687.476,809.88 662.426,809.88 662.426,791.47 662.426,791.47 660.211,812.089 701.842,809.88 
	701.842,809.88 "/>
<polygon fill="#569B96" points="993.985,673.278 1011.297,673.278 1009.825,663.34 674.582,674.016 672.002,696.843 
	687.476,696.843 687.476,687.638 719.156,687.638 719.156,696.843 742.733,696.843 776.995,696.843 776.995,683.59 810.891,683.59 
	810.891,696.843 825.625,696.843 825.625,683.59 853.622,683.59 853.622,696.843 875.36,696.843 875.36,712.676 896.726,712.676 
	896.726,719.304 934.67,719.304 934.67,696.843 951.62,696.843 951.62,797.363 958.249,796.993 958.249,696.843 983.3,696.843 
	983.3,795.891 993.985,795.153 993.985,795.153 "/>
<polygon fill="#BF7DAB" points="662.426,809.88 687.476,809.88 687.476,696.843 672.002,696.843 662.426,791.47 662.426,791.47 "/>
<polygon fill="#AF5795" points="719.156,687.638 687.476,687.638 687.476,696.843 687.476,809.88 701.842,809.88 701.842,809.88 
	719.156,809.144 719.156,696.843 "/>
<polygon fill="#BF7DAB" points="719.156,696.843 719.156,809.144 742.733,808.041 742.733,696.843 "/>
<polygon fill="#D0A3C2" points="742.733,696.843 742.733,808.041 776.995,806.198 776.995,696.843 "/>
<polygon fill="#BF7DAB" points="810.891,683.59 776.995,683.59 776.995,696.843 776.995,806.198 810.891,804.727 810.891,696.843 
	"/>
<polygon fill="#D0A3C2" points="810.891,696.843 810.891,804.727 825.625,803.988 825.625,696.843 "/>
<polygon fill="#BF7DAB" points="853.622,683.59 825.625,683.59 825.625,696.843 825.625,803.988 853.622,802.517 853.622,696.843 
	"/>
<polygon fill="#AF5795" points="875.36,696.843 853.622,696.843 853.622,802.517 875.36,801.412 875.36,712.676 "/>
<polygon fill="#8F4C7C" points="896.726,712.676 875.36,712.676 875.36,801.412 896.726,800.308 896.726,719.304 "/>
<polygon fill="#D0A3C2" points="934.67,797.73 934.67,719.304 896.726,719.304 896.726,800.308 934.67,798.466 934.67,798.466 "/>
<polygon fill="#E4CDDE" points="934.67,696.843 934.67,719.304 934.67,797.73 944.619,797.73 951.62,797.363 951.62,696.843 "/>
<polygon fill="#D0A3C2" points="993.985,673.278 993.985,795.153 993.985,795.153 1028.246,793.679 1011.297,673.278 "/>
<polygon fill="#AF5795" points="958.249,696.843 958.249,796.993 983.3,795.891 983.3,696.843 "/>
<polygon fill="#569B96" points="671.265,531.524 692.631,531.524 692.631,502.436 729.47,502.436 729.47,524.896 765.208,524.896 
	765.208,502.436 778.102,502.436 792.47,502.436 792.47,641.248 913.67,643.823 913.67,643.823 913.67,589.33 879.41,589.33 
	879.41,563.189 879.41,563.189 842.941,640.877 827.095,633.515 882.357,515.323 898.2,522.687 880.515,560.61 1043.348,560.61 
	1043.348,560.61 1047.03,483.288 667.952,476.294 "/>
<polygon fill="#AF5795" points="671.265,531.524 677.53,638.302 692.631,638.668 692.631,531.524 "/>
<polygon fill="#8F4C7C" points="729.47,524.896 729.47,502.436 692.631,502.436 692.631,531.524 692.631,638.668 729.47,639.405 
	729.47,639.405 "/>
<polygon fill="#AF5795" points="765.208,524.896 729.47,524.896 729.47,639.405 729.47,639.405 765.208,640.51 765.208,640.51 "/>
<polygon fill="#D0A3C2" points="765.208,502.436 765.208,524.896 765.208,640.51 765.208,640.51 778.102,640.877 778.102,502.436 
	"/>
<polygon fill="#BF7DAB" points="778.102,502.436 778.102,640.877 792.47,641.248 792.47,502.436 "/>
<polygon fill="#76536D" points="913.67,589.33 913.67,643.823 913.67,643.823 1039.296,647.138 1041.876,589.33 1041.876,589.33 "/>
<polygon fill="#AF5795" points="880.515,560.61 879.41,563.189 879.41,563.189 879.41,589.33 913.67,589.33 1041.876,589.33 
	1041.876,589.33 1043.348,560.61 1043.348,560.61 "/>
<polygon fill="#BF7DAB" points="898.2,522.687 882.357,515.323 827.095,633.515 842.941,640.877 879.41,563.189 880.515,560.61 "/>
<polygon fill="#569B96" points="706.631,340.43 724.314,340.43 724.314,320.917 752.312,320.917 752.312,340.43 789.152,340.43 
	789.152,442.787 901.515,439.842 901.515,439.842 901.515,306.922 927.675,306.922 927.675,292.932 953.827,292.932 953.827,340.43 
	985.508,340.43 985.508,329.75 1035.979,329.75 1039.296,278.939 667.952,282.99 667.952,329.75 706.631,329.75 "/>
<polygon fill="#AF5795" points="706.631,444.996 706.631,340.43 706.631,329.75 667.952,329.75 667.952,445.734 "/>
<polygon fill="#A22882" points="724.314,340.43 706.631,340.43 706.631,444.996 706.631,444.996 724.314,444.262 724.314,444.262 
	"/>
<polygon fill="#BF7DAB" points="752.312,320.917 724.314,320.917 724.314,340.43 724.314,444.262 724.314,444.262 752.312,443.524 
	752.312,340.43 "/>
<polygon fill="#D0A3C2" points="752.312,340.43 752.312,443.524 789.152,442.787 789.152,340.43 "/>
<polygon fill="#BF7DAB" points="985.508,340.43 985.508,438.001 1029.35,436.897 1035.979,329.75 985.508,329.75 "/>
<polygon fill="#8F4C7C" points="953.827,340.43 953.827,438.738 985.508,438.001 985.508,340.43 "/>
<polygon fill="#BF7DAB" points="953.827,292.932 927.675,292.932 927.675,306.922 927.675,439.474 953.827,438.738 953.827,340.43 
	"/>
<polygon fill="#AF5795" points="901.515,306.922 901.515,439.842 901.515,439.842 927.675,439.474 927.675,306.922 "/>
<path fill="#4E5B5B" d="M920.672,2350.42c-5.893-13.258,8.844-17.677,15.103-17.304c0.37,0,0.74,1.102,1.109,2.575
	c-0.739-3.681-1.843-6.994-3.687-9.573c-4.055-6.262-9.579-10.308-16.211-13.623v37.925H920.672z"/>
<polygon fill="#D6EBE9" points="767.048,2254.32 722.473,2257.265 720.631,2267.943 767.048,2266.838 "/>
<polygon fill="#B1DBD7" points="855.833,2265.365 863.203,2264.996 855.833,2249.901 810.151,2246.589 786.573,2263.894 
	855.833,2263.894 "/>
<path fill="#5B7D7C" d="M713.631,2339.375c0,3.312,11.05,5.152,12.527,4.415c0.737,0,1.84-0.367,2.944-0.733
	c2.948-0.737,6.266-1.106,9.576-1.476c5.527-0.734,12.162-0.365,16.95,2.209c4.788,2.577,7.736,6.997,9.579,12.52l10.312-0.365
	l-4.051-89.477h-4.422l-46.787,0.739h-6.999v57.808l0,0C713.631,2325.751,714.001,2335.322,713.631,2339.375z"/>
<path fill="#5B7D7C" d="M853.993,2291.876c3.683,5.89,5.892,12.521,5.892,19.885c0,8.834-3.315,17.301-8.472,23.562l-1.104,17.673
	l67.046-2.945v-37.925v-48.601l-54.151,1.103h-7.37L853.993,2291.876z"/>
<path fill="#D6EBE9" d="M849.939,2352.995l1.104-17.673c-6.998,8.468-17.313,13.625-28.735,13.625
	c-20.627,0-37.208-16.569-37.208-37.187c0-20.623,16.581-37.191,37.208-37.191c13.265,0,25.049,6.999,31.686,17.676l1.84-26.88
	v-1.103h-69.26h-1.104H771.47v2.944l4.051,89.47L849.939,2352.995z"/>
<path fill="#5B7D7C" d="M822.308,2282.305c-16.206,0-29.472,13.253-29.472,29.456c0,16.196,13.266,29.455,29.472,29.455
	c16.21,0,29.473-13.259,29.473-29.455C851.78,2295.558,838.518,2282.305,822.308,2282.305z M815.311,2318.754
	c-8.107,0-14.735-6.629-14.735-14.729c0-8.1,6.628-14.729,14.735-14.729c8.101,0,14.737,6.63,14.737,14.729
	C830.412,2312.125,823.782,2318.754,815.311,2318.754z"/>
<path fill="#B1C3C3" d="M853.993,2291.876c-6.637-10.308-18.421-17.672-31.686-17.672c-20.627,0-37.208,16.568-37.208,37.185
	c0,20.622,16.581,37.189,37.208,37.189c11.422,0,22.104-5.155,28.735-13.621c5.158-6.26,8.476-14.73,8.476-23.568
	C859.885,2304.397,857.676,2297.766,853.993,2291.876z M822.308,2341.216c-16.206,0-29.472-13.259-29.472-29.455
	c0-16.203,13.266-29.456,29.472-29.456c16.21,0,29.473,13.253,29.473,29.456C851.78,2327.957,838.518,2341.216,822.308,2341.216z"/>
<ellipse fill="#FFFFFF" cx="815.311" cy="2304.024" rx="14.737" ry="14.729"/>
<path fill="#93ABAA" d="M1053.662,2246.219c1.477-0.368,3.317-0.733,5.159-0.733c1.844,0,3.686,0,5.527,0.365l-3.684-51.18
	l-10.314,1.475L1053.662,2246.219z"/>
<polygon fill="#D85880" points="1091.978,2025.671 1008.721,2031.56 971.882,2206.454 1050.351,2196.146 1060.665,2194.671 
	1146.5,2183.259 "/>
<path fill="#93ABAA" d="M1058.821,2245.485c-1.842,0-3.314,0.365-5.159,0.733c-4.05,1.106-7.735,3.683-10.682,6.997
	c-4.055,4.787-5.896,10.678-5.524,16.567c0.734,12.149,11.051,21.354,22.841,21.354c0.368,0,1.104,0,1.471,0
	c12.528-0.736,22.106-11.78,21.367-24.67c-0.737-10.674-8.839-19.143-19.155-20.982
	C1062.507,2245.485,1060.665,2245.485,1058.821,2245.485z M1072.82,2267.575c0.37,6.994-4.79,12.889-11.791,13.255
	c-6.63,0.365-12.893-4.786-13.26-11.784c-0.366-6.993,4.789-12.887,11.792-13.252c0.364,0,0.735,0,0.735,0
	C1066.926,2255.794,1072.453,2260.946,1072.82,2267.575z"/>
<polygon fill="#93ABAA" points="1064.349,2323.54 1069.137,2295.191 1052.559,2296.295 1061.029,2323.911 1062.507,2323.54 "/>
<polygon fill="#93ABAA" points="1142.078,2340.478 1064.349,2323.54 1062.507,2323.54 1061.029,2323.911 1012.036,2346.367 
	1132.136,2341.581 "/>
<polygon fill="#569B96" points="1044.453,2429.214 1074.296,2381.716 1040.034,2382.085 "/>
<polygon fill="#569B96" points="729.47,2446.886 729.47,2387.239 689.685,2387.973 "/>
<path fill="#88CEB9" d="M1132.136,2341.581l-120.1,4.786l-72.946,2.945c1.106,9.205,2.21,20.988,3.317,34.245l97.627-1.473
	l34.262-0.738l71.466-1.104l-1.104-39.396L1132.136,2341.581z"/>
<path fill="#88CEB9" d="M724.681,2363.308c-8.471,1.473-15.472,1.473-22.839-2.948c-0.368-0.367-0.735-0.734-1.473-1.104
	l-48.996,1.842l0.732,27.247l37.212-0.735l39.785-0.738l14.371-0.367C743.474,2373.246,741.63,2360.359,724.681,2363.308z"/>
<path fill="#88CEB9" d="M849.939,2352.995l-74.049,2.949l-10.312,0.365c3.312,9.573,3.684,21.355,4.049,29.824l153.624-2.576
	c1.104-13.994,1.841-23.565-2.579-33.874h-3.686L849.939,2352.995z"/>
<path fill="#565F5E" d="M936.884,2335.691c-0.369-1.839-0.739-2.575-1.109-2.575c-6.259-0.373-20.995,4.046-15.103,17.304
	c4.42,9.939,3.683,19.881,2.579,33.872c-0.738,8.839-1.474,19.519-0.738,32.771c1.475,29.456,1.475,59.276-1.103,89.106
	c-2.581,30.191-15.841,52.285-38.316,71.797c-15.84,13.624-39.786,30.561-62.257,20.987c-15.474-6.631-25.788-18.781-32.421-33.507
	c-10.314-22.83-8.84-54.127-10.684-78.061c-2.212-32.766-5.523-65.168-8.105-97.938c0-1.104,0-1.839-0.365-2.944
	c-0.372-8.47-0.738-20.617-4.054-29.823c-1.843-5.522-4.791-9.939-9.579-12.521c-5.158-2.578-11.423-2.943-16.95-2.205
	c-3.311,0-6.259,0.732-9.576,1.469c-1.474,0.369-2.207,0.369-2.944,0.736c-1.478,0.738-12.527-1.103-12.527-4.416
	c0-4.052,0-13.625,0-13.625l0,0c-11.789,8.1-27.996,23.199-13.262,33.507c0.367,0.367,0.737,0.738,1.473,1.103
	c7.367,4.421,14.368,4.421,22.839,2.946c16.579-2.946,18.793,9.94,19.16,23.935c0,5.154,0,10.309,0.365,15.095
	c3.317,42.713,6.265,85.791,10.685,128.134c2.946,28.719,8.844,53.389,31.315,72.532c50.101,43.081,114.205-1.104,145.15-45.653
	c18.785-27.25,18.048-65.539,16.209-97.208c-1.107-20.25-2.946-50.442-5.158-76.585c-1.107-13.252-2.211-25.405-3.317-34.239
	C938.354,2343.423,937.617,2338.64,936.884,2335.691z"/>
<path fill="#E8A7B6" d="M704.054,1934.726c-8.844-6.262-19.157-9.573-29.844-9.573c-10.682,0-20.994,4.049-29.471,10.308
	c-8.473,6.262-15.104,15.095-20.263,24.301c-5.155,9.204-8.473,19.515-10.682,29.826c-2.214,10.31-3.317,20.985-2.945,31.663
	c0,10.31,1.472,21.356,4.051,31.298c2.58,10.309,6.265,20.253,11.789,29.088c5.154,8.835,11.789,16.936,19.891,22.825
	c8.105,5.896,17.688,9.575,27.63,9.575c9.581,0,19.53-2.943,28.001-8.836c8.474-5.523,15.474-13.626,21.365-22.83
	c11.421-18.039,16.58-39.764,16.946-61.487c0.37-21.725-4.418-43.818-15.103-62.592
	C719.894,1949.451,712.893,1940.986,704.054,1934.726z M674.21,2082.739c-19.524,0-35.731-15.83-35.731-35.715
	c0-11.046,4.789-20.616,12.522-27.248c-3.683-6.993-6.262-19.143-6.262-32.77c0-21.353,5.896-39.028,13.264-39.028
	c7.369,0,13.262,17.306,13.262,39.028c0,9.574-1.105,18.04-2.949,25.038c1.844-0.365,3.687-0.365,5.528-0.365
	c2.208,0,4.79,0.365,7,0.733c-1.84-6.628-3.313-15.462-3.313-25.036c0-21.355,5.892-39.028,13.259-39.028
	s13.265,17.306,13.265,39.028c0,14.359-2.58,26.876-6.631,33.506c7.369,6.628,11.786,15.833,11.786,26.506
	C709.947,2066.909,694.105,2082.739,674.21,2082.739z"/>
<path fill="#FFFFFF" d="M698.156,2020.883c4.055-6.63,6.636-19.146,6.636-33.506c0-21.355-5.897-39.028-13.266-39.028
	s-13.261,17.306-13.261,39.028c0,9.574,1.104,18.408,3.312,25.036c-2.208-0.368-4.418-0.733-6.996-0.733
	c-1.843,0-3.684,0.365-5.527,0.365c1.844-6.627,2.947-15.464,2.947-25.038c0-21.353-5.894-39.028-13.261-39.028
	c-7.368,0-13.265,17.306-13.265,39.028c0,13.992,2.577,25.776,6.263,32.77c-7.736,6.632-12.526,16.202-12.526,27.248
	c0,19.512,15.844,35.715,35.734,35.715c19.896,0,35.737-15.83,35.737-35.715C709.947,2036.716,705.156,2027.141,698.156,2020.883z"
	/>
<path fill="#AD4D6B" d="M707.738,1929.201c-9.582-6.997-21.738-11.046-33.528-11.046c-12.156-0.366-23.944,3.684-34.262,10.309
	c-10.313,6.627-18.783,15.467-25.416,25.408c-13.632,19.88-20.263,44.183-20.632,67.746c0,12.152,1.476,23.933,4.422,35.715
	s7.734,22.83,14.368,33.511c6.631,10.306,15.103,19.513,25.419,26.505c10.314,6.997,23.209,11.417,35.734,11.046
	c13.261,0,25.421-4.786,35.735-11.779c10.314-7.362,18.05-16.568,24.314-26.882c12.156-20.618,17.313-44.552,17.313-67.747l0,0
	c-0.366-23.565-6.261-47.128-19.156-66.644C725.788,1945.034,717.685,1935.828,707.738,1929.201z M723.576,2083.108
	c-5.523,8.837-12.892,16.938-21.365,22.828c-8.471,5.889-18.42,8.837-28.001,8.837c-9.942,0-19.524-3.681-27.63-9.573
	c-8.102-5.892-14.736-13.992-19.891-22.83c-5.159-8.836-9.209-18.777-11.789-29.087c-2.579-10.308-4.051-20.988-4.051-31.297
	c-0.372-10.678,0.731-21.353,2.945-31.666c2.209-10.309,5.526-20.618,10.682-29.823c5.158-9.204,11.79-18.042,20.263-24.299
	c8.477-6.26,18.789-10.311,29.471-10.311c10.687,0,21,3.682,29.844,9.572c8.839,6.262,15.84,14.729,21.366,23.934
	c10.685,18.778,15.473,40.87,15.103,62.593C740.522,2043.342,734.997,2065.069,723.576,2083.108z"/>
<path fill="#F2D1D6" d="M800.941,1925.152c11.053,17.303,28.367,29.823,46.785,30.19c18.423,0.369,36.471-11.782,48.634-29.086
	c12.154-17.305,18.783-39.031,18.783-61.123c0-11.047-1.103-22.093-3.681-32.401c-2.58-10.673-7.002-20.987-12.53-30.192
	c-5.891-9.204-13.26-17.302-21.73-23.197c-8.845-5.891-18.792-9.203-29.105-8.832c-10.314,0-20.263,3.681-28.366,9.937
	c-8.476,5.896-15.473,14.362-20.633,23.199c-10.682,18.413-15.472,40.131-15.102,61.487
	C783.996,1886.491,789.522,1907.847,800.941,1925.152z M814.574,1878.021c1.104,0.37,2.207,0.37,3.312,0.37
	c1.476,0,2.951-0.37,4.422-0.737c-8.105-1.476-13.999-8.469-13.999-16.936c0,0,0,0,0-0.37c2.212,1.475,5.159,2.212,7.735,2.212
	c-4.789-2.948-7.735-8.473-7.735-14.361c0-3.316,0.737-6.261,2.212-8.838c8.475,10.678,21.368,17.304,35.731,18.043
	c-0.365-1.104-0.365-2.579-0.365-4.049c0-9.577,7.735-17.308,17.316-17.308c5.154,0,9.576,2.21,12.522,5.523
	c4.054-0.737,7.739-2.21,11.052-4.052c-1.47,4.052-4.051,7.363-7.733,9.576c3.683-0.37,6.998-1.475,9.945-2.578
	c-2.212,3.313-5.157,6.627-8.842,8.838c0,0.732,0,1.47,0,2.208c0,22.828-17.682,49.339-49.367,49.339
	c-9.943,0-19.154-2.947-26.522-7.734c1.472,0,2.576,0.371,4.051,0.371c8.108,0,15.474-2.949,21.739-7.365
	C823.045,1889.803,816.781,1884.651,814.574,1878.021z"/>
<path fill="#AD4D6B" d="M804.993,1897.167c7.739,4.787,16.947,7.734,26.524,7.734c32.051,0,49.367-26.511,49.367-49.339
	c0-0.738,0-1.476,0-2.208c3.312-2.579,6.267-5.524,8.839-8.838c-2.946,1.473-6.63,2.208-9.944,2.578
	c3.686-2.213,6.263-5.524,7.736-9.576c-3.318,1.842-7.001,3.314-11.053,4.052c-3.315-3.313-7.734-5.523-12.525-5.523
	c-9.578,0-17.315,7.73-17.315,17.308c0,1.47,0,2.572,0.369,4.049c-14.367-0.739-27.261-7.731-35.736-18.043
	c-1.469,2.577-2.209,5.521-2.209,8.838c0,5.889,2.948,11.413,7.735,14.361c-2.945,0-5.526-0.737-7.735-2.212c0,0,0,0,0,0.37
	c0,8.467,5.895,15.46,13.999,16.936c-1.474,0.367-2.945,0.737-4.42,0.737c-1.104,0-2.208,0-3.314-0.37
	c2.21,6.997,8.472,11.782,16.207,12.152c-5.893,4.787-13.632,7.365-21.731,7.365
	C807.941,1897.538,806.468,1897.167,804.993,1897.167z"/>
<path fill="#AD4D6B" d="M768.153,1865.134c-0.367,23.934,4.421,48.235,16.577,69.592c6.263,10.679,14.367,20.617,25.056,27.979
	c10.681,7.367,23.943,12.154,37.57,12.154c13.635,0,26.526-5.156,36.841-12.885c10.319-7.735,18.055-17.678,23.946-28.354
	c5.897-10.679,9.582-22.092,12.159-33.509c2.579-11.412,3.315-23.194,3.315-34.978l0,0c0-11.779-1.472-23.196-4.42-34.609
	c-2.948-11.415-7-22.461-13.264-32.399c-5.892-9.943-13.632-19.517-23.577-26.511c-9.945-6.998-22.105-11.417-34.631-11.784
	c-12.523-0.367-25.049,4.05-34.994,10.681c-10.314,6.992-18.42,16.198-25.051,26.142
	C774.787,1817.639,768.523,1841.57,768.153,1865.134z M818.995,1780.447c8.471-5.888,18.419-9.571,28.361-9.937
	c10.319-0.371,20.264,2.941,29.106,8.832c8.845,5.896,16.211,13.993,21.737,23.197c5.525,9.205,9.943,19.52,12.524,30.192
	c2.581,10.68,3.685,21.726,3.685,32.401c-0.368,22.092-6.998,43.818-18.788,61.123c-11.789,17.304-30.21,29.455-48.63,29.086
	c-18.418,0-35.736-12.888-46.789-30.19c-11.417-17.306-16.943-38.661-17.315-60.019c-0.364-21.356,4.424-43.074,15.108-61.487
	C803.521,1794.81,810.521,1786.343,818.995,1780.447z"/>
<path fill="#E8A7B6" d="M985.508,1766.827c8.478,6.257,18.42,9.94,28.741,9.94c10.312,0.369,20.626-2.945,29.47-8.836
	c8.84-5.895,16.207-13.99,22.104-23.194c11.417-18.41,16.946-40.875,16.946-62.966c-0.371-22.09-5.529-44.183-16.946-62.959
	c-5.896-9.205-13.264-17.306-22.104-23.196c-8.844-5.894-19.158-9.205-29.47-8.838c-10.321,0-20.264,4.048-28.741,9.941
	c-8.472,5.892-15.47,14.356-20.628,23.562c-11.053,18.41-15.842,40.136-15.842,61.49c0,21.356,4.789,43.448,15.842,61.489
	C970.405,1752.468,977.036,1760.935,985.508,1766.827z M977.036,1673.304c-4.789-2.579-12.156,2.578-11.051,9.573
	c0.369,3.314,3.684,5.522,8.104,5.155c10.685-1.106,16.211-13.99,26.154-15.094c6.632-0.737,12.161,1.104,13.631,8.833
	c1.478-5.153,5.527-9.57,13.999-8.833c1.842,0.365,4.421,1.104,5.896,2.207c6.631,4.049,11.791,11.78,19.892,12.887
	c14.003,1.842,7.367-19.884-2.576-14.361c6.26-5.522,13.263,3.316,13.263,10.313c0,11.777-13.263,18.409-25.788,15.831
	c0.735,1.104,2.578,1.104,4.05,1.47c-13.999,0.37-26.154-2.573-28.735-13.989c-3.313,11.044-14.734,14.359-29.471,14.359
	c1.475-0.736,3.316-0.736,4.421-1.84c-11.789,2.578-26.156-3.315-26.524-15.831C963.404,1677.353,969.669,1668.148,977.036,1673.304
	z"/>
<path fill="#6D1132" d="M989.931,1699.815c-1.105,1.104-3.315,1.104-4.423,1.84c14.736,0,25.789-2.943,29.472-14.359
	c2.58,11.416,14.736,14.359,28.739,13.989c-1.475-0.366-3.317-0.366-4.056-1.47c12.157,2.578,25.421-4.42,25.789-15.831
	c0-6.997-6.996-15.836-13.263-10.313c10.317-5.152,16.581,16.203,2.581,14.361c-8.104-1.106-13.264-8.838-19.896-12.887
	c-1.474-1.104-4.05-1.842-5.894-2.207c-8.476-1.108-12.525,3.68-14.002,8.833c-1.84-7.729-6.996-9.57-13.627-8.833
	c-10.317,1.104-15.845,13.987-26.158,15.094c-4.422,0.367-7.735-1.841-8.105-5.155c-1.104-6.995,6.262-12.152,11.053-9.573
	c-6.999-5.155-13.631,4.049-13.631,10.681C963.776,1696.5,978.142,1702.024,989.931,1699.815z"/>
<path fill="#AD4D6B" d="M979.249,1776.032c10.313,6.995,22.469,11.046,35,10.677c12.521,0,24.677-4.786,34.258-11.784
	c9.949-6.993,17.681-16.198,23.575-26.507c12.16-20.253,17.314-43.817,17.314-66.646l0,0c0-23.196-5.154-46.392-17.314-66.643
	c-5.895-9.942-13.626-19.513-23.575-26.511c-9.581-6.997-21.736-11.411-34.258-11.783c-12.531-0.365-24.687,3.684-35,10.681
	c-10.317,6.992-18.419,15.832-24.686,26.139c-12.525,20.622-18.419,44.187-18.419,68.117c0.37,23.565,5.894,47.498,18.419,68.116
	C960.83,1759.83,968.932,1769.035,979.249,1776.032z M964.88,1620.281c5.525-9.205,12.156-17.301,20.628-23.562
	c8.478-6.26,18.42-9.941,28.741-9.941c10.312-0.367,20.626,2.944,29.47,8.838c8.84,5.891,16.207,13.991,22.104,23.196
	c11.417,18.409,16.946,40.869,16.946,62.959c-0.371,22.091-5.529,44.184-16.946,62.966c-5.896,9.204-13.264,17.3-22.104,23.194
	c-8.844,5.891-19.158,9.205-29.47,8.836c-10.321,0-20.264-4.048-28.741-9.94c-8.472-5.893-15.47-14.359-20.628-23.566
	c-11.053-18.41-15.842-40.133-15.842-61.489C949.038,1660.417,953.827,1638.691,964.88,1620.281z"/>
<path fill="#4C1E41" d="M274.867,272.681c-31.681-6.26-63.365-4.05-92.469,4.787c0.369,2.578,0.735,5.522,1.104,8.102
	c28.368-8.471,58.944-10.679,89.891-4.79c101.68,19.517,168.725,118.192,149.2,219.816
	c-19.525,101.621-118.255,168.633-219.932,149.12C100.983,630.2,33.932,531.524,53.458,429.9
	c12.526-65.907,58.576-117.084,117.152-139.915c-0.371-2.944-0.736-5.522-1.105-8.467c-61.894,23.195-110.52,77.32-123.782,146.542
	c-2.581,14.361-4.054,28.721-3.317,43.448l-5.894,0.369c2.211,93.521,69.996,176.733,166.517,195.144
	c110.887,21.354,218.461-51.181,239.46-161.271c19.892-103.831-44.207-205.085-144.78-233.806l-3.684,5.154
	C287.023,275.258,280.762,273.785,274.867,272.681z"/>
<path fill="#A22882" d="M44.984,428.06c13.263-69.589,61.892-123.346,123.783-146.542c-1.104-8.101-2.211-16.202-3.314-23.933
	C93.613,282.622,36.88,344.111,21.408,423.643c-2.947,16.199-4.421,32.399-3.685,48.6l17.685-0.734l5.893-0.369
	C41.3,457.149,42.406,442.42,44.984,428.06z"/>
<path fill="#A22882" d="M182.03,277.098c29.103-8.837,60.785-10.677,92.467-4.786c6.265,1.104,12.526,2.578,18.419,4.419
	l3.686-5.156l10.684-15.094c-9.21-2.947-18.786-5.523-28.367-7.364c-34.262-6.628-68.154-4.788-99.835,4.048
	c0.737,6.998,1.842,13.993,2.579,20.988C182.03,275.258,182.03,275.995,182.03,277.098z"/>
<path fill="#4C1E41" d="M-223.58,355.526c-2.946-0.738-5.525-1.107-8.472-1.842c-0.368,6.995-1.473,13.991-2.947,20.987
	c-1.105,5.156-2.209,9.941-3.685,14.727l8.105,2.21c1.473-5.155,2.579-10.309,3.685-15.464
	C-225.052,369.516-223.948,362.521-223.58,355.526z"/>
<path fill="#4C1E41" d="M-231.682,348.163c2.946,0.734,5.526,1.471,8.473,1.84c2.946-54.126-16.578-105.674-51.575-143.599
	l-6.264,5.524C-247.894,248.38-229.105,296.982-231.682,348.163z"/>
<path fill="#4C1E41" d="M-244.576,438.37c5.893-9.942,11.051-20.62,15.103-31.666l-12.894-4.05
	c-3.683,10.677-8.842,20.989-14.367,30.562C-252.682,435.422-248.629,436.897-244.576,438.37z"/>
<path fill="#4C1E41" d="M-456.406,532.997c83.994,16.2,166.146-22.093,208.881-89.841c-4.052-1.472-8.104-3.314-12.156-4.786
	c-39.789,64.066-116.416,100.518-195.253,85.421c-101.679-19.514-168.359-118.19-148.832-219.813
	c19.156-101.623,117.888-168.636,219.933-149.12c34.999,6.627,66.313,22.828,90.996,45.288l5.895-5.892
	c-25.788-23.564-58.208-40.501-95.417-47.865c-74.417-13.99-149.938,15.465-194.515,75.849l-6.63-1.473
	c-16.21,22.83-27.999,48.97-33.894,78.06C-638.028,407.073-565.821,512.01-456.406,532.997z"/>
<path fill="#A22882" d="M-200.737,360.68c-7.368-1.841-15.104-3.313-22.842-5.153c-0.734,6.994-1.473,13.621-2.946,20.618
	c-1.106,5.156-2.211,10.31-3.683,15.464l19.155,5.153l3.317,0.737c1.473-5.522,2.947-11.415,4.052-16.937
	C-202.21,373.935-201.474,367.308-200.737,360.68z"/>
<path fill="#A22882" d="M-223.209,350.003c8.105,1.84,15.473,3.682,22.841,5.155c4.42-61.857-17.315-121.139-57.471-164.586
	l-17.314,15.465C-239.788,244.329-220.264,295.876-223.209,350.003z"/>
<path fill="#A22882" d="M-382.359,146.388c36.84,6.997,69.261,23.933,95.417,47.865l14.736-14.727l1.473-1.473
	c-29.104-27.246-65.576-46.394-107.206-54.492c-86.943-16.569-174.989,20.25-223.986,93.522l18.42,3.681l6.63,1.104
	C-532.298,161.853-456.776,132.398-382.359,146.388z"/>
<path fill="#8F4C7C" d="M-397.831,356.998c-2.581,2.945-5.526,5.155-8.841,6.627C-402.988,362.152-400.042,359.577-397.831,356.998z
	"/>
<path fill="#8F4C7C" d="M231.764,485.13c11.789,2.209,23.209-5.523,25.421-17.305c2.21-11.783-5.527-23.196-17.316-25.405
	c-3.682-0.737-7.366-0.369-11.051,0.735c2.946,5.524,6.263,10.678,9.946,15.833l-7,5.154c-4.053-5.154-7.736-10.677-11.053-16.2
	c-3.314,2.945-5.893,7.363-6.629,12.149C212.24,471.508,219.976,482.922,231.764,485.13z"/>
<path fill="#BF7DAB" d="M-175.686,464.88c-17.683-6.26-42.367-15.833-68.89-26.51c-4.053-1.472-8.105-3.313-12.158-4.788
	c-64.47-26.14-138.15-57.438-160.623-66.642c-2.577,0.368-5.158,0-7.735-0.369c-15.842-2.946-26.525-18.409-23.578-34.61
	c2.948-16.202,18.419-26.511,34.63-23.566c2.947,0.736,5.893,1.474,8.472,2.946l3.316-2.946c-6.631-1.473-10.684-2.577-11.052-2.577
	c-17.313-3.314-34.26,8.1-37.576,25.405c-3.316,17.306,8.104,34.242,25.419,37.558c7.737,3.313,92.469,39.396,166.516,69.22
	c4.053,1.473,8.105,3.314,12.158,4.786c43.839,17.675,81.783,32.035,94.679,34.612l0,0c13.262,2.578,26.524,0,37.577-6.63
	c-7.738,3.684-16.209,5.894-25.052,5.894C-152.845,477.03-165.739,472.979-175.686,464.88z"/>
<path fill="#BF7DAB" d="M-223.209,350.003c-2.947-0.738-5.527-1.106-8.473-1.84c-56.367-12.889-122.678-28.353-157.676-36.821
	l-4.789,4.418c33.892,8.101,103.521,24.301,162.096,37.557c2.947,0.737,5.526,1.471,8.472,1.841
	c7.738,1.84,15.475,3.681,22.842,5.153c13.63,2.947,25.789,5.892,36.103,8.102c1.106-0.37,2.211-1.105,3.314-1.473l-0.366-3.315
	c-10.685-2.577-23.947-5.523-38.683-8.837C-207.736,353.685-215.104,351.843-223.209,350.003z"/>
<path fill="#8F4C7C" d="M-286.942,194.253l-6.264,5.892l-7,6.995l-55.997,55.966c-9.21,9.206-18.789,18.411-28.366,27.615
	l-18.053,17.306l-3.315,2.945c-2.578-1.472-5.526-2.577-8.473-2.945c-15.841-2.946-31.313,7.365-34.628,23.564
	c-3.318,16.201,7.368,31.296,23.577,34.61c2.578,0.369,5.157,0.737,7.737,0.369h0.367c2.21-0.369,4.79-0.737,7-1.472h0.368
	c1.106-0.369,1.842-0.738,2.949-1.107h0.369c3.314-1.84,6.26-4.05,8.841-6.626l0,0l7.737,2.21l34.998,10.308l34.998,10.309
	c11.787,3.315,23.208,6.628,34.997,10.311l42.366,12.887l12.894,4.051l14.367,4.417l18.052,5.891c0,1.474,0,3.314,0,4.788
	c0.369,14.727,6.63,29.455,17.314,39.397c1.474,1.473,2.947,2.577,4.421,3.682c9.947,7.732,22.471,12.15,34.998,11.782
	c8.841,0,17.314-2.209,25.052-5.891c5.157-2.578,9.946-5.892,14.367-9.942c10.684-9.94,16.947-24.668,17.312-39.396l0,0
	c0.371-8.839-1.842-17.675-5.525-25.774l248.303-185.205l2.578,21.357l-2.212,0.367l1.843,15.834l2.948-0.368
	c0.367,3.312,0.736,6.259,1.104,9.572c1.107,8.1,2.21,16.201,3.314,23.933c0.371,2.945,0.739,5.523,1.108,8.468
	c0.734,4.789,1.472,9.574,2.577,13.993c3.317,18.776,7.369,37.187,12.528,55.596c5.157,18.41,11.051,36.453,18.785,54.126
	c5.159,11.783,10.687,23.196,17.315,33.875c3.316,5.523,7,11.046,11.053,16.2l7-5.154c-3.683-5.155-7-10.31-9.946-15.833
	c-6.264-10.678-11.421-21.724-15.841-33.507c-7-17.303-12.527-34.977-16.947-53.019c-4.42-18.042-8.104-36.452-10.685-54.861
	c-0.734-5.523-1.472-11.046-2.211-16.199c-0.366-2.579-0.735-5.524-1.103-8.102c0-1.105-0.369-2.21-0.369-2.945
	c-0.736-6.996-1.474-13.993-2.579-20.988c-0.367-2.209-0.738-4.786-0.738-6.996l2.947-0.369l-1.841-15.832l-2.209,0.369
	l-3.683-31.666c0.734-1.842,1.104-4.051,0.734-6.261l-4.053-23.196l0,0v-0.367l-2.947-26.143l-3.314,0.369l-2.211-19.882
	c4.789-1.106,9.948-2.578,14.734-4.42c5.159-2.209,10.685-4.418,15.476-8.468c2.208-1.84,4.789-4.418,6.26-7.732
	c0.739-1.842,1.474-3.683,1.474-5.523c0-2.209-0.369-4.42-1.474-6.26c-1.842-3.683-5.156-5.89-8.103-7.364
	c-2.948-1.472-6.263-1.84-9.21-2.208c-5.894-0.368-11.789,0.367-17.314,1.473c-0.739,0-1.475-1.106-2.211-1.106
	c-0.369,0-0.735,0-1.104,0l-1.108,0.368l-4.053,0.738c-2.576,0.734-5.157,1.104-7.732,1.84c-5.159,1.473-10.316,2.945-15.476,4.418
	c-2.578,0.736-5.157,1.841-7.735,2.578l-3.686,1.473c-1.104,0.368-2.578,0.368-3.314,2.946l3.314,9.94
	c1.844,1.473,2.949,0.737,4.421,0.367l3.684-1.103c2.579-0.737,5.158-1.475,7.738-2.209l7.733-2.211l5.158-1.472v0.368
	c-1.474,0.367-2.578,1.104-4.05,1.473l-7,2.576l-3.317,1.106l-1.844,0.736l-0.733,0.369c-0.371,0-0.739,0-0.739,0.737l0.739,1.841
	c0.367,0.368,0.733,0,1.103,0l0.737-0.369l1.841-0.737l3.318-1.473c2.209-0.735,4.786-1.842,6.998-2.576
	c1.107-0.369,2.211-0.737,3.316-1.475l5.158,41.239l-3.316,0.369l1.843,15.097l-299.14-54.864l0.736-3.682l-15.473-2.944
	c-2.579-0.369-5.157-1.104-7.736-1.473l-3.684-0.736l-0.736-8.099l-1.476-37.558l9.579,4.42l24.314,11.78l12.156,5.892
	c4.053,1.842,8.105,4.051,11.422,7.365c0,0,0.368,0.367,0.736,0.367c2.578,2.21,6.631,1.474,8.474-1.105
	c2.21-2.576,1.472-6.627-1.104-8.468l-2.212-1.473c-14.735-11.045-29.472-21.723-43.838-32.77l-22.104-16.202l-11.051-8.099
	c-3.684-2.579-7.368-5.155-11.421-6.996l-6.63-2.947c-1.476-0.733-2.58-1.103-4.054-1.103c-8.84-1.472-17.314,4.786-18.789,13.991
	c-1.472,8.836,4.788,17.305,13.999,18.777c4.79,0.738,8.843,2.578,12.894,4.42l7.369,3.312l1.843,48.235l1.474,13.991
	c-3.317,2.578-7.001,5.154-9.947,7.732c-2.579,2.21-5.158,4.417-7.369,6.627c-2.579,2.21-4.788,4.418-7.367,6.628l-28.368,27.614
	l-26.523,26.142l-1.473,1.473L-286.942,194.253z M162.506,95.578l1.105-0.369c0.368,0,0.735,0,0.735-0.369
	c0.369-0.367,0.737-1.842,1.474-2.207c4.79-1.475,9.579-2.21,14.367-1.843c2.211,0,4.423,0.736,6.263,1.474
	c1.842,0.734,3.317,1.84,3.685,2.945c0.366,1.105,0.366,2.209-0.368,3.681c-0.738,1.473-2.211,2.948-3.685,4.42
	c-3.684,2.945-8.105,4.786-12.894,6.626c-4.052,1.473-8.105,2.209-12.523,2.947l-1.477-14.361l0,0l0,0V97.05L162.506,95.578z
	 M-108.636,453.834c-4.053,4.419-9.212,7.731-14.369,10.31c-5.525,2.21-11.421,3.682-17.315,3.682
	c-12.156,0-23.945-5.153-32.051-13.623c-8.103-8.468-12.525-20.251-12.156-32.032c0-0.368,0-0.368,0-0.738l4.053,1.473l17.313,5.522
	l17.316,5.523c2.579,0.737,5.895,0.37,8.472-1.473l0.369-0.368l36.84-27.246c2.58,5.522,4.053,11.045,4.053,17.306
	C-96.111,433.582-100.533,444.996-108.636,453.834z M-180.474,404.495c2.21-5.154,5.525-9.572,9.578-13.254
	c3.315-3.314,7.368-5.89,11.788-8.1l2.947,27.614l-1.84-0.369l-17.685-4.418L-180.474,404.495z M-139.95,379.089
	c9.944,0,19.524,3.683,27.261,9.942l-24.315,18.042L-139.95,379.089z M-165.004,120.615l15.475,2.947l0.738-3.682l301.351,59.279
	l1.841,10.679l-254.564,189.99c-5.157-5.156-11.053-9.206-17.685-12.151c-6.997-2.945-14.734-4.417-22.472-4.417
	c-0.368,0-0.737,0-1.104,0l-27.263-243.747C-167.949,120.248-166.476,120.248-165.004,120.615z M-257.839,190.572l27.261-24.668
	c13.998-12.887,28-25.405,42.366-38.292l26.526,236.381l0.366,3.315c-1.104,0.368-2.208,1.105-3.314,1.474
	c-6.261,2.944-12.157,6.995-16.946,11.781c-5.526,5.892-9.945,12.887-12.525,20.251l-13.63-3.314l-3.317-0.737l-19.155-5.153
	l-8.106-2.21l-43.102-11.412c-11.79-2.947-23.579-6.261-34.998-9.574l-34.999-9.942l-34.998-9.94l-5.159-1.473l0,0
	c0.369-0.737,0.369-1.104,0.737-1.842c0.369-0.735,0.369-1.472,0.738-2.208c0.367-1.105,0.367-2.209,0.367-3.315
	c0-0.367,0-0.735,0-1.104c0-0.737,0-1.473,0-2.209c0-0.369,0-0.735,0-1.105c0-0.736,0-1.473,0-1.84c0-0.369,0-0.737-0.367-1.105
	c0-0.736-0.369-1.104-0.369-1.841c0-0.368-0.369-0.737-0.369-1.104c0-0.738-0.368-1.104-0.737-1.841
	c0-0.369-0.367-0.736-0.367-1.104c-0.369-0.738-0.369-1.106-0.737-1.841c0-0.369-0.369-0.736-0.369-1.106
	c-0.37-0.734-0.736-1.104-1.105-1.472c-0.368-0.369-0.368-0.737-0.737-1.103c-0.368-0.739-0.735-1.106-1.473-1.842
	c0-0.369-0.368-0.369-0.368-0.737l2.948-2.577l4.789-4.418l12.893-12.151c9.581-8.837,19.158-18.041,29.104-26.878
	c19.526-17.673,38.682-35.716,58.575-53.389l8.106-7.363l6.264-5.523L-257.839,190.572z"/>
<polygon fill="#E08199" points="464.591,2077.216 480.435,2077.216 480.435,2069.854 464.591,2070.22 "/>
<polygon fill="#E08199" points="96.931,2108.882 106.876,2108.882 106.876,2101.886 106.876,1931.042 464.591,1938.773 
	464.591,2063.226 480.435,2062.856 480.435,1926.622 91.771,1916.683 91.771,2118.087 96.931,2118.087 "/>
<polygon fill="#AD4D6B" points="270.078,2083.478 279.657,2083.478 279.657,2101.886 452.067,2101.886 452.067,2108.882 
	459.434,2108.882 459.434,2077.216 464.591,2077.216 464.591,2070.22 306.549,2074.273 299.18,2090.105 298.812,2074.639 
	288.129,2074.639 288.129,2067.642 464.591,2063.226 464.591,1938.773 106.876,1931.042 106.876,2101.886 270.078,2101.886 "/>
<rect x="270.078" y="2083.478" fill="#753743" width="9.579" height="18.408"/>
<polygon fill="#561043" points="452.067,2101.886 279.657,2101.886 270.078,2101.886 106.876,2101.886 106.876,2108.882 
	452.067,2108.882 "/>
<polygon fill="#753743" points="288.129,2067.642 288.129,2074.639 298.812,2074.639 299.18,2090.105 306.549,2074.273 
	464.591,2070.22 480.435,2069.854 497.748,2069.481 497.748,2062.488 480.435,2062.856 464.591,2063.226 "/>
<polygon fill="#753743" points="459.434,2077.216 459.434,2108.882 452.067,2108.882 106.876,2108.882 96.931,2108.882 
	96.931,2118.087 489.276,2126.188 489.276,2077.216 480.435,2077.216 464.591,2077.216 "/>
<path fill="#E08199" d="M498.117,2126.554h-8.841l-391.978-8.098h-5.158l-13.262-0.369v108.988l419.606-19.883v-80.639H498.117z
	 M310.604,2196.51l-45.685,1.11c-0.364,0-0.364,0-0.736,0c-18.421,0-33.524-14.729-33.891-33.142
	c0-5.891,4.418-10.675,10.314-10.675c5.895-0.369,10.683,4.418,10.683,10.307c0,3.316,1.474,6.627,4.053,9.204
	c2.577,2.214,5.896,3.685,9.214,3.685l45.679-1.105c7,0,12.892-5.891,12.527-13.254c0-5.894,4.42-10.68,10.313-10.68
	c5.893,0,10.685,4.418,10.685,10.309C344.126,2180.681,329.389,2196.146,310.604,2196.51z"/>
<path fill="#984455" d="M333.074,2151.596c-5.894,0-10.313,4.782-10.313,10.673c0,6.997-5.527,12.887-12.527,13.26l-45.679,1.104
	c-3.318,0-6.637-1.104-9.214-3.684c-2.579-2.211-4.053-5.521-4.053-9.205c0-5.894-5.156-10.309-10.683-10.309
	c-5.896,0-10.314,4.787-10.314,10.676c0.367,18.409,15.47,33.138,33.891,33.138c0.372,0,0.372,0,0.736,0l45.685-1.103
	c18.785-0.368,33.522-15.834,33.155-34.613C343.759,2156.009,338.967,2151.596,333.074,2151.596z"/>
<path fill="#D7EBE9" d="M6.303,2143.494c16.211-10.682,22.104-27.617,27.263-45.659c4.787-15.465,11.786-35.717,6.261-51.915
	c-5.895-16.567-23.947-4.051-36.84,8.836l-1.104-28.72h-157.308l22.104,48.971v161.639l142.572-6.625L6.303,2143.494z
	 M-10.276,2215.659l-109.044,4.42c0,0,0-99.415,0-98.678c0,33.138,109.044-38.293,109.044-5.524
	C-10.276,2149.015-10.276,2215.659-10.276,2215.659z M3.356,2063.593c4.054-6.626,9.578-12.519,15.472-16.935
	c16.946-13.259,10.685,29.454,10.315,30.558c-3.683,19.516-9.209,44.186-23.577,59.281L3.356,2063.593z"/>
<path fill="#62BFB8" d="M-119.32,2121.767c0-1.103,0,98.677,0,98.677l109.044-4.416c0,0,0-66.644,0-99.412
	C-10.276,2083.108-119.32,2154.539-119.32,2121.767z"/>
<polygon fill="#B2DBD7" points="-211.789,2240.328 -147.688,2237.383 -150.634,2170.737 -226.893,2174.419 -226.893,2181.051 
	-211.789,2182.153 "/>
<polygon fill="#D7EBE9" points="-211.789,2182.153 -226.893,2181.051 -288.049,2177.367 -291.733,2244.012 -211.789,2240.328 "/>
<path fill="#BF7DAB" d="M568.481,2623.254l-13.631-403.546l-378.348,13.256l-46.417,409.805L568.481,2623.254z M204.134,2399.021
	c5.156,0,9.577,12.886,9.577,29.086c0,16.203-4.421,29.091-9.577,29.091c-5.157,0-9.578-12.888-9.578-29.091
	C194.557,2412.276,198.978,2399.021,204.134,2399.021z"/>
<path fill="#BF7DAB" d="M124.192,2643.139l36.473-409.438l-485.553,17.306l22.104,411.274L124.192,2643.139z M96.931,2611.842
	l-379.453,19.142l19.158-157.952l369.873-1.475L96.931,2611.842z M126.031,2281.568l-8.84,165.317h-399.714l-13.999-168.634
	L126.031,2281.568z"/>
<path fill="#561043" d="M-318.257,2670.753l0.367,7.73l8.105-0.369l901.475-33.872l-20.998-433.004l-0.368-8.096l-7.737,0.364
	l-64.102,2.947l-419.606,19.884l-69.26,3.311l-142.571,6.632l-13.998,0.734l-64.104,2.947l-79.943,3.68l-36.104,1.844h-2.577v2.574
	L-318.257,2670.753z M554.851,2219.708l13.631,403.546l-438.766,19.515l46.419-409.805L554.851,2219.708z M160.665,2233.7
	l-36.473,409.438l-426.977,19.142l-22.104-411.274L160.665,2233.7z"/>
<path fill="#561043" d="M213.791,2428.365c-0.034,16.063-4.354,29.078-9.645,29.063c-5.287-0.012-9.547-13.047-9.509-29.109
	c0.036-16.063,4.354-29.075,9.644-29.064S213.829,2412.298,213.791,2428.365z"/>
<polygon fill="#8F4C7C" points="-282.522,2631.354 96.931,2611.842 106.876,2471.557 -262.996,2473.031 "/>
<polygon fill="#8F4C7C" points="117.56,2446.886 126.031,2281.568 -296.521,2278.622 -282.522,2446.886 "/>
<path fill="#E8A7B6" d="M101.719,1010.916c8.473,15.833,19.526,30.562,33.157,41.607c13.63,11.046,30.208,18.041,47.523,17.674
	c16.946,0,33.526-6.997,47.154-18.044c13.633-11.046,24.684-25.404,33.157-41.237c17.312-31.664,25.053-68.483,25.419-104.936
	c0.37-27.613-3.684-55.229-12.523-81.372c-12.896,2.21-26.896,6.628-37.947,14.359c0,0.368,0.37,0.368,0.37,0.738
	c11.419,20.249,16.944,43.447,17.312,66.645l0,0c0.369,23.195-4.053,46.76-15.104,67.748c-5.527,10.308-12.894,20.249-22.47,27.983
	c-9.581,7.729-21.738,13.253-35,13.253c-12.894,0.367-25.788-4.786-35.736-12.15c-9.946-7.732-17.682-17.305-23.577-27.983
	c-5.895-10.678-9.948-21.726-12.895-33.506c-2.578-11.78-3.684-23.565-3.684-35.345c0.37-23.197,6.263-46.765,18.422-66.645
	c-5.158-4.051-9.949-6.63-13.263-8.101c-6.266-3.314-13.999-5.895-22.475-8.101c-9.577,26.51-13.261,54.492-13.261,82.846
	C77.036,942.063,84.772,978.885,101.719,1010.916z"/>
<path fill="#E8A7B6" d="M149.612,812.089c9.576-6.995,21.365-11.414,33.521-11.414c11.791,0,23.579,4.788,32.791,12.15
	c5.157,4.053,9.576,8.469,13.628,13.624c12.158-10.678,24.684-18.04,36.105-26.511c0-0.365,0-0.365-0.37-0.736
	c-8.475-16.198-19.156-31.295-33.155-42.709c-14-11.415-31.314-18.78-49.365-18.78c-18.052,0-35.365,7.733-49.367,19.147
	c-13.999,11.414-25.051,26.509-33.524,42.713c-0.737,1.102-1.106,2.574-1.84,3.681c12.895,6.259,23.208,11.045,27.63,15.096
	c2.578,2.578,5.526,5.522,8.103,8.837C138.56,821.665,143.717,816.506,149.612,812.089z"/>
<path fill="#E08199" d="M275.971,806.198L275.971,806.198c-0.365,0-0.365,0-0.737,0
	C275.233,806.568,275.605,806.568,275.971,806.198z"/>
<path fill="#E08199" d="M99.876,799.573c8.474-16.204,19.526-31.299,33.524-42.713c14.001-11.414,31.314-19.147,49.367-19.147
	c18.051,0,35.365,7.365,49.365,18.78c13.999,11.414,25.052,26.511,33.155,42.709c0,0.371,0,0.371,0.37,0.736
	c1.842-1.103,3.312-2.575,5.154-3.682c-8.84-16.568-20.629-32.03-35.364-43.814c-14.737-12.149-33.525-20.252-52.681-19.884
	c-19.526-0.368-38.313,7.734-53.052,19.884c-15.102,12.151-26.523,27.613-35.364,44.184c-0.739,1.104-1.474,2.576-1.843,3.682
	c1.843,1.104,4.051,1.84,5.894,2.946C98.77,801.78,99.14,800.675,99.876,799.573z"/>
<path fill="#E08199" d="M288.499,905.612c-0.37,36.451-8.105,73.272-25.422,104.937c-8.472,15.831-19.524,30.194-33.154,41.238
	c-13.633,11.046-30.211,18.042-47.156,18.042c-17.314,0.368-33.894-6.629-47.524-17.676c-13.631-11.046-24.684-25.773-33.157-41.604
	c-16.945-32.036-25.051-68.485-25.42-104.937c-0.368-27.983,3.685-56.334,13.264-82.844c-2.21-0.737-4.423-1.104-6.999-1.475
	c-9.948,26.88-14.737,55.601-15.105,84.318c-0.37,37.924,6.629,76.217,24.314,110.458c8.842,16.938,20.262,32.77,35.734,45.29
	c7.737,6.259,16.209,11.413,25.422,15.098c9.209,3.678,19.524,5.888,29.471,5.888c20.628,0,40.156-8.467,55.261-20.985
	c15.103-12.521,26.891-28.72,35.734-45.658c17.312-34.241,24.681-72.534,24.312-110.459l0,0
	c-0.366-27.982-4.789-55.965-14.368-82.475c-2.209,0.368-4.789,0.368-6.998,1.104C284.815,850.383,288.867,877.997,288.499,905.612z
	"/>
<path fill="#E08199" d="M123.086,905.98c0,10.679,1.105,21.355,3.684,31.667c2.209,10.309,5.895,20.615,10.683,29.821
	c4.79,9.207,11.053,17.675,18.788,23.932c7.738,6.262,16.947,10.312,26.893,10.682c9.58,0.365,19.158-3.317,27.264-9.574
	c8.104-6.261,14.738-14.728,20.262-23.934c10.315-18.779,15.473-40.502,15.841-62.594c0.368-21.723-3.685-43.815-13.262-63.331
	c-3.685,3.313-7,7.365-9.58,11.783c-18.421,33.507,2.21,45.656-3.314,56.7c-2.577,5.155-16.948,15.468-25.787-4.418
	c-8.842-25.773,12.523-58.541,30.944-76.214c-3.682-4.79-7.733-9.573-12.524-13.258c-8.474-6.626-18.79-11.045-29.473-10.675
	c-10.682,0-20.997,4.784-29.103,11.414c-5.526,4.786-10.316,11.046-14.368,17.305c18.422,26.511,32.789,64.802,30.208,74.744
	c0,0.367-9.575,17.674-22.104,4.418c-2.945-2.944-5.526-9.574-4.788-13.623c2.946-12.887,2.579-35.347-4.789-46.762
	c-1.474-2.579-3.316-4.786-5.159-6.627c-3.685,8.467-6.264,17.672-8.103,26.879C123.824,884.624,123.086,895.302,123.086,905.98z"/>
<path fill="#AD4D6B" d="M110.931,941.328c2.576,11.782,6.997,22.827,12.893,33.504c5.892,10.679,13.629,20.252,23.579,27.982
	c9.945,7.734,22.472,12.521,35.731,12.15c12.896,0,25.421-5.521,35-13.253c9.578-7.73,16.947-17.674,22.473-27.983
	c11.052-20.986,15.473-44.552,15.104-67.748l0,0c-0.369-23.198-5.897-46.395-17.315-66.645c0-0.368-0.366-0.368-0.366-0.736
	c-1.842,1.106-3.319,2.578-4.791,3.681c9.577,19.518,13.63,41.607,13.262,63.332c-0.368,21.724-5.157,43.814-15.841,62.593
	c-5.158,9.205-11.788,17.675-20.262,23.934c-8.105,6.26-17.684,9.943-27.264,9.573c-9.575,0-19.154-4.05-26.893-10.677
	c-7.735-6.258-13.998-14.729-18.788-23.934c-4.789-9.205-8.474-19.516-10.683-29.824c-2.578-10.312-3.684-20.989-3.684-31.665
	c-0.369-10.678,0.737-21.354,2.58-32.034c1.47-9.206,4.419-18.411,8.103-26.876c-2.577-3.314-5.525-5.894-8.103-7.734
	c-12.16,20.252-18.055,43.449-18.42,66.645C107.246,917.762,108.35,929.915,110.931,941.328z"/>
<path fill="#AD4D6B" d="M154.031,817.613c8.105-6.996,18.42-11.415,29.102-11.415c10.687,0,21.369,4.052,29.472,10.68
	c4.791,3.681,8.844,8.468,12.529,13.253c0.734-0.736,1.104-1.103,1.841-1.84c0.734-0.737,1.473-1.473,2.208-1.842
	c-4.05-5.155-8.474-9.571-13.63-13.624c-9.209-6.994-20.63-12.15-32.787-12.15c-12.157-0.367-23.945,4.419-33.526,11.414
	c-5.893,4.417-11.049,9.205-15.84,15.098c1.843,2.576,4.052,5.154,5.896,7.73C143.717,828.658,148.506,822.769,154.031,817.613z"/>
<path fill="#F2D1D6" d="M82.932,821.294c2.21,0.371,4.789,1.106,6.999,1.475c8.839,2.209,16.577,4.785,22.472,8.101
	c3.314,1.472,8.103,4.048,13.264,8.099c2.578,2.21,5.526,4.788,8.103,7.734c1.842,1.839,3.316,4.049,5.157,6.627
	c7.369,11.414,7.737,33.872,4.791,46.76c-0.737,4.051,1.842,10.678,4.789,13.625c12.525,13.622,22.104-4.051,22.104-4.42
	c2.21-9.94-12.156-48.235-30.208-74.743c-1.843-2.945-4.053-5.522-5.896-7.732c-2.58-3.313-5.527-6.26-8.105-8.836
	c-4.422-4.051-15.105-8.839-27.632-15.098c-1.839-1.104-4.053-1.84-5.892-2.946c-30.208-15.093-68.156-37.924-67.417-79.161
	c-8.841,50.812,23.208,66.272,51.206,79.53c-6.262-1.105-142.569-12.887-134.098-72.532
	C-74.746,805.831,22.88,808.041,82.932,821.294z"/>
<path fill="#F2D1D6" d="M229.553,826.449c-0.735,0.737-1.472,1.472-2.209,1.842c-0.737,0.737-1.105,1.104-1.843,1.84
	c-18.42,17.674-39.786,50.444-30.944,76.22c8.839,19.512,23.21,9.571,25.787,4.416c5.525-11.048-15.106-22.827,3.314-56.702
	c2.58-4.419,5.526-8.102,9.58-11.784c1.472-1.472,3.314-2.574,4.791-3.681c11.05-7.73,25.417-12.518,37.942-14.36
	c2.583-0.367,4.791-0.734,7.002-1.103c0.367,0,1.104,0,1.473,0c34.26-2.947,123.046,3.682,130.413-89.841
	c-13.998,84.687-126.729,69.958-138.888,72.902c-0.365,0-0.365,0-0.737,0c0.372,0,0.372-0.367,0.737-0.367
	c23.209-11.046,36.104-36.084,32.054-81.003c-3.318,38.66-18.056,56.334-37.212,71.062c-1.842,1.473-3.312,2.575-5.154,3.683
	C254.236,808.409,241.71,815.771,229.553,826.449z"/>
<path fill="#B2DBD7" d="M-518.299,1931.781c-1.84,0-3.683-1.107-4.787-2.58l-30.21,56.333c2.21-0.738,4.422-1.104,6.632-1.468
	L-518.299,1931.781z"/>
<path fill="#B2DBD7" d="M-517.56,1931.781l26.523,52.285c2.211,0,4.421,0.364,6.264,0.729l-28-55.595
	C-513.877,1930.674-515.719,1931.781-517.56,1931.781z"/>
<path fill="#62BFB8" d="M-518.299,1931.781C-517.929,1931.781-517.929,1931.781-518.299,1931.781c0.37,0,0.37,0,0.739,0
	c1.841,0,3.683-1.107,4.788-2.212c0.738-1.105,1.473-2.576,1.473-4.051c0-3.314-2.947-6.259-6.261-6.259
	c-3.316,0-6.265,2.944-6.265,6.259c0,1.475,0.369,2.579,1.107,3.683C-521.613,1930.674-520.14,1931.781-518.299,1931.781z"/>
<polygon fill="#AF5795" points="-468.564,2135.023 -469.669,2115.507 -508.35,2114.404 -507.981,2146.071 -539.296,2146.438 
	-540.034,2113.302 -569.505,2112.563 -567.294,2132.077 -580.188,2133.187 -580.188,2320.595 -563.611,2322.808 -565.084,2334.957 
	-531.928,2332.743 -532.298,2307.708 -505.035,2307.34 -504.667,2330.538 -470.775,2327.957 -472.617,2309.182 -454.934,2307.708 
	-454.934,2134.289 "/>
<path fill="#AF5795" d="M-468.564,2357.048l-100.572,7.732l-1.841,14.726l-9.21-1.103v38.659c0,20.987,16.946,37.925,37.944,37.925
	h49.735c20.998,0,37.945-16.938,37.945-37.925v-43.078l-12.158,1.103L-468.564,2357.048z"/>
<path fill="#AF5795" d="M-572.084,2084.948l100.942,2.945l-1.475-28.719l17.684-1.104v-36.821c0-18.041-12.894-33.503-29.839-37.184
	c-2.211-0.374-4.053-0.738-6.264-0.738c-0.367,0-1.104,0-1.473,0h-49.735c-1.473,0-2.577,0-4.053,0.364
	c-2.209,0.374-4.419,0.738-6.63,1.477c-15.841,4.418-27.261,19.146-27.261,36.449v43.08l6.262-0.737L-572.084,2084.948z"/>
<polygon fill="#D0A3C2" points="-539.296,2146.438 -507.981,2146.071 -508.35,2114.404 -540.034,2113.302 "/>
<polygon fill="#D0A3C2" points="-505.035,2307.34 -532.298,2307.708 -531.928,2332.743 -504.667,2330.538 "/>
<polygon fill="#E4CDDE" points="-572.084,2084.948 -569.505,2112.563 -540.034,2113.302 -508.35,2114.404 -469.669,2115.507 
	-471.142,2088.263 "/>
<polygon fill="#E4CDDE" points="-468.564,2357.048 -470.775,2327.957 -504.667,2330.538 -531.928,2332.743 -565.084,2334.957 
	-569.137,2364.78 "/>
<polygon fill="#76536D" points="-471.142,2088.263 -469.669,2115.507 -468.564,2135.023 -454.934,2134.289 -433.566,2132.812 
	-437.619,2057.702 -454.934,2058.808 -472.617,2059.544 "/>
<polygon fill="#76536D" points="-569.505,2112.563 -572.084,2084.948 -573.927,2064.331 -580.188,2065.069 -610.767,2068.013 
	-604.134,2135.759 -580.188,2133.187 -567.294,2132.077 "/>
<polygon fill="#76536D" points="-470.775,2327.957 -468.564,2357.048 -467.092,2374.72 -454.934,2373.614 -437.25,2372.142 
	-442.777,2306.605 -454.934,2307.708 -472.617,2309.182 "/>
<polygon fill="#76536D" points="-569.137,2364.78 -565.084,2334.957 -563.611,2322.808 -580.188,2320.595 -593.452,2318.754 
	-600.819,2375.457 -580.188,2378.033 -570.978,2379.506 "/>
<path fill="#8F4C7C" d="M383.546,1126.162l-12.156,590.222l366.558-11.047l8.838-579.175c0-100.149-63.732-185.939-163.937-185.939
	C482.275,940.223,383.546,1026.013,383.546,1126.162z M719.156,1557.688l1.104,127.028l-41.257-2.208l-47.525-2.576l-33.894-1.841
	l-26.156-1.473l-79.205-4.053l-54.156-2.944l-22.84-1.103v-144.703l303.562-10.678L719.156,1557.688z M661.318,1490.68h-11.42
	H544.537H422.964v-32.404v-22.826v-20.253v-16.198v-57.438l288.088,19.145l2.579,129.604h-52.312V1490.68z M711.422,1320.571
	l-25.787-0.737l-15.841-0.369l-20.264-0.733l-11.421-0.369l-16.579-0.37l-16.577-0.367l-26.155-0.735l-34.261-1.106l-28.367-0.736
	l-26.894-0.733l-14.002-0.371l-11.418-0.368l-24.685-0.735l-23.575-0.737v-98.309v-29.825l295.825-13.992v47.499V1320.571z
	 M567.009,975.201c79.571,0,144.043,76.586,144.043,156.484c0,0.369-40.893,2.578-91.73,5.152
	c-36.841,1.842-79.207,4.053-114.94,5.892c-45.683,2.21-80.681,4.051-80.681,4.051
	C423.333,1045.896,487.435,975.201,567.009,975.201z"/>
<polygon fill="#BF7DAB" points="415.228,1183.969 415.228,1213.794 438.806,1213.794 438.806,1203.114 463.488,1203.114 
	463.488,1217.108 474.909,1217.108 488.905,1217.108 488.905,1203.114 515.798,1203.114 515.798,1217.108 544.165,1217.108 
	544.165,1212.319 578.427,1212.319 578.427,1217.108 604.585,1217.108 604.585,1227.048 621.165,1227.048 621.165,1212.319 
	638.109,1212.319 638.109,1217.108 649.53,1217.108 649.53,1189.124 669.425,1189.124 669.425,1213.794 685.261,1213.794 
	685.261,1217.108 711.052,1217.108 711.052,1169.976 "/>
<polygon fill="#88CEB9" points="638.109,1217.108 638.109,1318.362 638.109,1318.362 649.53,1318.731 649.53,1217.108 "/>
<polygon fill="#83ADA1" points="669.425,1213.794 669.425,1189.124 649.53,1189.124 649.53,1217.108 649.53,1318.731 
	669.425,1319.465 669.425,1319.465 "/>
<polygon fill="#6B9385" points="415.228,1213.794 415.228,1311.733 438.806,1312.472 438.806,1213.794 "/>
<polygon fill="#88CEB9" points="463.488,1203.114 438.806,1203.114 438.806,1213.794 438.806,1312.472 463.488,1313.209 
	463.488,1217.108 "/>
<polygon fill="#83ADA1" points="474.909,1217.108 463.488,1217.108 463.488,1313.209 474.909,1313.574 474.909,1313.574 "/>
<polygon fill="#88CEB9" points="474.909,1217.108 474.909,1313.574 474.909,1313.574 488.905,1313.942 488.905,1217.108 "/>
<polygon fill="#498271" points="515.798,1203.114 488.905,1203.114 488.905,1217.108 488.905,1313.942 515.798,1315.047 
	515.798,1217.108 "/>
<polygon fill="#83ADA1" points="515.798,1217.108 515.798,1315.047 544.165,1315.783 544.165,1217.108 "/>
<polygon fill="#B7E0D2" points="578.427,1212.319 544.165,1212.319 544.165,1217.108 544.165,1315.783 578.427,1316.89 
	578.427,1217.108 "/>
<polygon fill="#88CEB9" points="604.585,1217.108 578.427,1217.108 578.427,1316.89 604.585,1317.625 604.585,1227.048 "/>
<polygon fill="#83ADA1" points="621.165,1227.048 604.585,1227.048 604.585,1317.625 621.165,1317.992 621.165,1317.992 "/>
<polygon fill="#B7E0D2" points="638.109,1217.108 638.109,1212.319 621.165,1212.319 621.165,1227.048 621.165,1317.992 
	621.165,1317.992 638.109,1318.362 638.109,1318.362 "/>
<polygon fill="#B7E0D2" points="685.261,1213.794 669.425,1213.794 669.425,1319.465 669.425,1319.465 685.261,1319.834 
	685.261,1217.108 "/>
<polygon fill="#498271" points="685.261,1319.834 711.422,1320.571 711.052,1217.108 685.261,1217.108 "/>
<polygon fill="#BF7DAB" points="563.323,1435.079 540.114,1435.079 540.114,1458.275 544.165,1458.275 544.165,1490.68 
	649.898,1490.68 563.323,1414.829 "/>
<polygon fill="#BF7DAB" points="422.594,1341.56 422.594,1398.998 525.009,1398.998 525.009,1414.829 563.323,1414.829 
	547.483,1400.837 561.85,1384.638 670.898,1480.001 661.318,1490.68 713.631,1490.68 711.052,1361.074 "/>
<polygon fill="#B7E0D2" points="540.114,1458.275 422.594,1458.275 422.594,1490.68 544.165,1490.68 544.165,1458.275 "/>
<rect x="422.594" y="1435.079" fill="#88CEB9" width="117.152" height="22.831"/>
<polygon fill="#8BA79D" points="563.323,1435.079 563.323,1414.829 563.323,1414.829 525.009,1414.829 422.594,1414.829 
	422.594,1435.079 540.114,1435.079 "/>
<rect x="422.594" y="1398.998" fill="#B7E0D2" width="102.048" height="15.831"/>
<polygon fill="#B7E0D2" points="561.85,1384.638 547.483,1400.837 563.323,1414.829 563.323,1414.829 649.898,1490.68 
	661.318,1490.68 670.898,1480.001 "/>
<path fill="#BF7DAB" d="M415.228,1668.884l22.84,1.105l16.578-87.262l11.42,2.946c0.37-2.212,0.738-4.419,1.108-6.627
	c0.733-5.521,1.47-12.153-0.738-17.677c-0.735-2.208-1.845-4.785-4.055-6.255c-4.786-4.053-9.943-3.683-16.209,1.838
	c0.739,1.104,1.845,2.209,2.582,3.313c0-1.841,5.154-2.943,5.154-1.471c0,0.735,0,1.104,0,1.84c0,0.734-0.736,1.105-1.471,1.472
	c-2.948,3.682-9.948,5.524-11.053,0.37c-1.842-10.312,8.104-13.994,16.945-13.624c13.26,0.368,15.475,11.782,14.367,24.672
	c4.419-5.159,15.842-13.626,22.474-7.736c8.472,7.365,5.158,21.356,4.049,31.298c-0.367,2.212-0.367,23.934,7.369,15.097
	c2.213-2.21,3.317-5.521,1.844-8.471c-1.844-4.414-1.475-0.365-2.21,2.579c-0.368,1.104-5.16,2.211-5.16,0.736
	c1.109-4.788,2.214-7.729,7.003-8.469c3.682-0.736,5.892,2.947,5.524,6.262c-0.364,6.627-13.632,16.935-18.419,8.833
	c-7.37-11.781,3.682-28.351-2.211-41.236c-6.999-15.095-19.529,4.417-23.212,14.36l6.265,1.84l15.474,84.32l79.206,4.049v-111.198
	h26.154v-19.881h33.893v15.097h47.526v-3.317h40.152l-0.365-44.184l-303.563,10.68v144.7H415.228z"/>
<path fill="#586863" d="M493.694,1572.418c5.898,12.886-5.155,29.455,2.212,41.236c5.156,8.102,18.051-2.206,18.423-8.833
	c0-3.314-2.214-6.998-5.527-6.262c-4.787,1.105-6.265,4.052-7.001,8.469c-0.368,1.102,4.788,0.368,5.157-0.736
	c0.739-2.944,0.368-7.364,2.211-2.579c1.104,2.949,0,6.261-1.843,8.471c-7.733,8.837-7.733-12.885-7.368-15.097
	c1.104-9.571,4.057-23.933-4.052-31.298c-6.63-5.89-18.053,2.944-22.476,7.736c1.109-12.89-1.469-24.304-14.362-24.672
	c-8.475-0.37-18.42,3.312-16.95,13.624c0.739,5.154,7.739,3.312,11.054-0.37c0.736-0.366,1.474-0.737,1.474-1.472
	c0-0.736,0-1.104,0-1.84c0-1.473-5.156-0.37-5.156,1.471c-0.735-1.104-1.844-2.209-2.578-3.313
	c6.261-5.521,11.419-6.258,16.206-1.838c1.844,1.47,2.948,4.047,4.057,6.255c2.207,5.523,1.47,12.155,0.733,17.677
	c-0.368,2.208-0.733,4.415-1.104,6.627l4.786,1.104C474.17,1576.835,486.695,1556.953,493.694,1572.418z"/>
<polygon fill="#E5F3ED" points="470.485,1586.778 465.7,1585.304 454.277,1582.359 438.067,1669.989 492.224,1672.565 
	476.749,1588.251 "/>
<polygon fill="#59786D" points="631.479,1545.908 597.585,1545.908 597.585,1565.424 597.585,1678.091 631.479,1679.932 
	631.479,1561.005 "/>
<polygon fill="#88CEB9" points="678.634,1561.005 678.634,1682.508 720.261,1684.351 719.156,1557.688 678.634,1557.688 "/>
<polygon fill="#B7E0D2" points="631.479,1561.005 631.479,1679.932 678.634,1682.508 678.634,1561.005 "/>
<polygon fill="#88CEB9" points="571.429,1565.424 571.429,1676.987 597.585,1678.091 597.585,1565.424 "/>
<path fill="#BF7DAB" d="M504.015,1142.729c-13.634-13.99-22.104-32.767-22.104-53.755c0-42.343,34.626-76.951,76.991-76.951
	c42.367,0,76.997,34.24,76.997,76.951c0,18.042-6.264,34.979-16.947,47.863c50.843-2.574,91.733-4.783,91.733-5.152
	c0-79.532-64.47-156.484-144.043-156.484c-79.576,0-143.309,70.694-143.309,171.213
	C423.333,1146.414,458.698,1144.939,504.015,1142.729z"/>
<path fill="#E5F3ED" d="M540.114,1114.748l-41.262,2.21L540.114,1114.748z"/>
<path fill="#E5F3ED" d="M548.588,1114.38h1.474H548.588z"/>
<path fill="#E5F3ED" d="M558.901,1011.652c-42.365,0-76.991,34.243-76.991,76.954c0,20.985,8.471,40.133,22.104,53.757
	c35.731-1.843,78.095-4.05,114.937-5.89c10.684-13.256,16.947-29.824,16.947-47.867
	C635.898,1046.264,601.638,1011.652,558.901,1011.652z M618.584,1092.656c0,6.26-1.104,12.519-2.58,18.41
	c-7.734,25.407-32.784,23.197-60.786,23.197c-25.787,0-46.785,5.153-56.365-17.306c-2.946-7.366-4.785-15.465-4.785-24.302
	c0-34.611,27.996-62.225,62.256-62.225c6.264,0,11.787,0.735,17.686,2.576c5.894-5.89,20.261-2.21,31.681,8.47
	c11.791,11.046,16.579,25.039,10.685,31.296c0,0.368-0.37,0.368-0.738,0.368C617.48,1079.401,618.584,1086.029,618.584,1092.656z"/>
<path fill="#CEE9E0" d="M584.323,1064.305c-11.79-11.045-16.577-25.036-10.685-31.297c0,0,0.37,0,0.37-0.367
	c-5.527-1.474-11.422-2.58-17.686-2.58c-34.629,0-62.256,27.984-62.256,62.228c0,8.469,1.839,16.572,4.785,24.299l41.262-2.207
	c0.738-4.417-1.104-10.678-1.84-13.254c-2.215-5.525-5.16-11.047-11.054-12.888c-4.054-1.104-15.84-3.682-17.314,2.209
	c-0.737,3.315,0.736,7.731,3.319,9.94c4.049,3.314,6.257-2.575,0.364-2.944c-5.157-0.369,0.739-4.051,2.946-3.681
	c4.789,0.367,11.424,2.209,6.631,8.099c-3.313,4.051-9.941,5.155-14.734,3.313c-5.156-1.84-8.475-9.939-5.528-14.728
	c2.58-4.418,8.843-6.26,13.632-6.627c12.895-1.475,23.578,1.84,28.732,14.358c0.74,1.841,1.477,3.683,1.845,5.523
	c3.317-7.73,2.948-15.464-4.788-22.826c-4.423-4.053-10.315-6.631-13.263-12.154c-4.054-7.729,5.893-19.514,11.42-23.933
	c7.736-5.89,15.474-6.626,19.159,3.685c2.577,7.361-7.371,12.15-12.528,9.571c-2.209-1.104-0.733-2.944,1.84-3.681
	c-2.208-5.524-4.416-6.628-6.628-2.577c-1.473,1.473-2.579,2.945-3.687,4.787c-2.206,5.154-4.049,9.942,1.107,13.623
	c2.579,1.841,5.158,3.682,7.367,5.89c2.578-2.945,7.368-5.156,11.788-6.258c6.632-1.474,21.74-4.051,25.053,4.416
	c3.682,8.839-0.734,18.781-11.054,18.411c-1.104,0-2.576-0.368-2.208-1.473c0.366-3.313,1.474-5.154,3.683-7.732
	c0.739-0.734,1.844-1.105,3.317-1.473c-0.736-3.312-1.841-6.996-2.578-7.733c-3.318-2.944-11.054-2.207-14.737-1.104
	c-13.997,3.682-3.317,11.415,2.946,15.833c7.369,5.155,5.158,13.991,0,20.25c-1.474,1.473-2.578,2.946-4.053,4.05l57.839-2.944
	c1.842-5.892,2.577-11.783,2.577-18.408c0-6.632-1.103-13.255-3.312-19.519C609.374,1078.667,595.741,1074.982,584.323,1064.305z"/>
<path fill="#CEE9E0" d="M559.271,1101.493c0.734-2.946,0.734-5.893-1.84-7.73c-0.371,0-0.371-0.37-0.737-0.37
	c0.366,7.364-3.684,14.729-8.105,20.987h1.104h0.37C554.851,1111.434,558.536,1107.017,559.271,1101.493z"/>
<path fill="#FFFFFF" d="M605.689,1041.478c-11.42-10.68-25.787-14.729-31.681-8.47c19.524,5.892,35.365,20.986,41.627,40.502
	c0.368,0,0.368-0.368,0.738-0.368C622.269,1066.517,617.48,1052.523,605.689,1041.478z"/>
<path fill="#E5F3ED" d="M574.009,1033.008C573.639,1033.008,573.639,1033.008,574.009,1033.008
	c-6.263,6.628-1.476,20.622,10.314,31.667c11.418,10.676,25.051,14.357,31.312,8.835
	C609.374,1053.994,593.533,1038.534,574.009,1033.008z"/>
<path fill="#498271" d="M548.588,1114.38L548.588,1114.38c4.786-6.258,8.472-13.623,8.105-20.987c0.366,0,0.366,0.37,0.737,0.37
	c2.574,2.209,2.574,4.784,1.84,7.73c-1.106,5.156-4.789,9.94-9.209,12.52l8.103-0.369c1.478-1.104,2.951-2.577,4.055-4.052
	c5.154-6.257,7.367-15.097,0-20.251c-6.263-4.415-17.314-12.148-2.948-15.831c4.053-1.106,11.422-1.84,14.738,1.106
	c0.734,0.734,2.21,4.416,2.576,7.729c-1.471,0.371-2.946,0.738-3.315,1.475c-2.211,2.577-3.314,4.418-3.684,7.732
	c0,1.474,1.106,1.474,2.21,1.474c10.313,0.366,14.736-9.575,11.053-18.41c-3.685-8.471-18.42-5.895-25.052-4.419
	c-4.423,0.733-9.209,2.944-11.788,6.261c-2.21-2.213-4.789-4.055-7.37-5.894c-5.153-3.682-3.684-8.469-1.101-13.623
	c1.101-1.841,2.208-3.312,3.682-4.788c2.21-3.68,4.424-2.945,6.632,2.579c-2.208,1.103-4.053,2.944-1.843,3.682
	c5.526,2.578,15.472-2.211,12.527-9.574c-3.686-9.94-11.423-9.571-19.158-3.682c-5.526,4.42-15.84,16.202-11.418,23.934
	c2.945,5.153,8.839,8.101,13.26,12.15c8.105,7.364,8.105,15.465,4.789,22.828c-0.365-1.842-1.104-3.683-1.844-5.523
	c-4.787-12.518-15.839-15.83-28.732-14.359c-4.79,0.369-11.052,2.21-13.632,6.628c-2.581,4.785,0.736,12.887,5.525,14.728
	c4.789,1.839,11.422,0.737,14.737-3.314c4.787-5.521-2.21-7.733-6.631-8.099c-2.582,0-8.106,3.683-2.947,3.683
	c5.894,0.366,3.685,6.258-0.37,2.944c-2.576-2.21-4.05-6.627-3.313-9.941c1.472-5.89,13.262-3.314,17.313-2.209
	c5.895,1.841,8.84,7.365,11.054,12.887c1.105,2.577,2.577,8.837,1.842,13.255l0,0L548.588,1114.38z"/>
<path fill="#ADBFB7" d="M550.062,1114.38L550.062,1114.38h-1.474l-8.842,0.368l-41.261,2.21
	c9.58,22.459,30.208,17.306,56.365,17.306c27.998,0,53.05,2.21,60.785-23.197l-57.839,2.946L550.062,1114.38z"/>
<path fill="#E08199" d="M89.192,2814.716l8.106,123.347l25.051-2.946c0.368-3.682,1.105-7.732,2.209-11.415
	c-9.945-2.208-17.313-11.046-17.313-21.722c0-12.149,9.945-22.091,22.104-22.091c12.156,0,22.104,9.941,22.104,22.091
	c0,10.676-7.371,19.146-17.317,21.722c-0.737,3.315-1.473,6.997-1.84,10.312l34.259-4.051l-5.526-108.986L89.192,2814.716z
	 M123.824,2871.052c-10.317,0-18.42-8.104-18.42-18.412s8.104-18.409,18.42-18.409c10.314,0,18.419,8.101,18.419,18.409
	S133.77,2871.052,123.824,2871.052z"/>
<path fill="#984455" d="M123.824,2834.23c10.173,0,18.419,8.244,18.419,18.409c0,10.17-8.246,18.412-18.419,18.412
	c-10.174,0-18.42-8.242-18.42-18.412C105.403,2842.475,113.649,2834.23,123.824,2834.23z"/>
<path fill="#DCC1C2" d="M151.085,2901.979c0-12.149-9.949-22.091-22.105-22.091c-12.159,0-22.104,9.941-22.104,22.091
	c0,10.676,7.369,19.514,17.316,21.722c-1.105,3.683-1.474,7.733-2.212,11.415c-4.789,33.876,3.687,69.959-9.209,103.096
	c-9.946,25.403-28.735,48.972-53.05,60.754c-19.155,9.204-38.313,5.888-53.05-4.785l0.739,9.569
	c12.524,5.157,26.89,6.628,41.628,4.05c33.155-5.522,57.101-36.084,71.102-64.064c17.313-35.35,6.997-73.641,12.158-110.093
	c0.367-3.311,1.103-6.993,1.84-10.308C143.717,2921.126,151.085,2912.655,151.085,2901.979z"/>
<path fill="#E08199" d="M-11.012,2804.407l-642.488-11.045l11.052,392.496l653.91-9.571l-4.423-72.168l-0.736-9.572
	L-11.012,2804.407z M-620.344,2837.546l580.964-18.411l10.319,325.486l-580.969,18.407L-620.344,2837.546z M-41.22,3168.552
	c-8.105,0-14.736-3.312-14.736-7.728c0-4.423,6.631-7.731,14.736-7.731c8.106,0,14.735,3.309,14.735,7.731
	C-26.485,3164.872-33.114,3168.552-41.22,3168.552z"/>
<polygon fill="#753743" points="-620.199,2837.62 -39.156,2819.228 -28.835,3144.922 -609.878,3163.312 "/>
<path fill="#AD4D6B" d="M-41.22,3153.093c8.139,0,14.735,3.458,14.735,7.731c0,4.269-6.596,7.728-14.735,7.728
	c-8.139,0-14.736-3.459-14.736-7.728C-55.957,3156.551-49.359,3153.093-41.22,3153.093z"/>
<path fill="#D7EBE9" d="M-341.467,1760.197l-6.629-5.152l-5.527,7.729l-9.947-30.926c-0.735,0-1.474,0.368-2.578,0.368
	c-0.737,0-1.476,0-2.58-0.368l-9.948,30.926l-5.526-7.729l-6.63,5.152l12.156-32.032c-5.526-4.05-9.209-10.312-9.209-17.676
	c0-0.364,0-0.733,0-1.469l-9.578-5.893v64.066l63.364-1.842v-23.932l-17.682-10.679L-341.467,1760.197z"/>
<path fill="#D7EBE9" d="M-415.881,1741.421l-18.054-10.679l11.052,29.827l-6.631-5.159l-5.525,7.735l-9.948-30.929
	c-0.735,0-1.473,0.364-2.577,0.364c-0.739,0-1.474,0-2.579-0.364l-9.947,30.929l-5.525-7.735l-6.633,5.159l12.158-32.035
	c-5.525-4.05-9.21-10.307-9.21-17.674c0-0.371,0-0.735,0-1.474l-9.579-5.89v66.643l63.364-1.842v-26.877H-415.881z"/>
<path fill="#D7EBE9" d="M-447.564,1688.399c12.157,0,22.104,9.94,22.104,22.09c0,1.108,0,2.213-0.368,3.316l9.947,5.524v-50.075
	h18.05v15.833l16.947,9.205c4.05-3.315,8.842-5.524,14.736-5.524c12.156,0,22.104,9.943,22.104,22.092c0,1.103,0,2.207-0.369,3.313
	l9.945,5.521v-52.28h-32.787v-26.145l-18.051-10.676l11.052,29.823l-6.63-5.157l-5.526,7.735l-9.948-30.931
	c-0.738,0-1.473,0.371-2.58,0.371c-0.735,0-1.474,0-2.578-0.371l-9.947,30.931l-5.526-7.735l-6.63,5.157l12.156-32.034
	c-5.526-4.05-9.209-10.31-9.209-17.673c0-0.367,0-0.736,0-1.473l-9.579-5.89v64.435h-48.997v18.041l16.946,9.205
	C-458.249,1690.61-453.09,1688.399-447.564,1688.399z"/>
<path fill="#D7EBE9" d="M-399.305,1587.516c12.157,0,22.104,9.941,22.104,22.092c0,1.103,0,2.207-0.368,3.31l9.945,5.525v-52.282
	h-63.362v18.039l16.946,9.206C-409.989,1589.723-404.83,1587.516-399.305,1587.516z"/>
<path fill="#85163E" d="M-386.41,1626.913l1.104,2.574l18.051,10.678v-22.092l-9.946-5.521
	C-378.676,1618.442-381.991,1623.599-386.41,1626.913z"/>
<path fill="#85163E" d="M-414.04,1593.036l-16.946-9.204v18.408l9.578,5.89C-420.672,1602.24-418.093,1596.72-414.04,1593.036z"/>
<path fill="#1DB3A9" d="M-377.569,1612.552c0-1.104,0.368-2.209,0.368-3.314c0-12.15-9.946-22.092-22.104-22.092
	c-5.525,0-10.685,2.211-14.735,5.522c-4.053,3.683-7.001,9.205-7.368,15.097c0,0.365,0,0.738,0,1.473
	c0,7.363,3.685,13.623,9.21,17.676l-12.158,32.03l6.633-5.154l5.525,7.731l9.946-30.927c0.737,0,1.473,0.366,2.58,0.366
	c0.735,0,1.841,0,2.577-0.366l9.948,30.927l5.526-7.731l6.63,5.154l-11.053-29.822l-1.104-2.579
	C-381.991,1623.599-378.676,1618.442-377.569,1612.552z"/>
<path fill="#85163E" d="M-353.624,1728.165l1.105,2.577l17.684,10.679v-22.091l-9.947-5.524
	C-345.886,1719.694-348.834,1724.484-353.624,1728.165z"/>
<path fill="#85163E" d="M-388.252,1709.021c0.367-5.893,2.946-11.417,7.368-15.1l-16.947-9.205v18.412L-388.252,1709.021z"/>
<path fill="#1DB3A9" d="M-388.252,1709.021c0,0.366,0,0.735,0,1.469c0,7.363,3.684,13.626,9.21,17.676l-12.158,32.032l6.632-5.152
	l5.526,7.729l9.945-30.926c0.739,0,1.473,0.368,2.581,0.368c0.734,0,1.842,0,2.578-0.368l9.946,30.926l5.526-7.729l6.631,5.152
	l-11.052-29.823l-1.105-2.577c4.789-3.312,7.737-8.467,8.842-14.356c0-1.107,0.369-2.211,0.369-3.315
	c0-12.15-9.947-22.093-22.104-22.093c-5.527,0-10.684,2.207-14.736,5.522C-385.306,1697.604-387.885,1703.128-388.252,1709.021z"/>
<path fill="#85163E" d="M-462.302,1693.921l-16.946-9.205v18.412l9.579,5.893C-469.3,1703.128-466.355,1697.604-462.302,1693.921z"
	/>
<path fill="#85163E" d="M-426.198,1713.806c-0.735,5.889-4.053,11.045-8.841,14.359l1.104,2.577l18.054,10.679v-22.091
	L-426.198,1713.806z"/>
<path fill="#1DB3A9" d="M-426.198,1713.806c0-1.104,0.37-2.208,0.37-3.316c0-12.149-9.949-22.09-22.105-22.09
	c-5.526,0-10.683,2.211-14.736,5.521c-4.053,3.683-7,9.207-7.368,15.1c0,0.366,0,0.735,0,1.469c0,7.363,3.683,13.626,9.209,17.676
	l-12.156,32.032l6.629-5.152l5.527,7.729l9.948-30.926c0.737,0,1.475,0.368,2.577,0.368c0.739,0,1.843,0,2.581-0.368l9.945,30.926
	l5.526-7.729l6.632,5.152l-11.051-29.823l-1.107-2.577C-430.251,1724.484-426.934,1719.694-426.198,1713.806z"/>
<path fill="#A78799" d="M-140.688,1628.753c0,1.841-2.578,3.312-7,4.787v126.29l159.15-4.785v-162.009
	c-15.475,5.154-49.368,8.837-88.786,8.837c-33.155,0-62.627-2.574-80.312-6.257v26.508
	C-146.95,1623.599-140.688,1626.175-140.688,1628.753z M-72.536,1618.073c24.316,0,44.208,25.407,44.208,57.072
	c0,31.662-19.892,57.071-44.208,57.071c-24.314,0-44.206-25.409-44.206-57.071C-116.742,1643.48-96.85,1618.073-72.536,1618.073z"/>
<path fill="#875E77" d="M11.828,1593.036c5.896-1.839,9.21-4.051,9.21-6.258c0-7.364-35.364-13.624-81.783-14.729
	c-2.949,5.89-9.578,9.942-17.684,9.942c-8.103,0-14.736-4.053-17.682-9.942c-44.946,1.477-78.837,7.365-78.837,14.729
	c0,3.315,6.631,6.258,17.681,8.469c17.685,4.052,47.158,6.26,80.314,6.26C-37.906,1601.507-4.013,1598.19,11.828,1593.036z"/>
<path fill="#CBBAC4" d="M-78.429,1581.991c8.106,0,14.735-4.053,17.684-9.942c1.104-1.839,1.474-4.048,1.474-6.26
	c0-8.836-8.473-16.197-19.158-16.197c-10.683,0-19.155,7.361-19.155,16.197c0,2.212,0.369,4.421,1.473,6.26
	C-93.532,1577.573-86.532,1581.991-78.429,1581.991z"/>
<path fill="#8F4C7C" d="M-147.688,1633.54c-11.79,4.049-37.945,6.625-68.522,6.625c-25.42,0-48.262-1.839-61.891-4.785v128.133
	l130.045-4.05V1633.54H-147.688z M-186.37,1727.431c-1.103,11.045-16.578,18.774-34.629,16.937
	c-18.051-1.842-31.682-12.519-30.577-23.564c0.737-7.735,8.473-13.624,18.788-15.837c-1.104-5.521-1.473-13.619-0.369-22.089
	c1.842-16.57,6.632-29.457,11.42-28.72c4.79,0.37,7,14.361,5.157,30.559c-0.735,7.365-2.208,14.362-4.051,19.519
	c1.104,0,2.578,0,3.684,0.366c2.21,0.365,4.42,0.736,6.631,1.104c-0.737-5.522-0.737-12.517,0-20.253
	c1.842-16.568,6.631-29.455,11.421-28.719c4.789,0.369,7,14.364,5.157,30.562c-1.104,9.204-2.947,17.305-5.526,22.829
	C-190.792,1713.806-185.633,1720.433-186.37,1727.431z"/>
<path fill="#D0A3C2" d="M-147.688,1633.54c4.422-1.476,7-2.946,7-4.787c0-2.948-6.262-5.154-16.948-7.363
	c-9.945-1.84-23.577-3.316-39.417-3.681c-1.842,6.254-7.369,11.044-14,11.044c-6.631,0-12.526-4.79-13.999-11.416
	c-37.208,0.736-66.312,5.523-66.312,11.416c0,2.575,5.157,4.787,13.632,6.627c13.629,2.946,36.102,4.785,61.89,4.785
	C-185.633,1640.531-159.478,1637.589-147.688,1633.54z"/>
<path fill="#8F4C7C" d="M-211.053,1628.753c6.632,0,12.158-4.79,14-11.044c0.368-1.477,0.735-2.949,0.735-4.792
	c0-8.833-6.63-15.83-14.736-15.83c-8.104,0-14.736,6.997-14.736,15.83c0,1.475,0.369,2.949,0.737,4.42
	C-223.209,1623.963-217.684,1628.753-211.053,1628.753z"/>
<path fill="#E4CDDE" d="M-199.264,1709.387c2.579-5.152,4.422-13.253,5.526-22.829c1.842-16.568-0.737-30.189-5.157-30.561
	c-4.79-0.366-9.579,12.521-11.421,28.719c-0.737,7.733-0.737,14.729,0,20.25c-2.211-0.365-4.421-0.731-6.631-1.104
	c-1.105,0-2.579-0.365-3.684-0.365c1.843-5.157,3.315-11.783,4.051-19.513c1.843-16.57-0.735-30.195-5.157-30.564
	c-4.789-0.367-9.579,12.521-11.42,28.723c-0.735,8.835-0.735,16.569,0.369,22.092c-10.315,2.208-18.051,8.468-18.788,15.83
	c-1.105,11.046,12.526,21.723,30.577,23.564c18.052,1.841,33.526-5.524,34.629-16.937
	C-185.633,1720.433-190.792,1713.806-199.264,1709.387z"/>
<polygon fill="#62BFB8" points="117.928,1751.729 11.828,1755.045 -147.688,1759.83 -277.731,1763.513 -334.834,1765.353 
	-398.2,1767.194 -415.881,1767.932 -479.248,1769.772 -611.134,1773.822 -609.292,1832.732 119.771,1810.642 "/>
<ellipse fill="#FFFFFF" cx="-72.536" cy="1675.145" rx="44.208" ry="57.072"/>
<path fill="#84C9C4" d="M259.027,2829.444l-7.739,430.791l370.98,3.316l77.729-449.201L259.027,2829.444z M627.793,3082.763
	c-3.316-0.364-4.787-16.197-2.946-35.346c1.843-19.146,6.266-34.241,9.576-33.873c3.317,0.367,4.79,16.2,2.948,35.345
	C635.527,3068.036,631.112,3083.134,627.793,3082.763z"/>
<path fill="#84C9C4" d="M643.634,3263.917l413.346,3.684l27.632-466.139l-374.296,12.516L643.634,3263.917z M716.21,3035.269
	c4.421,1.104,5.157,16.568,1.843,35.344c-3.318,18.41-9.211,32.772-13.633,32.035c-4.422-1.104-5.155-16.568-1.842-35.348
	C705.896,3048.521,711.788,3034.16,716.21,3035.269z"/>
<path fill="#487B76" d="M251.288,2813.978l-7.367,0.373v7.362l-8.105,453.988l836.267,23.933l15.845,0.366l0.366-15.832
	l13.261-490.806l0.371-8.469l-8.474,0.367L251.288,2813.978z M251.288,3260.235l7.739-430.791l440.971-14.729l-77.729,449.201
	L251.288,3260.235z M1056.612,3267.601l-413.345-3.684l66.68-449.566l374.295-12.521L1056.612,3267.601z"/>
<path fill="#487B76" d="M634.423,3013.544c-3.311-0.368-7.733,14.727-9.576,33.873c-1.841,19.148-0.37,34.981,2.946,35.346
	c3.319,0.371,7.734-14.727,9.578-33.874C638.845,3029.744,637.74,3013.911,634.423,3013.544z"/>
<path fill="#487B76" d="M704.42,3102.277c4.422,1.107,10.314-13.255,13.633-32.03c3.314-18.41,2.208-34.245-1.843-35.348
	c-4.422-1.105-10.314,13.256-13.632,32.03C699.633,3085.706,700.369,3101.544,704.42,3102.277z"/>
<polygon fill="#88CEB9" points="809.413,1047.736 888.989,1045.896 888.989,981.829 810.151,980.722 "/>
<path fill="#498271" d="M804.993,970.048h-5.156v5.153l0.738,76.952v4.05h4.418l97.259,2.58v-83.582v-6.627h-6.631L804.993,970.048z
	 M888.989,1045.896l-79.576,1.841l0.738-67.015l78.838,1.107V1045.896z"/>
<polygon fill="#88CEB9" points="1010.192,1154.882 1007.612,1012.023 925.83,1009.812 928.039,1152.305 "/>
<path fill="#498271" d="M1017.93,1162.612l2.576-156.851v-6.628h-6.631l-92.465,2.578h-4.056v4.05l-2.575,153.17v6.628l6.631-0.367
	L1017.93,1162.612z M1007.612,1012.023l2.58,142.491l-82.153-2.21l-2.209-142.493L1007.612,1012.023z"/>
<polygon fill="#88CEB9" points="836.677,1253.928 883.465,1253.928 885.673,1095.601 833.729,1095.235 "/>
<path fill="#498271" d="M893.777,1091.553v-4.052h-4.054l-59.676,0.369h-3.317v3.313l-2.948,169.002v6.628h6.63h66.313
	L893.777,1091.553z M883.465,1253.928h-46.422l-2.945-158.692l51.944,0.365L883.465,1253.928z"/>
<polygon fill="#88CEB9" points="1079.45,1196.856 929.143,1196.856 926.935,1316.522 1079.45,1314.313 "/>
<path fill="#498271" d="M915.883,1183.969v6.628l2.58,130.34v4.052h4.05l169.832,2.578v-136.97v-6.628h-6.631H922.513H915.883z
	 M929.143,1196.856h150.308v117.457l-152.516,2.209L929.143,1196.856z"/>
<rect x="818.995" y="1295.166" fill="#88CEB9" width="53.784" height="95.362"/>
<path fill="#498271" d="M805.729,1403.783h80.312v-121.874h-80.312V1403.783z M818.995,1295.166h53.784v95.362h-53.784V1295.166z"/>
<polygon fill="#88CEB9" points="1049.612,1393.474 1047.03,1349.288 909.986,1345.978 912.937,1390.896 "/>
<path fill="#498271" d="M899.672,1403.783h7.002l149.938-2.946l3.313-57.808l0.371-6.628h-7.003l-146.254,3.684h-2.948l-0.366,2.944
	l-3.683,54.496L899.672,1403.783z M1047.03,1349.288l2.582,44.186l-136.676-2.945l-2.95-44.92L1047.03,1349.288z"/>
<polygon fill="#88CEB9" points="836.677,1448.335 835.572,1485.525 943.515,1485.525 942.407,1448.335 "/>
<path fill="#498271" d="M955.301,1441.707v-6.628h-6.632H830.412h-6.63l0.368,6.628l1.475,48.973v5.153h5.155h123.414
	L955.301,1441.707z M835.572,1485.525l1.104-37.19h105.73l1.107,37.19H835.572z"/>
<path fill="#B2DBD7" d="M-85.06,1470.059l101.311,1.476c0-3.684-0.37-7.365-0.37-11.418c0-135.864,99.1-248.531,229.146-270.254
	H-78.429L-85.06,1470.059z M-68.851,1463.799c-2.21,0-4.053-1.843-4.053-4.051s1.842-4.049,4.053-4.049s4.053,1.841,4.053,4.049
	S-66.641,1463.799-68.851,1463.799z M-69.219,1195.383c2.579,0,4.79,2.21,4.79,4.788s-2.211,4.785-4.79,4.785
	c-2.578,0-4.789-2.207-4.789-4.785S-71.797,1195.383-69.219,1195.383z"/>
<path fill="#D7EBE9" d="M15.88,1460.487c0,3.682,0,7.729,0.37,11.412l0,0l322.347,5.523l-5.523-287.194h-67.05h-20.998
	C115.349,1211.585,15.88,1324.62,15.88,1460.487z M324.97,1464.906c1.474,0,2.577,1.103,2.577,2.574
	c0,1.473-1.104,2.578-2.577,2.578s-2.583-1.105-2.583-2.578C322.021,1466.009,323.496,1464.906,324.97,1464.906z M317.971,1199.434
	c2.209,0,3.683,1.839,3.683,3.681s-1.84,3.683-3.683,3.683c-2.212,0-3.686-1.841-3.686-3.683S316.13,1199.434,317.971,1199.434z"/>
<path fill="#70928F" d="M-69.219,1195.752c2.646,0,4.79,2.143,4.79,4.789c0,2.639-2.144,4.783-4.79,4.783
	c-2.644,0-4.789-2.145-4.789-4.783C-74.008,1197.895-71.863,1195.752-69.219,1195.752z"/>
<path fill="#70928F" d="M317.971,1199.802c2.034,0,3.683,1.648,3.683,3.684c0,2.031-1.648,3.68-3.683,3.68
	c-2.037,0-3.686-1.648-3.686-3.68C314.285,1201.45,315.934,1199.802,317.971,1199.802z"/>
<circle fill="#70928F" cx="-68.851" cy="1459.749" r="4.05"/>
<path fill="#70928F" d="M324.97,1464.906c1.423,0,2.577,1.149,2.577,2.574c0,1.423-1.154,2.578-2.577,2.578
	s-2.583-1.155-2.583-2.578C322.387,1466.056,323.547,1464.906,324.97,1464.906z"/>
</svg>
