<?xml version="1.0" encoding="utf-8"?>
<!-- Generator: Adobe Illustrator 15.0.2, SVG Export Plug-In . SVG Version: 6.00 Build 0)  -->
<!DOCTYPE svg PUBLIC "-//W3C//DTD SVG 1.1//EN" "http://www.w3.org/Graphics/SVG/1.1/DTD/svg11.dtd">
<svg version="1.1" id="Layer_1" xmlns="http://www.w3.org/2000/svg" xmlns:xlink="http://www.w3.org/1999/xlink" x="0px" y="0px"
	 width="100px" height="150px" viewBox="-40 0 100 150" enable-background="new -40 0 100 150" xml:space="preserve">
<path display="none" fill="#010101" d="M4.2,0L4.2,0c-2,2.4-2.9,10.1-3.4,13c-0.9,5.8-0.9,11.7-0.5,17.6c0.3,4.2,0.9,8.3,1.5,12.3
	c0.6,4.2-0.3,8.6-0.6,12.9c-0.3,3.5-0.5,7.1,1.7,10.1c1.1,1.6-0.3,2.4-1.1,3.8c-0.9,1.7-1.1,3.6-0.9,5.5c0.2,3.5,1.5,6.899,1.4,10.3
	c0,4.5-1.4,9.1-1.7,13.6c-0.2,1.601-0.9,4-0.2,5.5C1,106,2.3,106.9,3.3,108.2c1.2,1.399-0.3,4.7-0.5,6.3c-0.3,3.7,0.6,7-0.3,10.6
	c-0.8,2.9-2,5.2-1.1,8.101c0.5,1.5,2.6,4.8,1.8,6.3c-0.5,1.2-1.1,2.2-1.4,3.4c-0.6,1.699,0,3,1.4,4.1c-0.3,0.6,0.5,2.3,0.8,2.4v0.6
	h16V0H4.2z"/>
<path fill="#010101" d="M58.769,89.52c-0.613-3.505,0.204-6.409-1.429-9.914c-0.816-1.902-0.918-1.701,0.306-3.504
	c0.817-1.302,1.429-2.704,1.123-4.206c-0.613-2.403-1.735-4.406-2.041-7.01c-0.204-2.303,1.735-4.105,1.735-6.408
	c0-1.302-1.123-2.403-2.041-3.404v-3.405c3.163-5.607,3.061-12.216,1.733-18.124c-0.815-3.505-1.122-6.509-0.611-10.313
	c0.51-3.705-1.939-7.21-0.612-10.915C57.85,9.413,59.482,1.703,56.422,0H-40v150h96.523c0,0,2.245-6.309,1.734-7.009
	c-0.612-0.702,0.307-7.41,0.511-8.412c0.611-3.905,0.204-7.41-0.511-11.415c-1.326-8.512,0.307-16.722,1.633-25.233
	C60.299,95.227,59.482,92.424,58.769,89.52z"/>
</svg>
