<?xml version="1.0" encoding="utf-8"?>
<!-- Generator: Adobe Illustrator 15.0.2, SVG Export Plug-In . SVG Version: 6.00 Build 0)  -->
<!DOCTYPE svg PUBLIC "-//W3C//DTD SVG 1.1//EN" "http://www.w3.org/Graphics/SVG/1.1/DTD/svg11.dtd">
<svg version="1.1" id="Layer_1" xmlns="http://www.w3.org/2000/svg" xmlns:xlink="http://www.w3.org/1999/xlink" x="0px" y="0px"
	 width="100px" height="150px" viewBox="-40 0 100 150" enable-background="new -40 0 100 150" xml:space="preserve">
<path fill="#010101" d="M-35.844,0L-35.844,0c-2,2.4-2.9,10.1-3.4,13c-0.9,5.8-0.9,11.7-0.5,17.6c0.301,4.2,0.9,8.3,1.5,12.3
	c0.6,4.2-0.3,8.6-0.6,12.9c-0.301,3.5-0.5,7.1,1.699,10.1c1.101,1.6-0.299,2.4-1.1,3.8c-0.9,1.7-1.1,3.6-0.9,5.5
	c0.201,3.5,1.5,6.899,1.4,10.3c0,4.5-1.4,9.1-1.699,13.6c-0.201,1.601-0.9,4-0.201,5.5c0.601,1.4,1.9,2.301,2.9,3.601
	c1.2,1.399-0.3,4.7-0.5,6.3c-0.3,3.7,0.6,7-0.3,10.6c-0.8,2.9-2,5.2-1.101,8.101c0.5,1.5,2.601,4.8,1.801,6.3
	c-0.5,1.2-1.1,2.2-1.4,3.4c-0.6,1.699,0,3,1.4,4.1c-0.301,0.6,0.5,2.3,0.8,2.4v0.6H60V0H-35.844z"/>
</svg>
