<?xml version="1.0" encoding="utf-8"?>
<!-- Generator: Adobe Illustrator 17.0.2, SVG Export Plug-In . SVG Version: 6.00 Build 0)  -->
<!DOCTYPE svg PUBLIC "-//W3C//DTD SVG 1.1//EN" "http://www.w3.org/Graphics/SVG/1.1/DTD/svg11.dtd">
<svg version="1.1" id="Layer_1" xmlns="http://www.w3.org/2000/svg" xmlns:xlink="http://www.w3.org/1999/xlink" x="0px" y="0px"
	 width="612px" height="332px" viewBox="0 0 612 332" enable-background="new 0 0 612 332" xml:space="preserve" preserveAspectRatio="none">
<path fill-rule="evenodd" clip-rule="evenodd" fill="#63154C" d="M6.27,22.87C17.7,18.86,24.2,10.15,30.83,1.11
	c1.11-0.11,2.38-0.29,3.66-0.35C49.47,0.2,64.44,0.2,79.39,1.56c11.76,1.07,23.55,1.8,35.33,2.29c8.65,0.37,17.34,0.06,25.99,0.15
	c8.4,0.08,16.77-0.2,25.16,1.09c6.19,0.95,12.63,1.08,18.88,0.59c11.04-0.87,22.05,0.26,33.07-0.28c5.51-0.27,11.01-0.86,16.52-1.12
	c11.81-0.56,23.63-1.13,35.44-1.42c8.13-0.2,16.27,0.15,24.41,0.14c9.18-0.02,18.34-0.31,27.52-0.25
	c8.13,0.06,16.27,0.35,24.39,0.69c14.46,0.63,28.91,0.59,43.35-0.47c2.88-0.21,5.78-0.27,8.66-0.41c6.81-0.32,13.64-0.42,20.43-1.02
	c14.43-1.27,28.9-0.77,43.34-1.02c13.9-0.24,27.8-0.41,41.69-0.13c12.6,0.25,25.18-0.61,37.81,0.08
	c13.62,0.74,27.32,0.17,41.66,0.17c1.23,2.01,2.49,4.62,4.25,6.84c5.15,6.48,10.83,12.33,19.74,14.28c0.31,2.15,0.83,4.18,0.88,6.21
	c0.24,9.28,0.28,18.56,0.51,27.84c0.1,3.71,0.48,7.4,0.76,11.1c0.12,1.58,0.4,3.16,0.43,4.75c0.12,7.43,0.03,14.87,0.28,22.3
	c0.27,8.26-0.52,16.43-1.1,24.64c-0.57,8.21-0.69,16.45-0.98,24.68c-0.2,5.57-0.45,11.13-0.51,16.7
	c-0.14,13.52-0.92,27.04-0.01,40.57c0.36,5.28,0.37,10.58,0.44,15.87c0.02,1.31-0.18,2.67-0.56,3.93
	c-3.34,11.23-1.39,22.69-1.44,34.05c-0.02,4.76,0.68,9.53,0.82,14.3c0.31,11.13,0.5,22.27,0.74,33.87
	c-5.37,2.46-11.51,3.98-15.27,9.8c-3.31,5.15-6.35,10.31-7.55,16.46c-2.02,0.23-3.56,0.64-5.07,0.55
	c-9.48-0.58-18.92-0.23-28.36,0.67c-1.56,0.15-3.14,0-4.7-0.03c-4.47-0.08-8.93-0.32-13.38-0.21c-10.46,0.24-20.91,0.4-31.39-0.05
	c-7.32-0.31-14.7,0.53-22.03,0.25c-11.26-0.44-22.49-0.24-33.75-0.08c-7.3,0.11-14.64-1.67-21.94-1.57
	c-4.12,0.06-8.31,0.69-12.5,0.52c-7.05-0.27-14.11,0.03-21.14-0.15c-7.83-0.2-15.6,0.64-23.48,0.08
	c-9.11-0.65-18.34,0.64-27.51,0.72c-13.89,0.13-27.79,0.1-41.68-0.15c-16.52-0.3-33.02-0.6-49.54,0.18
	c-5.22,0.25-10.46-0.11-15.69,0.02c-20.48,0.49-40.95-0.87-61.43-0.67c-19.21,0.2-38.41,0.4-57.61,0.56
	c-7.89,0.07-15.77-0.09-23.65,0.1c-5.78,0.14-11.54,0.75-17.33,1.03c-11.28,0.55-22.57,1.01-33.85,1.54
	c-4.15,0.2-5.53-0.57-7.03-4.71c-3.36-9.23-8.89-16.82-16.86-22.39c-3.19-2.24-6.88-3.75-10.57-5.71c-0.29-5.97-0.69-12-0.84-18.02
	c-0.26-10.36-0.46-20.71-0.53-31.07c-0.03-5.82,0.38-11.63,0.43-17.45c0.09-12.75,0-25.49,0.12-38.23
	c0.05-5.3,0.58-10.59,0.63-15.89c0.27-24.92,0.36-49.85,0.71-74.78c0.23-15.93,0.85-31.85,1.21-47.77
	C5.88,49.5,5.8,42.86,5.88,36.24C5.94,32,6.13,27.77,6.27,22.87z"/>
</svg>
