<?xml version="1.0" encoding="utf-8"?>
<!-- Generator: Adobe Illustrator 17.0.0, SVG Export Plug-In . SVG Version: 6.00 Build 0)  -->
<!DOCTYPE svg PUBLIC "-//W3C//DTD SVG 1.1//EN" "http://www.w3.org/Graphics/SVG/1.1/DTD/svg11.dtd">
<svg version="1.1" id="Layer_1" xmlns="http://www.w3.org/2000/svg" xmlns:xlink="http://www.w3.org/1999/xlink" x="0px" y="0px"
	 width="900px" height="1650px" viewBox="144.5 1221.5 900 1650" enable-background="new 144.5 1221.5 900 1650"
	 xml:space="preserve">
<path fill="none" d="M415.1,1416.1c-3.9-3.1-8.7-4.9-13.6-4.9l1.5,13.9L415.1,1416.1z"/>
<path fill="none" d="M331,1327.6l-4,3.6c-9.8,8.8-19.5,17.8-29.2,26.7c-4.9,4.5-9.6,9-14.5,13.5l-6.4,6
	c17.4,4.1,50.6,11.8,78.8,18.3C357,1370.1,347.5,1345.7,331,1327.6z"/>
<path fill="none" d="M369.8,1411.9c-0.5,2.8-1.2,5.7-2,8.5l6.8,1.8c1.4-3.8,3.5-7.2,6.3-10.1c2.4-2.5,5.3-4.5,8.4-5.9
	c-5.1-1.2-11.3-2.6-18.1-4.1C370.8,1405.3,370.4,1408.6,369.8,1411.9z"/>
<path fill="none" d="M401.2,1403.3c3.8,0,7.6,0.8,11.1,2.2c3.3,1.4,6.3,3.5,8.9,6.1l127.3-95.1l-1-5.2L397,1281.5l-0.4,1.8l-7.7-1.4
	c-0.7-0.2-1.4-0.2-2.1-0.4l13.7,121.8C400.8,1403.3,401,1403.3,401.2,1403.3z"/>
<path fill="none" d="M355.6,1398.4c-29.4-6.8-64.1-14.9-81-18.9l-1.4,1.4c0.1,0.1,0.1,0.2,0.2,0.3c0.2,0.3,0.4,0.6,0.6,0.9
	c0.1,0.2,0.2,0.3,0.3,0.5c0.1,0.2,0.4,0.6,0.5,0.8c0.1,0.2,0.2,0.3,0.2,0.5c0.1,0.3,0.2,0.6,0.4,0.8c0.1,0.2,0.1,0.4,0.2,0.6
	c0.1,0.3,0.2,0.6,0.3,0.8c0.1,0.2,0.1,0.4,0.1,0.6c0,0.3,0.1,0.6,0.2,0.9c0,0.2,0,0.4,0.1,0.6c0,0.3,0,0.7,0.1,1c0,0.2,0,0.4,0,0.6
	c0,0.3,0,0.7,0,1.1c0,0.2,0,0.3,0,0.5c0,0.6-0.1,1.1-0.2,1.6c-0.1,0.4-0.2,0.8-0.3,1.2c-0.1,0.3-0.2,0.7-0.3,0.9v0.1l2.6,0.7
	l17.6,4.9l17.6,4.9c5.8,1.6,11.7,3.3,17.5,4.8l21.6,5.8c0.7-2.4,1.3-4.9,1.8-7.4C354.9,1405.4,355.3,1401.9,355.6,1398.4z"/>
<path fill="none" d="M371.4,1399.3c7.4,1.7,14,3.2,19.4,4.4l-13.3-118.2c-7.1,6.3-14.2,12.7-21.2,19.1l-13.6,12.3
	C362.6,1338.8,373.7,1368.3,371.4,1399.3z"/>
<path fill="none" d="M212.7,2187.4c-0.1,0-0.1,0-0.2,0l-14.1,26.2c0.7-0.1,1.3-0.1,1.9-0.1h24.8c0.3,0,0.6,0,0.8,0l-13.2-26.2
	C212.8,2187.4,212.8,2187.4,212.7,2187.4z"/>
<polygon fill="none" points="272.5,2063.9 272.5,2056 263.6,2056 263.6,2081.1 263.6,2092.2 263.6,2105.5 272.5,2105.2 
	272.5,2073.1 "/>
<path fill="none" d="M551.1,1270.7C551,1270.7,551,1270.7,551.1,1270.7l0.8,7.2c2.1-0.3,4.2-0.8,6.2-1.6c2.3-0.8,4.6-1.8,6.3-3.2
	c0.8-0.7,1.5-1.5,1.9-2.2c0.3-0.8,0.3-1.3,0.1-1.8s-1-1.1-1.8-1.5c-0.9-0.4-2-0.6-3.2-0.7c-2.3-0.1-4.8,0.2-7.1,0.9
	c-0.3,0.1-0.5,0.8-0.8,1.1c-0.2,0.2-0.3,0.2-0.5,0.2l-0.5,0.2l-1.7,0.5l0.1,0.8L551.1,1270.7z"/>
<path fill="none" d="M480.9,2244.8c-3,2.4-5.8,5.2-7.8,8.6l1.3,36.4c7-7.6,9.9-19.9,11.7-29.6
	C486.2,2259.4,489.3,2238.1,480.9,2244.8z"/>
<path fill="none" d="M245.9,1387.3c1.7-8.7,10.1-14.5,18.9-12.8c0.1,0,2.1,0.5,5.5,1.3l9-8.8c4.7-4.6,9.5-9.1,14.1-13.8l28-28
	l3.6-3.6c-12.4-11.2-27.9-19.3-45.4-22.7c-50.9-9.7-100.2,23.8-110,74.6c-9.8,50.9,23.7,100.2,74.6,109.9
	c39.2,7.5,77.6-10.7,97.5-42.8c-36.9-14.9-79.3-33-83.2-34.7C249.9,1404.3,244.2,1395.9,245.9,1387.3z"/>
<path fill="none" d="M383.7,1454.1c-0.8-0.6-1.5-1.2-2.2-1.9c-5.3-5.1-8.5-12.3-8.6-19.7c0-0.8,0-1.6,0.1-2.4l-9-2.9l-7.2-2.2
	c-2,5.6-4.6,10.8-7.5,15.8C362.6,1446.2,374.9,1451,383.7,1454.1z"/>
<path fill="none" d="M498,1436.5c-9.8,50.8,23.7,100.2,74.6,109.9c50.8,9.8,100.2-23.7,109.9-74.6c9.8-50.8-23.7-100.2-74.6-109.9
	c-15.5-2.9-30.8-1.9-45,2.4c0.3,2.8,0.8,5.4,1.1,8.2c1.4,9.2,3.2,18.3,5.4,27.4s5,18,8.5,26.6c2.3,5.7,4.9,11.3,8,16.7
	c1.7-0.6,3.5-0.7,5.5-0.4c5.9,1.2,9.7,6.9,8.6,12.8c-1.1,5.9-6.8,9.8-12.8,8.6c-5.9-1.1-9.8-6.8-8.6-12.8c0.5-2.4,1.7-4.5,3.4-6
	c-3.3-5.4-6.2-11.2-8.7-17c-3.8-8.8-6.8-17.8-9.3-27c-2.5-9.2-4.6-18.5-6.3-27.8c-0.5-2.3-0.8-4.7-1.2-7.1
	C527.4,1377.8,504.4,1403.5,498,1436.5z"/>
<path fill="none" d="M402.9,1437.5l-0.1,0.1c-1.2,0.9-2.8,1.1-4.1,0.7l-8.6-2.8l-8.7-2.8l-2.1-0.7c0,0.2,0,0.2,0,0.4
	c-0.2,5.8,2,11.7,6.1,15.9c4.1,4.2,9.9,6.8,16,6.9c2.9,0,6-0.6,8.7-1.8c2.8-1.2,5.2-3,7.2-5.1c4-4.4,6.2-10.1,6.1-16
	c-0.1-3-0.8-5.9-2.1-8.6L402.9,1437.5z"/>
<path fill="none" d="M392.5,1426.7l0.9,0.2l-1.5-13.8c-2.1,1-4.1,2.4-5.9,4c-2,1.9-3.6,4.2-4.8,6.7l2.4,0.6L392.5,1426.7z"/>
<path fill="none" d="M1001,2349.5c-3.5,0.2-6,3.2-5.8,6.7c0.2,3.4,3.2,6.1,6.7,5.8c3.5-0.2,6-3.2,5.8-6.7c-0.2-3.2-3-5.8-6.2-5.8
	C1001.2,2349.5,1001.1,2349.5,1001,2349.5z"/>
<path fill="none" d="M350.3,1423.1l-21.2-6.5c-5.8-1.8-11.6-3.4-17.4-5.1l-17.5-5.1l-17.5-5.1l-3.9-1.2l0,0
	c-1.2,1.4-2.7,2.6-4.4,3.3c0,0.1-0.1,0.1-0.1,0.1c-0.5,0.2-1,0.4-1.5,0.6c-0.1,0.1-0.1,0.1-0.2,0.1c-1.1,0.4-2.2,0.6-3.4,0.8
	c-0.1,0-0.1,0-0.2,0c11.2,4.8,48,20.4,80.2,33.4C346,1433.6,348.4,1428.5,350.3,1423.1z"/>
<path fill="none" d="M856.2,2416.4c1.2,16.3,2.9,32.6,4,48.9c0.8,12.1,0.1,27.8,5.3,39.1c3.3,7.4,8.6,13.4,16.3,16.7
	c11.2,4.8,23.2-3.8,31.1-10.6c11.2-9.8,17.8-20.9,19.2-35.9c1.2-14.8,1.2-29.8,0.5-44.4c-0.3-6.7,0-12,0.4-16.4l-76.8,1.2
	C856.2,2415.4,856.2,2415.9,856.2,2416.4z"/>
<path fill="#88CEB9" d="M392.2,1929.7l3-347.7c-20.1-0.2-40.1-0.9-60.2-1.6l-56.4-2.1l4.8,361.8L392.2,1929.7z M292.5,1747.7
	c2,0,3.8,4.4,3.8,9.8c0,5.5-1.7,9.8-3.8,9.8c-2.1,0-3.8-4.4-3.8-9.8C288.8,1752.1,290.4,1747.7,292.5,1747.7z"/>
<path fill="#88CEB9" d="M150.8,1666.8l1.1,96.2l1.5,96.2c0.5,31.1,1,62.2,1.7,93.3l122.3-11.8l-1.3-362.5l-3.6-0.2l-62.7-2.3
	l-59.9-2.4l0.4,45.3L150.8,1666.8z M258.3,1750.8c2.1,0,3.8,5.7,3.8,12.7s-1.6,12.7-3.8,12.7c-2,0-3.7-5.7-3.7-12.7
	C254.6,1756.4,256.2,1750.8,258.3,1750.8z"/>
<path fill="#5B7D7C" d="M146.2,1666.9l1.5,96.2l1.1,96.2c0.4,32.1,0.7,64.1,1,96.2v2.9l2.8-0.3l242-26l5.8-352.6l0-2.5l-2.6-0.2
	c-20.9-1.3-41.8-2.1-62.6-2.8l-62.6-2l-62.6-2.1l-62.7-1.9l-2.8-0.1l0.1,2.8l0.9,48.1L146.2,1666.9z M335.1,1580.5
	c20.1,0.7,40.1,1.3,60.1,1.5l-3,347.7l-108.8,10.5l-4.8-361.8L335.1,1580.5z M209.8,1575.8l62.6,2.3l3.6,0.2l1.3,362.5L155,1952.5
	c-0.6-31.1-1.2-62.2-1.6-93.3l-1.5-96.2l-1.2-96.2l-0.6-48.1l-0.3-45.3L209.8,1575.8z"/>
<ellipse fill="#5B7D7C" cx="292.5" cy="1757.5" rx="3.8" ry="9.8"/>
<path fill="#5B7D7C" d="M258.3,1776.2c2.1,0,3.8-5.7,3.8-12.7s-1.6-12.7-3.8-12.7c-2,0-3.7,5.7-3.7,12.7S256.2,1776.2,258.3,1776.2z
	"/>
<polygon fill="#E8A7B6" points="958.3,1271.7 942.8,1274.6 942.8,1274.6 "/>
<polygon fill="#E8A7B6" points="913.6,1337.8 950.4,1333.7 950.4,1281.2 913.6,1288.1 "/>
<path fill="#AD4D6B" d="M958.3,1340.8v-69.1l-15.5,2.9l0,0c1.4-3.1,2.7-6.8,3.8-10.8c3.5-12.4,3.7-23.3,0.4-24.2
	c-3.2-0.9-8.8,8.4-12.2,20.8c-1.2,4.4-2.1,8.8-2.5,12.4c-0.4-3.7-1.2-8-2.5-12.4c-3.5-12.4-9-21.8-12.2-20.8
	c-3.2,0.9-3,11.7,0.4,24.2c1.6,5.6,3.6,10.6,5.6,14.3l-17.8,3.3v61.8L958.3,1340.8L958.3,1340.8z M950.4,1333.7l-36.8,4.1v-49.7
	l36.8-6.9V1333.7z"/>
<path fill="#62BFB8" d="M1008.7,1338.3l-50.4,2.5l-52.5,2.6l-111,5.4l-5.2,293.6l213.8-13L1008.7,1338.3z M805.3,1386.5V1363
	l185.5-1.9l-1.6,25.4l-3.3,53.5l-21.9,0.6l-15.8,0.4l-13.2,0.3l-13.2,0.3l-56.1,1.4l-18.4,0.5l-14,0.3l-8.8,0.2l-19.3,0.5
	L805.3,1386.5L805.3,1386.5z M968.2,1619.2l-5.2,0.2l-12.5,0.7l-3.3,0.1l-3.6,0.2l-5,0.2l-19,0.9l-10.5,0.6l-10.9,0.5l-14.1,0.7
	l-7.2,0.3l-17.1,0.8l-17.1,0.9l-11.8,0.6l-8.5,0.4l-20.8,1.1l1-10.5l4.8-47.2l1.2-11.6l167.7-5.2l0.7,5l8.4,60.1L968.2,1619.2z
	 M992.8,1501.9l-0.7,14.2l-1.3,28.9l-62.8-1.5l-60.5-1.4l-7.2-0.2l-6.5-0.2l-17.8-0.4l-18.4-0.5l-7.5-0.2l-3.1-53.5l-1.6-27.6
	l189.3,3.5L992.8,1501.9z"/>
<polygon fill="#569B96" points="938.6,1620.7 938.6,1620.7 943.5,1620.5 938.6,1620.5 "/>
<polygon fill="#569B96" points="815,1626.6 802.5,1626.6 802.5,1617.2 802.5,1617.2 801.5,1627.7 822.2,1626.6 822.2,1626.6 "/>
<polygon fill="#569B96" points="968.2,1558.2 976.9,1558.2 976.2,1553.2 808.5,1558.5 807.3,1570.1 815,1570.1 815,1565.5 
	830.8,1565.5 830.8,1570.1 842.6,1570.1 859.7,1570.1 859.7,1563.3 876.8,1563.3 876.8,1570.1 884,1570.1 884,1563.3 898.1,1563.3 
	898.1,1570.1 909,1570.1 909,1578 919.5,1578 919.5,1581.3 938.6,1581.3 938.6,1570.1 947.2,1570.1 947.2,1620.3 950.4,1620.1 
	950.4,1570.1 962.9,1570.1 962.9,1619.5 968.2,1619.2 968.2,1619.2 "/>
<polygon fill="#BF7DAB" points="802.5,1626.6 815,1626.6 815,1570.1 807.3,1570.1 802.5,1617.2 802.5,1617.2 "/>
<polygon fill="#AF5795" points="830.8,1565.5 815,1565.5 815,1570.1 815,1626.6 822.2,1626.6 822.2,1626.6 830.8,1626.2 
	830.8,1570.1 "/>
<polygon fill="#BF7DAB" points="830.8,1570.1 830.8,1626.2 842.6,1625.6 842.6,1570.1 "/>
<polygon fill="#D0A3C2" points="842.6,1570.1 842.6,1625.6 859.7,1624.7 859.7,1570.1 "/>
<polygon fill="#BF7DAB" points="876.8,1563.3 859.7,1563.3 859.7,1570.1 859.7,1624.7 876.8,1623.8 876.8,1570.1 "/>
<polygon fill="#D0A3C2" points="876.8,1570.1 876.8,1623.8 884,1623.5 884,1570.1 "/>
<polygon fill="#BF7DAB" points="898.1,1563.3 884,1563.3 884,1570.1 884,1623.5 898.1,1622.8 898.1,1570.1 "/>
<polygon fill="#AF5795" points="909,1570.1 898.1,1570.1 898.1,1622.8 909,1622.2 909,1578 "/>
<polygon fill="#8F4C7C" points="919.5,1578 909,1578 909,1622.2 919.5,1621.7 919.5,1581.3 "/>
<polygon fill="#D0A3C2" points="938.6,1620.5 938.6,1581.3 919.5,1581.3 919.5,1621.7 938.6,1620.7 938.6,1620.7 "/>
<polygon fill="#E4CDDE" points="938.6,1570.1 938.6,1581.3 938.6,1620.5 943.5,1620.5 947.2,1620.3 947.2,1570.1 "/>
<polygon fill="#D0A3C2" points="968.2,1558.2 968.2,1619.2 968.2,1619.2 985.3,1618.4 976.9,1558.2 "/>
<polygon fill="#AF5795" points="950.4,1570.1 950.4,1620.1 962.9,1619.5 962.9,1570.1 "/>
<polygon fill="#569B96" points="807,1487.3 817.6,1487.3 817.6,1472.8 836,1472.8 836,1484 853.8,1484 853.8,1472.8 860.3,1472.8 
	867.6,1472.8 867.6,1542.1 928,1543.6 928,1543.6 928,1516.2 911,1516.2 911,1503.1 911,1503.1 892.8,1542 884.8,1538.3 
	912.5,1479.2 920.4,1482.9 911.5,1501.9 992.8,1501.9 992.8,1501.9 994.7,1463.2 805.3,1459.7 "/>
<polygon fill="#AF5795" points="807,1487.3 810,1540.7 817.6,1540.9 817.6,1487.3 "/>
<polygon fill="#8F4C7C" points="836,1484 836,1472.8 817.6,1472.8 817.6,1487.3 817.6,1540.9 836,1541.4 836,1541.4 "/>
<polygon fill="#AF5795" points="853.8,1484 836,1484 836,1541.4 836,1541.4 853.8,1541.8 853.8,1541.8 "/>
<polygon fill="#D0A3C2" points="853.8,1472.8 853.8,1484 853.8,1541.8 853.8,1541.8 860.3,1541.9 860.3,1472.8 "/>
<polygon fill="#BF7DAB" points="860.3,1472.8 860.3,1541.9 867.6,1542.1 867.6,1472.8 "/>
<polygon fill="#76536D" points="928,1516.2 928,1543.6 928,1543.6 990.8,1545.1 992.2,1516.2 992.2,1516.2 "/>
<polygon fill="#AF5795" points="911.5,1501.9 911,1503.1 911,1503.1 911,1516.2 928,1516.2 992.2,1516.2 992.2,1516.2 992.8,1501.9 
	992.8,1501.9 "/>
<polygon fill="#BF7DAB" points="920.4,1482.9 912.5,1479.2 884.8,1538.3 892.8,1542 911,1503.1 911.5,1501.9 "/>
<polygon fill="#569B96" points="824.7,1391.7 833.4,1391.7 833.4,1382.1 847.5,1382.1 847.5,1391.7 865.8,1391.7 865.8,1443 
	922,1441.6 922,1441.6 922,1375.1 935,1375.1 935,1368.1 948.2,1368.1 948.2,1391.7 964,1391.7 964,1386.5 989.2,1386.5 
	990.8,1361.1 805.3,1363 805.3,1386.5 824.7,1386.5 "/>
<polygon fill="#AF5795" points="824.7,1444 824.7,1391.7 824.7,1386.5 805.3,1386.5 805.3,1444.5 "/>
<polygon fill="#A22882" points="833.4,1391.7 824.7,1391.7 824.7,1444 824.7,1444 833.4,1443.8 833.4,1443.8 "/>
<polygon fill="#BF7DAB" points="847.5,1382.1 833.4,1382.1 833.4,1391.7 833.4,1443.8 833.4,1443.8 847.5,1443.4 847.5,1391.7 "/>
<polygon fill="#D0A3C2" points="847.5,1391.7 847.5,1443.4 865.8,1443 865.8,1391.7 "/>
<polygon fill="#BF7DAB" points="964,1391.7 964,1440.5 985.9,1440 989.2,1386.5 964,1386.5 "/>
<polygon fill="#8F4C7C" points="948.2,1391.7 948.2,1440.9 964,1440.5 964,1391.7 "/>
<polygon fill="#BF7DAB" points="948.2,1368.1 935,1368.1 935,1375.1 935,1441.2 948.2,1440.9 948.2,1391.7 "/>
<polygon fill="#AF5795" points="922,1375.1 922,1441.6 922,1441.6 935,1441.2 935,1375.1 "/>
<path fill="#4E5B5B" d="M931.6,2396.6c-3-6.7,4.4-8.9,7.5-8.7c0.2,0,0.4,0.5,0.7,1.4c-0.3-1.8-0.9-3.4-1.8-4.9c-2-3.1-4.8-5.2-8-6.8
	v18.9L931.6,2396.6z"/>
<polygon fill="#D6EBE9" points="854.8,2348.7 832.5,2350.1 831.5,2355.4 854.8,2355 "/>
<polygon fill="#B1DBD7" points="899.1,2354.1 902.8,2354.1 899.2,2346.5 876.3,2344.8 864.5,2353.5 899.2,2353.5 "/>
<path fill="#5B7D7C" d="M828.2,2391.2c0,1.7,5.5,2.7,6.3,2.3c0.4-0.1,0.8-0.1,1.5-0.3c1.5-0.4,3.2-0.6,4.8-0.7
	c2.8-0.3,6-0.1,8.5,1.2c2.3,1.2,3.8,3.5,4.8,6.1l5.2-0.2l-2.1-44.7l-2.2,0.1l-23.3,0.4l-3.5,0.1v28.9l0,0
	C828.2,2384.4,828.2,2389.3,828.2,2391.2z"/>
<path fill="#5B7D7C" d="M898.2,2367.5c1.8,2.9,2.8,6.2,2.8,9.9c0,4.5-1.6,8.6-4.2,11.8l-0.5,8.8l33.5-1.4v-18.9v-24.2l-27,0.5
	l-3.7,0.1L898.2,2367.5z"/>
<path fill="#D6EBE9" d="M896.3,2398.1l0.5-8.9c-3.4,4.2-8.6,6.8-14.4,6.8c-10.2,0-18.6-8.3-18.6-18.6s8.3-18.6,18.6-18.6
	c6.7,0,12.5,3.5,15.8,8.8l0.8-13.4l0-0.6h-34.6H864h-7l0,1.4l2.1,44.7L896.3,2398.1z"/>
<path fill="#5B7D7C" d="M882.5,2362.7c-8.1,0-14.7,6.6-14.7,14.7c0,8.1,6.6,14.7,14.7,14.7c8.1,0,14.7-6.6,14.7-14.7
	C897.2,2369.3,890.6,2362.7,882.5,2362.7z M879,2380.9c-4.1,0-7.5-3.4-7.5-7.4c0-4.1,3.3-7.4,7.5-7.4c4.1,0,7.5,3.3,7.5,7.4
	C886.5,2377.6,883.1,2380.9,879,2380.9z"/>
<path fill="#B1C3C3" d="M898.2,2367.5c-3.3-5.2-9.1-8.8-15.8-8.8c-10.2,0-18.6,8.4-18.6,18.6s8.3,18.6,18.6,18.6
	c5.8,0,11-2.6,14.4-6.8c2.7-3.2,4.2-7.3,4.2-11.8C901.1,2373.8,900,2370.4,898.2,2367.5z M882.5,2392.1c-8.1,0-14.7-6.6-14.7-14.7
	c0-8.1,6.6-14.7,14.7-14.7c8.1,0,14.7,6.6,14.7,14.7C897.2,2385.5,890.6,2392.1,882.5,2392.1z"/>
<path fill="#FFFFFF" d="M879,2366c-4.1,0-7.5,3.4-7.5,7.4c0,4.1,3.3,7.4,7.5,7.4c4.1,0,7.5-3.3,7.5-7.4
	C886.5,2369.4,883.1,2366,879,2366z"/>
<path fill="#93ABAA" d="M998.1,2344.7c0.8-0.2,1.7-0.4,2.5-0.4c1-0.1,1.8,0,2.8,0.2l-1.8-25.6l-5.2,0.7L998.1,2344.7z"/>
<polygon fill="#D85880" points="1017.2,2234.4 975.6,2237.3 957.2,2324.8 996.4,2319.6 1001.7,2318.9 1044.5,2313.1 "/>
<path fill="#93ABAA" d="M1000.6,2344.2c-0.8,0.1-1.7,0.2-2.5,0.4c-2,0.6-4,1.8-5.4,3.4c-2,2.3-3,5.3-2.8,8.4
	c0.4,6,5.5,10.7,11.5,10.7c0.2,0,0.5,0,0.8-0.1c6.3-0.4,11.1-5.9,10.7-12.2c-0.3-5.4-4.3-9.7-9.5-10.6
	C1002.5,2344.2,1001.5,2344.2,1000.6,2344.2z M1007.7,2355.3c0.2,3.4-2.3,6.4-5.8,6.7c-3.4,0.2-6.4-2.4-6.7-5.8
	c-0.2-3.4,2.3-6.4,5.8-6.7c0.2,0,0.3,0,0.5,0C1004.7,2349.5,1007.4,2352,1007.7,2355.3z"/>
<polygon fill="#93ABAA" points="1003.3,2383.4 1005.8,2369.2 997.5,2369.7 1001.8,2383.6 1002.5,2383.2 "/>
<polygon fill="#93ABAA" points="1042.2,2391.8 1003.3,2383.4 1002.5,2383.2 1001.8,2383.6 977.3,2394.8 1037.3,2392.3 "/>
<polygon fill="#569B96" points="993.5,2436.1 1008.3,2412.3 991.2,2412.6 "/>
<polygon fill="#569B96" points="836,2445 836,2415.2 816,2415.5 "/>
<path fill="#88CEB9" d="M1037.3,2392.3l-60,2.4l-36.5,1.5c0.5,4.6,1.2,10.6,1.7,17.2l48.7-0.8l17-0.3l35.7-0.6l-0.6-19.7
	L1037.3,2392.3z"/>
<path fill="#88CEB9" d="M833.7,2403.2c-4.2,0.8-7.8,0.8-11.5-1.5c-0.2-0.2-0.5-0.3-0.7-0.5l-24.4,1l0.5,13.6l18.5-0.3l20-0.3
	l7.2-0.1C843,2408.1,842,2401.7,833.7,2403.2z"/>
<path fill="#88CEB9" d="M896.3,2398.1l-37.1,1.5l-5.2,0.2c1.7,4.7,1.8,10.8,2.1,15l76.8-1.2c0.5-6.9,1-11.9-1.2-16.9l-1.8,0.1
	L896.3,2398.1z"/>
<path fill="#565F5E" d="M939.7,2389.4c-0.2-0.9-0.5-1.4-0.7-1.4c-3-0.2-10.5,2-7.5,8.7c2.2,5.1,1.8,10,1.2,16.9
	c-0.3,4.4-0.7,9.8-0.4,16.4c0.7,14.7,0.8,29.7-0.5,44.4c-1.3,15.1-7.8,26.2-19.2,35.9c-7.8,6.9-19.8,15.3-31.1,10.6
	c-7.7-3.2-12.9-9.3-16.3-16.7c-5.2-11.3-4.5-27-5.3-39.1c-1.1-16.4-2.7-32.6-4-48.9c0-0.4,0-1-0.1-1.6c-0.2-4.2-0.3-10.3-2.1-15
	c-1-2.7-2.5-4.9-4.8-6.2c-2.5-1.3-5.8-1.4-8.5-1.1c-1.6,0.1-3.2,0.3-4.8,0.7c-0.7,0.1-1.2,0.2-1.5,0.3c-0.8,0.3-6.3-0.7-6.3-2.3
	c0-2,0-6.8,0-6.8l0,0c-5.9,4-14,11.6-6.6,16.8c0.2,0.1,0.4,0.3,0.7,0.5c3.8,2.2,7.2,2.2,11.5,1.5c8.3-1.4,9.3,4.9,9.5,11.9
	c0.1,2.6,0,5.2,0.2,7.5c1.7,21.4,3.1,42.8,5.2,64.1c1.5,14.3,4.3,26.7,15.7,36.4c25.1,21.5,57.1-0.4,72.5-22.8
	c9.5-13.7,9-32.7,8.2-48.5c-0.5-10.1-1.5-25.3-2.7-38.3c-0.5-6.6-1.2-12.6-1.7-17.1C940.5,2393.2,940.1,2390.8,939.7,2389.4z"/>
<path fill="#E8A7B6" d="M823.3,2188.9c-4.4-3.1-9.7-4.8-15-4.8c-5.3,0.1-10.5,2-14.7,5.2c-4.2,3.2-7.5,7.5-10.1,12.2
	s-4.2,9.8-5.3,15s-1.6,10.5-1.5,15.9c0,5.2,0.7,10.6,2,15.7c1.2,5.1,3.2,10.1,5.8,14.6c2.6,4.5,6,8.5,10,11.4s8.8,4.7,13.8,4.8
	c4.8,0.1,9.8-1.6,14-4.4c4.2-2.8,7.8-6.8,10.7-11.3c5.7-9.1,8.3-19.9,8.5-30.8c0.2-10.9-2.2-21.9-7.5-31.4
	C831.3,2196.3,827.8,2192,823.3,2188.9z M808.4,2263c-9.8,0-17.8-7.9-17.8-17.8c0-5.4,2.5-10.3,6.3-13.6c-1.9-3.5-3.2-9.5-3.2-16.4
	c0-10.8,3-19.4,6.7-19.4s6.7,8.7,6.7,19.4c0,4.8-0.6,9.1-1.5,12.4c0.9-0.1,1.8-0.2,2.8-0.2c1.2,0,2.3,0.1,3.5,0.4
	c-1-3.4-1.6-7.8-1.6-12.6c0-10.8,3-19.4,6.7-19.4s6.7,8.7,6.7,19.4c0,7.2-1.3,13.4-3.3,16.8c3.7,3.2,5.9,7.9,5.9,13.2
	C826.2,2255,818.2,2263,808.4,2263z"/>
<path fill="#FFFFFF" d="M820.3,2231.9c2-3.3,3.3-9.6,3.3-16.8c0-10.8-3-19.5-6.7-19.5s-6.7,8.7-6.7,19.5c0,4.8,0.6,9.2,1.6,12.5
	c-1.1-0.2-2.2-0.3-3.5-0.3c-1,0-1.9,0.1-2.8,0.2c1-3.4,1.5-7.7,1.5-12.4c0-10.8-3-19.5-6.7-19.5s-6.7,8.7-6.7,19.5
	c0,6.9,1.2,13,3.2,16.4c-3.9,3.2-6.3,8.2-6.3,13.6c0,9.8,8,17.8,17.8,17.8c9.8,0,17.8-7.9,17.8-17.8
	C826.2,2239.9,824,2235.2,820.3,2231.9z"/>
<path fill="#AD4D6B" d="M825.2,2186.2c-4.8-3.4-10.8-5.5-16.8-5.5c-6-0.1-12,1.9-17.1,5.1c-5.1,3.2-9.3,7.6-12.7,12.6
	c-6.8,9.9-10.2,22-10.2,33.9c0,6.1,0.7,12,2.2,17.9c1.5,5.9,3.9,11.5,7.2,16.7c3.3,5.1,7.5,9.8,12.8,13.3c5.2,3.5,11.7,5.7,18,5.6
	c6.5-0.1,12.7-2.3,17.8-5.9c5.1-3.6,9-8.3,12.2-13.4c6.2-10.3,8.7-22.3,8.6-33.9v-0.1c-0.2-11.7-3.2-23.5-9.5-33.4
	C834.2,2194,830.2,2189.5,825.2,2186.2z M833.1,2263.1c-2.8,4.5-6.4,8.4-10.7,11.3c-4.2,2.9-9.2,4.4-14,4.4c-5-0.1-9.8-1.9-13.8-4.8
	s-7.5-7-10-11.4c-2.7-4.4-4.5-9.4-5.8-14.6c-1.3-5.1-2-10.4-2-15.7c-0.1-5.4,0.4-10.7,1.5-15.9c1.1-5.2,2.8-10.3,5.3-15
	c2.5-4.7,5.8-8.9,10.1-12.2c4.2-3.2,9.3-5.2,14.7-5.2c5.3-0.1,10.5,1.8,15,4.8c4.4,3.1,8,7.4,10.7,12.1c5.4,9.4,7.8,20.5,7.5,31.4
	C841.5,2243.2,838.8,2254.1,833.1,2263.1z"/>
<path fill="#F2D1D6" d="M871.7,2184.1c5.5,8.7,14.1,15,23.3,15.1c9.2,0.2,18.3-5.9,24.2-14.5c6-8.7,9.3-19.6,9.5-30.6
	c0-5.5-0.5-10.9-1.8-16.3c-1.3-5.3-3.5-10.4-6.3-15c-2.9-4.6-6.5-8.6-11-11.6c-4.3-2.9-9.5-4.6-14.5-4.5c-5.1,0.1-10,1.9-14.2,4.9
	s-7.7,7.1-10.3,11.6c-5.3,9.2-7.7,20.1-7.5,30.8C863.2,2164.8,866,2175.5,871.7,2184.1z M878.5,2160.5c0.5,0.1,1.1,0.1,1.7,0.1
	c0.8,0,1.5-0.1,2.3-0.3c-4-0.8-7-4.3-7-8.6c0-0.1,0-0.1,0-0.1c1.2,0.7,2.5,1.1,4,1.1c-2.3-1.6-3.8-4.2-3.8-7.2
	c0-1.6,0.5-3.1,1.2-4.4c4.3,5.2,10.7,8.7,18,9.1c-0.2-0.7-0.2-1.3-0.2-2c0-4.8,3.9-8.7,8.7-8.7c2.5,0,4.8,1.1,6.3,2.8
	c2-0.4,3.8-1.1,5.5-2.1c-0.7,2.1-2,3.8-3.8,4.8c1.8-0.2,3.5-0.7,5-1.4c-1.2,1.8-2.7,3.3-4.3,4.5c0,0.4,0,0.8,0,1.1
	c0,11.5-8.8,24.8-24.8,24.8c-4.9,0-9.5-1.4-13.3-3.9c0.7,0.1,1.4,0.1,2.1,0.1c4,0,7.8-1.4,10.8-3.7
	C882.8,2166.4,879.7,2163.9,878.5,2160.5z"/>
<path fill="#AD4D6B" d="M873.8,2170.1c3.8,2.4,8.4,3.9,13.3,3.9c16,0,24.8-13.2,24.8-24.8c0-0.4,0-0.8,0-1.1
	c1.7-1.2,3.2-2.8,4.3-4.5c-1.5,0.7-3.2,1.2-5,1.4c1.8-1.1,3.2-2.8,3.8-4.8c-1.7,1-3.5,1.7-5.5,2.1c-1.6-1.7-3.8-2.8-6.3-2.8
	c-4.8,0-8.7,3.9-8.7,8.7c0,0.7,0.1,1.3,0.2,2c-7.2-0.4-13.7-3.9-18-9.1c-0.8,1.3-1.2,2.8-1.2,4.4c0,3,1.5,5.7,3.8,7.2
	c-1.5-0.1-2.8-0.5-4-1.1c0,0.1,0,0.1,0,0.1c0,4.2,3,7.8,7,8.5c-0.8,0.2-1.5,0.3-2.3,0.3c-0.5,0-1.1-0.1-1.7-0.1
	c1.1,3.4,4.3,5.9,8.2,6c-3,2.4-6.8,3.7-10.8,3.7C875.2,2170.2,874.5,2170.2,873.8,2170.1z"/>
<path fill="#AD4D6B" d="M855.3,2154.2c-0.2,11.9,2.2,24.1,8.3,34.8c3.2,5.3,7.2,10.3,12.5,14.1c5.3,3.8,12,6.1,18.7,6
	c6.8-0.1,13.3-2.6,18.4-6.4c5.2-3.8,9-8.9,11.9-14.2c2.9-5.4,4.8-11.1,6-16.8s1.8-11.6,1.7-17.4l0,0c0-5.8-0.8-11.7-2.3-17.3
	c-1.5-5.7-3.5-11.2-6.6-16.2c-3-5.1-6.9-9.7-11.8-13.2c-4.9-3.6-11-5.8-17.2-5.9c-6.2-0.1-12.5,1.9-17.5,5.4
	c-5.1,3.4-9.2,8-12.5,13.1C858.6,2130.3,855.6,2142.3,855.3,2154.2z M880.8,2111.8c4.2-3,9.2-4.8,14.2-4.9
	c5.1-0.1,10.2,1.6,14.5,4.5c4.4,2.9,8,7,11,11.6c2.8,4.6,5,9.7,6.3,15c1.3,5.3,1.9,10.8,1.8,16.3c-0.2,11-3.5,21.9-9.5,30.5
	c-5.9,8.7-15,14.8-24.2,14.5c-9.2,0-17.8-6.4-23.3-15c-5.7-8.6-8.5-19.3-8.8-30c-0.2-10.6,2.1-21.6,7.5-30.8
	C873.1,2118.9,876.5,2114.8,880.8,2111.8z"/>
<path fill="#E8A7B6" d="M964,2105c4.2,3,9.2,4.9,14.3,5c5.2,0.1,10.2-1.6,14.7-4.5c4.4-3,8.2-7,11-11.6c5.8-9.3,8.4-20.4,8.5-31.4
	c-0.1-11-2.8-22.1-8.5-31.4c-2.8-4.6-6.6-8.7-11-11.6c-4.4-3-9.5-4.6-14.7-4.5s-10.1,1.9-14.3,5c-4.2,3-7.7,7.2-10.3,11.7
	c-5.5,9.2-8,20-7.8,30.8c0,10.8,2.4,21.7,7.8,30.8C956.3,2097.8,959.8,2102,964,2105z M959.7,2058.2c-2.3-1.2-6.1,1.3-5.5,4.8
	c0.2,1.6,1.8,2.8,4,2.5c5.2-0.6,8-6.9,13.2-7.5c3.3-0.4,6,0.6,6.9,4.4c0.8-2.6,2.8-4.8,7-4.4c1,0.1,2.2,0.6,3,1.1
	c3.3,2.1,5.9,5.9,10,6.4c7,0.9,3.8-9.9-1.3-7.2c3.2-2.7,6.7,1.7,6.7,5.2c0,5.9-6.7,9.2-12.8,8c0.4,0.6,1.3,0.6,2.1,0.8
	c-6.9,0.2-13.1-1.2-14.3-7c-1.7,5.6-7.3,7.2-14.7,7.1c0.7-0.4,1.7-0.4,2.3-0.9c-6,1.2-13.2-1.7-13.2-7.9
	C952.8,2060.2,956.2,2055.7,959.7,2058.2z"/>
<path fill="#6D1132" d="M966.2,2071.4c-0.6,0.5-1.6,0.6-2.3,0.8c7.3,0.1,13-1.5,14.7-7.1c1.2,5.8,7.5,7.2,14.3,7
	c-0.8-0.2-1.7-0.2-2.1-0.8c6.2,1.2,12.8-2.2,12.8-8c0-3.5-3.5-7.9-6.7-5.2c5.1-2.6,8.2,8.1,1.3,7.2c-4-0.5-6.7-4.4-10-6.4
	c-0.8-0.5-2-1-3-1.1c-4.2-0.4-6.2,1.8-7,4.4c-0.8-3.8-3.5-4.8-6.9-4.4c-5.1,0.6-7.9,7-13.2,7.6c-2.3,0.2-3.8-0.9-4-2.5
	c-0.6-3.5,3.1-6,5.5-4.8c-3.6-2.5-6.8,2-6.8,5.4C953,2069.7,960.2,2072.6,966.2,2071.4z"/>
<path fill="#AD4D6B" d="M960.8,2109.5c5,3.4,11.2,5.5,17.5,5.4c6.2-0.1,12.2-2.4,17.1-5.9c4.9-3.5,8.8-8.2,11.8-13.2
	c6-10.1,8.7-21.8,8.6-33.4l0,0c0-11.5-2.5-23.3-8.6-33.3c-3-5-6.8-9.7-11.8-13.2c-4.8-3.5-10.9-5.8-17.1-5.8
	c-6.2-0.2-12.4,2-17.5,5.3c-5.1,3.4-9.2,8-12.4,13.1c-6.3,10.2-9.2,22.2-9.2,34c0.1,11.8,3,23.8,9.2,34
	C951.6,2101.5,955.8,2106.1,960.8,2109.5z M953.7,2031.7c2.8-4.5,6.2-8.7,10.3-11.7c4.2-3.1,9.2-4.9,14.3-5
	c5.2-0.1,10.2,1.5,14.7,4.5c4.4,2.9,8.2,7,11,11.6c5.8,9.3,8.4,20.4,8.5,31.4c-0.1,11.1-2.8,22.2-8.5,31.4c-2.8,4.6-6.6,8.7-11,11.6
	s-9.5,4.6-14.7,4.5c-5.2-0.1-10.1-2-14.3-5c-4.2-3-7.7-7.2-10.3-11.7c-5.5-9.1-8-20-7.8-30.8
	C945.7,2051.7,948.2,2040.8,953.7,2031.7z"/>
<path fill="#4C1E41" d="M608.8,1357.9c-15.9-3.1-31.7-2-46.2,2.3c0.2,1.3,0.4,2.8,0.5,4.1c14.2-4.3,29.5-5.3,45-2.4
	c50.8,9.8,84.3,59.1,74.6,109.9c-9.8,50.9-59,84.3-109.9,74.6c-50.9-9.8-84.4-59.1-74.6-109.9c6.3-33,29.3-58.7,58.5-70
	c-0.2-1.4-0.4-2.8-0.6-4.2c-30.9,11.7-55.2,38.6-61.9,73.4c-1.4,7.1-2,14.4-1.7,21.6l-3,0.1c1.2,46.8,35,88.3,83.2,97.5
	c55.5,10.6,109.2-25.5,119.7-80.6c10-52-22.1-102.5-72.4-116.9l-1.9,2.6C615,1359.2,611.8,1358.5,608.8,1357.9z"/>
<path fill="#A22882" d="M494,1435.7c6.6-34.8,31-61.7,61.9-73.4c-0.6-4-1.2-8.1-1.7-12c-35.8,12.5-64.3,43.2-72,83.1
	c-1.5,8-2.2,16.2-1.9,24.2l8.9-0.3l3-0.1C492,1450.1,492.6,1442.9,494,1435.7z"/>
<path fill="#A22882" d="M562.5,1360.2c14.5-4.3,30.3-5.3,46.2-2.3c3.1,0.6,6.2,1.3,9.2,2.2l1.9-2.6l5.4-7.6
	c-4.6-1.6-9.4-2.8-14.2-3.7c-17.1-3.3-34.1-2.3-49.8,2c0.4,3.5,0.8,7,1.2,10.5C562.4,1359.1,562.5,1359.7,562.5,1360.2z"/>
<path fill="#4C1E41" d="M359.8,1399.4c-1.4-0.3-2.8-0.7-4.2-0.9c-0.3,3.5-0.7,7-1.4,10.5c-0.5,2.6-1.1,5-1.8,7.4l4.1,1.1
	c0.7-2.6,1.4-5.2,1.9-7.8C359,1406.3,359.5,1402.8,359.8,1399.4z"/>
<path fill="#4C1E41" d="M355.7,1395.7c1.4,0.3,2.8,0.6,4.2,0.9c1.5-27.1-8.3-52.8-25.9-71.9l-3.1,2.8
	C347.5,1345.7,357,1370.1,355.7,1395.7z"/>
<path fill="#4C1E41" d="M349.2,1440.8c2.9-5,5.5-10.2,7.5-15.8l-6.4-1.9c-2,5.4-4.4,10.5-7.1,15.3
	C345.1,1439.2,347.2,1440,349.2,1440.8z"/>
<path fill="#4C1E41" d="M243.4,1488.1c42,8.1,83-11.1,104.4-44.9c-2-0.8-4-1.6-6-2.4c-20,32-58.2,50.3-97.5,42.8
	c-50.8-9.7-84.3-59.1-74.6-109.9c9.8-50.8,59.1-84.3,109.9-74.6c17.6,3.3,33,11.5,45.4,22.7l3-3c-13-11.8-29.2-20.4-47.6-23.9
	c-37.2-7.1-74.9,7.7-97.2,37.8l-3.2-0.6c-8.2,11.3-14.1,24.5-16.9,39.1C152.6,1425.1,188.7,1477.6,243.4,1488.1z"/>
<path fill="#A22882" d="M371.1,1402c-3.6-0.8-7.4-1.7-11.4-2.6c-0.3,3.4-0.8,6.9-1.4,10.3c-0.5,2.6-1.1,5.2-1.9,7.8l9.5,2.6l1.8,0.4
	c0.8-2.8,1.5-5.7,2-8.6C370.4,1408.6,370.8,1405.3,371.1,1402z"/>
<path fill="#A22882" d="M359.9,1396.7c4,0.9,7.8,1.8,11.5,2.6c2.3-30.9-8.7-60.6-28.7-82.3l-8.6,7.8
	C351.6,1343.8,361.4,1369.6,359.9,1396.7z"/>
<path fill="#A22882" d="M280.4,1294.8c18.4,3.5,34.7,12.1,47.6,23.8l7.4-7.4l0.8-0.8c-14.6-13.4-32.9-23.1-53.7-27.1
	c-43.4-8.3-87.4,10.1-111.9,46.8l9.3,1.8l3.2,0.6C205.6,1302.5,243.2,1287.7,280.4,1294.8z"/>
<path fill="#8F4C7C" d="M272.7,1400.1c-1.2,1.4-2.7,2.5-4.4,3.3C270,1402.6,271.5,1401.5,272.7,1400.1z"/>
<path fill="#8F4C7C" d="M587.4,1464.1c5.9,1.1,11.6-2.8,12.7-8.7c1.2-5.9-2.7-11.6-8.6-12.8c-1.9-0.4-3.8-0.2-5.5,0.3
	c1.5,2.7,3.2,5.3,5,7.8l-3.4,2.6c-2-2.6-3.8-5.3-5.5-8.1c-1.7,1.5-2.9,3.6-3.4,6C577.5,1457.3,581.5,1463,587.4,1464.1z"/>
<path fill="#BF7DAB" d="M383.7,1454.1c-8.9-3.2-21.1-7.9-34.5-13.3c-2-0.8-4.1-1.6-6.1-2.4c-32.3-13.1-69.1-28.7-80.2-33.4
	c-1.3,0.1-2.6,0.1-3.9-0.2c-8-1.6-13.3-9.2-11.7-17.3c1.6-8,9.2-13.2,17.2-11.7c1.5,0.3,3,0.8,4.2,1.5l1.5-1.5
	c-3.4-0.8-5.4-1.2-5.5-1.3c-8.7-1.6-17.2,4.1-18.9,12.8c-1.7,8.7,4,17.1,12.6,18.8c3.9,1.7,46.3,19.8,83.2,34.7c2,0.8,4,1.7,6,2.5
	c22,8.8,41,16,47.2,17.2l0,0c6.7,1.3,13.2-0.1,18.8-3.3c-3.9,1.9-8.2,2.9-12.6,2.9C395,1460.2,388.6,1458,383.7,1454.1z"/>
<path fill="#BF7DAB" d="M359.9,1396.7c-1.4-0.3-2.8-0.7-4.2-1c-28.2-6.5-61.4-14.2-78.9-18.3l-2.4,2.2c17,4,51.6,12.1,81,18.9
	c1.4,0.3,2.8,0.6,4.2,0.9c3.9,0.9,7.8,1.8,11.4,2.7c6.7,1.5,12.9,2.9,18,4.1c0.6-0.2,1.1-0.6,1.8-0.8l-0.2-1.6
	c-5.4-1.2-12-2.8-19.4-4.4C367.7,1398.5,363.9,1397.6,359.9,1396.7z"/>
<path fill="#8F4C7C" d="M328,1318.7l-3,3l-3.6,3.6l-28,28c-4.6,4.7-9.4,9.2-14.1,13.8l-9,8.8l-1.5,1.5c-1.3-0.7-2.7-1.2-4.2-1.5
	c-8-1.6-15.8,3.7-17.2,11.7c-1.6,8,3.7,15.8,11.7,17.3c1.3,0.2,2.6,0.3,3.9,0.2c0.1,0,0.1,0,0.1-0.1c1.2-0.1,2.4-0.3,3.5-0.8
	c0.1,0,0.1,0,0.2-0.1c0.5-0.2,1-0.4,1.5-0.7c0,0,0.1,0,0.1-0.1c1.6-0.8,3.1-2,4.4-3.3l0,0l4,1.2l17.4,5.1l17.4,5.1
	c5.8,1.7,11.7,3.3,17.5,5.2l21.2,6.4l6.4,2l7.1,2.2l9,2.8c0,0.8-0.1,1.6,0,2.4c0.1,7.5,3.4,14.7,8.6,19.7c0.7,0.7,1.4,1.3,2.2,1.9
	c5,3.9,11.3,6.1,17.5,6c4.4,0,8.7-1.1,12.6-3c2.6-1.3,5-2.9,7.1-4.9c5.3-4.9,8.5-12.3,8.7-19.6v-0.1c0.1-4.4-0.9-8.8-2.8-12.8
	l124-92.7l1.3,10.6l-1.1,0.2l1,8l1.5-0.2c0.2,1.6,0.4,3.2,0.6,4.8c0.5,4,1,8,1.7,12c0.2,1.4,0.4,2.8,0.6,4.2
	c0.4,2.3,0.8,4.7,1.2,7.1c1.7,9.3,3.8,18.6,6.3,27.8c2.5,9.2,5.6,18.2,9.4,27c2.5,5.8,5.3,11.5,8.7,17c1.7,2.8,3.5,5.5,5.5,8.1
	l3.4-2.6c-1.8-2.5-3.5-5.2-5-7.8c-3-5.3-5.6-10.9-8-16.7c-3.5-8.6-6.1-17.6-8.5-26.6c-2.2-9-4-18.2-5.4-27.4
	c-0.4-2.7-0.8-5.4-1.2-8.2c-0.2-1.3-0.3-2.8-0.5-4.1c0-0.5-0.2-1.1-0.2-1.6c-0.3-3.4-0.8-6.9-1.2-10.4c-0.1-1.2-0.3-2.4-0.4-3.6
	l1.5-0.2l-1-8l-1.1,0.2l-1.8-15.8c0.4-0.9,0.6-1.9,0.4-3.1l-2.1-11.5v-0.1c0-0.1,0-0.2,0-0.2l-1.5-13.1l-1.6,0.2l-1-9.9
	c2.5-0.6,4.9-1.2,7.3-2.2c2.6-1.1,5.3-2.2,7.6-4.2c1.2-1,2.4-2.2,3.1-3.8c0.4-0.8,0.7-1.8,0.7-2.8c0-1.1-0.2-2.2-0.7-3.1
	c-1-1.9-2.6-2.9-4.1-3.6c-1.5-0.7-3.1-1-4.6-1.1c-3-0.2-6,0.1-8.7,0.8c-0.4,0-0.8-0.5-1.2-0.6c-0.2,0-0.3,0-0.5,0.1l-0.5,0.1l-2,0.5
	c-1.3,0.3-2.6,0.6-3.9,0.9c-2.6,0.7-5.1,1.4-7.8,2.3c-1.3,0.4-2.5,0.8-3.8,1.3l-1.9,0.7c-0.7,0.2-1.3,0.2-1.7,1.4l1.6,5
	c0.9,0.8,1.5,0.3,2.2,0.2l1.9-0.5c1.3-0.4,2.5-0.7,3.8-1.1l3.8-1.1l2.5-0.8l0,0.2c-0.7,0.2-1.3,0.5-2,0.8l-3.5,1.3l-1.8,0.7
	l-0.8,0.3l-0.5,0.2c-0.2,0-0.3,0-0.4,0.3l0.4,1c0.2,0.2,0.3,0.1,0.5,0l0.5-0.2l0.8-0.3l1.8-0.7c1.2-0.4,2.3-0.8,3.5-1.3
	c0.5-0.2,1.1-0.5,1.6-0.7l2.6,20.7l-1.6,0.2l0.9,7.5l-149.3-27.4l0.4-1.8l-7.7-1.5c-1.3-0.2-2.6-0.4-3.9-0.7l-1.8-0.3l-0.4-4.1
	l-0.8-18.8l4.9,2.2l12.2,6l6.1,3c2,1,4.1,1.9,5.8,3.6c0.1,0.1,0.2,0.2,0.3,0.2c1.4,1.1,3.3,0.8,4.4-0.6c1-1.3,0.8-3.3-0.6-4.3
	l-1-0.8c-7.3-5.6-14.6-11-21.9-16.5l-11.1-8.1l-5.5-4.1c-1.9-1.3-3.7-2.7-5.8-3.6l-3.2-1.4c-0.6-0.3-1.4-0.5-2.1-0.6
	c-4.5-0.7-8.7,2.4-9.4,6.9c-0.7,4.5,2.4,8.7,6.9,9.3c2.4,0.4,4.5,1.2,6.5,2.2l3.6,1.7l1,24.2l0.8,7.1c-1.8,1.2-3.4,2.6-5,3.9
	c-1.3,1.1-2.5,2.2-3.8,3.3c-1.2,1.1-2.4,2.2-3.6,3.4l-14.1,13.9l-13.3,13l-0.8,0.8L328,1318.7z M552.7,1269.3l0.5-0.2
	c0.1-0.1,0.3-0.1,0.5-0.2c0.2-0.2,0.4-0.9,0.8-1.1c2.4-0.7,4.8-1,7.1-0.9c1.2,0.1,2.2,0.3,3.2,0.7c0.9,0.3,1.6,1,1.8,1.5
	s0.2,1-0.1,1.8c-0.4,0.8-1,1.6-1.9,2.2c-1.8,1.4-4,2.5-6.3,3.2c-2,0.7-4.1,1.2-6.2,1.6l-0.8-7.2l0,0l0,0l-0.1-0.8L552.7,1269.3z
	 M417.2,1448.5c-2,2.1-4.5,3.9-7.2,5.1c-2.8,1.2-5.8,1.8-8.7,1.8c-6.1-0.1-11.9-2.6-16-6.9c-4.1-4.3-6.3-10.2-6.1-15.9
	c0-0.2,0-0.2,0-0.4l2.1,0.7l8.7,2.8l8.6,2.8c1.4,0.4,2.9,0.2,4.1-0.7l0.1-0.1l18.4-13.7c1.2,2.7,2,5.6,2.1,8.6
	C423.5,1438.4,421.3,1444.1,417.2,1448.5z M381.2,1423.9c1.1-2.5,2.8-4.8,4.8-6.6c1.7-1.7,3.7-3,5.8-4l1.6,13.8l-0.9-0.2l-8.8-2.2
	L381.2,1423.9z M401.5,1411.2c5,0,9.8,1.8,13.6,4.9l-12.1,9L401.5,1411.2z M389,1281.9l7.7,1.4l0.4-1.8l150.5,29.8l1,5.2
	l-127.2,95.1c-2.5-2.5-5.5-4.6-8.9-6.1c-3.5-1.4-7.4-2.2-11.1-2.2c-0.2,0-0.4,0.1-0.6,0.1l-13.8-121.8
	C387.6,1281.7,388.2,1281.8,389,1281.9z M342.7,1317l13.6-12.4c7-6.4,14.1-12.8,21.2-19.1l13.3,118.2l0.2,1.6
	c-0.6,0.2-1.1,0.5-1.8,0.8c-3.1,1.4-6,3.4-8.4,5.9c-2.8,2.9-4.9,6.4-6.2,10.2l-6.8-1.8l-1.7-0.4l-9.5-2.6l-4.1-1.1l-21.6-5.8
	c-5.8-1.6-11.7-3.2-17.5-4.8l-17.5-4.9l-17.6-4.9l-2.6-0.7v-0.1c0.1-0.3,0.2-0.7,0.3-0.9c0.1-0.4,0.2-0.8,0.3-1.2
	c0.1-0.5,0.1-1,0.2-1.6c0-0.2,0-0.3,0-0.5c0-0.3,0.1-0.7,0-1.1c0-0.2,0-0.4,0-0.6c0-0.3,0-0.6-0.1-0.9c0-0.2,0-0.4-0.1-0.6
	c0-0.3-0.1-0.6-0.2-0.9c0-0.2-0.1-0.4-0.1-0.6c-0.1-0.3-0.2-0.6-0.3-0.8c-0.1-0.2-0.1-0.4-0.2-0.6c-0.1-0.3-0.2-0.5-0.4-0.8
	c-0.1-0.2-0.1-0.3-0.2-0.6c-0.1-0.3-0.3-0.5-0.5-0.8c-0.1-0.2-0.2-0.3-0.3-0.5c-0.2-0.3-0.4-0.6-0.6-0.9c-0.1-0.1-0.1-0.2-0.2-0.3
	l1.4-1.3l2.4-2.2l6.4-6c4.8-4.5,9.6-9.1,14.5-13.5c9.8-8.9,19.4-17.8,29.2-26.7l3.9-3.6l3.1-2.9L342.7,1317z"/>
<polygon fill="#E08199" points="703.5,2260.2 711.5,2260.2 711.5,2256.4 703.5,2256.6 "/>
<polygon fill="#E08199" points="520,2276 524.9,2276 524.9,2272.5 524.9,2187 703.5,2191 703.5,2253.1 711.5,2252.9 711.5,2184.8 
	517.4,2179.8 517.4,2280.5 520,2280.5 "/>
<polygon fill="#AD4D6B" points="606.4,2263.3 611.2,2263.3 611.2,2272.5 697.4,2272.5 697.4,2276 701,2276 701,2260.2 703.5,2260.2 
	703.5,2256.6 624.8,2258.7 621,2266.7 620.8,2258.8 615.5,2258.9 615.4,2255.4 703.5,2253.1 703.5,2191 524.9,2187 524.9,2272.5 
	606.4,2272.5 "/>
<rect x="606.4" y="2263.3" fill="#753743" width="4.8" height="9.2"/>
<polygon fill="#561043" points="697.4,2272.5 611.2,2272.5 606.4,2272.5 524.9,2272.5 524.9,2276 697.4,2276 "/>
<polygon fill="#753743" points="615.4,2255.4 615.5,2258.9 620.8,2258.8 621,2266.7 624.8,2258.7 703.5,2256.6 711.5,2256.4 
	720.2,2256.2 720.2,2252.7 711.5,2252.9 703.5,2253.1 "/>
<polygon fill="#753743" points="701,2260.2 701,2276 697.4,2276 524.9,2276 520,2276 520,2280.5 716,2284.6 716,2260.2 
	711.5,2260.2 703.5,2260.2 "/>
<path fill="#E08199" d="M720.3,2284.7l-4.4-0.1l-195.9-4.1l-2.6-0.1l-6.7-0.2v54.5l209.6-9.9V2284.7z M626.7,2319.8l-22.8,0.4
	c-0.1,0-0.2,0-0.4,0c-9.2,0-16.8-7.4-17-16.6c0-2.9,2.2-5.3,5.2-5.4c2.8-0.1,5.3,2.2,5.3,5.2c0,1.7,0.8,3.3,2,4.6
	c1.2,1.2,2.8,1.8,4.6,1.8l22.8-0.4c3.6-0.1,6.4-3.1,6.4-6.6c0-2.9,2.2-5.3,5.1-5.3c2.9-0.1,5.3,2.2,5.4,5.1
	C643.5,2311.8,636,2319.6,626.7,2319.8z"/>
<path fill="#984455" d="M637.9,2297.3c-2.9,0.1-5.2,2.4-5.2,5.4c0,3.6-2.8,6.5-6.3,6.6l-22.8,0.4c-1.8,0.1-3.4-0.6-4.6-1.8
	c-1.2-1.2-2-2.8-2-4.6c0-2.9-2.5-5.2-5.3-5.1c-2.9,0.1-5.2,2.4-5.2,5.3c0.2,9.2,7.8,16.7,17,16.6c0.1,0,0.2,0,0.4,0l22.8-0.4
	c9.3-0.2,16.8-7.9,16.6-17.3C643.2,2299.6,640.8,2297.2,637.9,2297.3z"/>
<path fill="#D7EBE9" d="M474.5,2293.3c8-5.4,11-13.8,13.7-22.9c2.4-7.8,5.9-17.8,3-25.9c-2.9-8.3-12-2.1-18.4,4.4l-0.5-14.4h-78.6
	l11,24.5v80.9l71.2-3.3L474.5,2293.3z M466.4,2329.4l-54.5,2.2c0,0,0-49.8,0-49.3c0,16.5,54.5-19.2,54.5-2.7
	C466.4,2296.1,466.4,2329.4,466.4,2329.4z M473.1,2253.3c2-3.3,4.8-6.2,7.8-8.6c8.5-6.7,5.4,14.6,5.2,15.3
	c-1.9,9.8-4.6,22-11.7,29.6L473.1,2253.3z"/>
<path fill="#62BFB8" d="M411.8,2282.3c0-0.5,0,49.3,0,49.3l54.5-2.2c0,0,0-33.2,0-49.8C466.4,2263.1,411.8,2298.8,411.8,2282.3z"/>
<polygon fill="#B2DBD7" points="365.7,2341.7 397.8,2340.1 396.2,2307 358.1,2308.8 358.1,2312.1 365.7,2312.6 "/>
<polygon fill="#D7EBE9" points="365.7,2312.6 358.1,2312.1 327.5,2310.2 325.7,2343.5 365.7,2341.7 "/>
<path fill="#BF7DAB" d="M755.7,2533.1l-6.8-201.7l-189.1,6.7l-23.2,204.8L755.7,2533.1z M573.5,2421.1c2.6,0,4.7,6.5,4.7,14.6
	s-2.1,14.6-4.8,14.6c-2.6,0-4.7-6.5-4.7-14.6S570.9,2421.1,573.5,2421.1z"/>
<path fill="#BF7DAB" d="M533.6,2543.1l18.1-204.7l-242.6,8.6l11.1,205.7L533.6,2543.1z M520,2527.5l-189.6,9.6l9.6-79l185-0.8
	L520,2527.5z M534.5,2362.3l-4.4,82.7H330.3l-7-84.3L534.5,2362.3z"/>
<path fill="#561043" d="M312.5,2556.9l0.1,3.9l4-0.1l450.5-17l-10.5-216.5l-0.2-3.9l-3.9,0.2l-32.1,1.5l-209.6,9.9l-34.6,1.6
	l-71.2,3.4l-7,0.3l-32.1,1.5l-40,1.9l-18,0.8l-1.3,0.1l0,1.3L312.5,2556.9z M748.8,2331.4l6.8,201.7l-219.2,9.8l23.2-204.8
	L748.8,2331.4z M551.8,2338.4l-18.1,204.7l-213.5,9.6L309.1,2347L551.8,2338.4z"/>
<path fill="#561043" d="M573.4,2450.2c2.6,0,4.8-6.5,4.8-14.6c0-8.1-2.1-14.6-4.7-14.6c-2.6,0-4.8,6.5-4.8,14.6
	C568.7,2443.7,570.8,2450.2,573.4,2450.2z"/>
<polygon fill="#8F4C7C" points="330.3,2537.1 520,2527.5 524.9,2457.4 340,2458.1 "/>
<polygon fill="#8F4C7C" points="530.2,2445 534.5,2362.3 323.3,2360.8 330.3,2445 "/>
<path fill="#E8A7B6" d="M522.4,1727c4.2,7.9,9.8,15.2,16.6,20.8c6.9,5.5,15.1,9,23.8,8.9c8.4,0,16.9-3.5,23.6-9
	c6.8-5.5,12.3-12.8,16.6-20.7c8.5-15.9,12.5-34.2,12.7-52.5c0.2-13.8-1.8-27.7-6.3-40.7c-6.4,1-13.5,3.3-19,7.2
	c0,0.1,0.2,0.2,0.2,0.3c5.8,10.1,8.5,21.8,8.7,33.3l0,0c0.1,11.5-2,23.3-7.5,33.9c-2.8,5.2-6.4,10.2-11.2,14
	c-4.7,3.9-10.9,6.6-17.4,6.6c-6.5,0.1-12.9-2.4-17.8-6.2c-5-3.8-8.8-8.7-11.8-14c-3-5.3-5-10.9-6.4-16.8c-1.3-5.8-1.9-11.8-1.9-17.7
	c0.2-11.7,3.2-23.3,9.2-33.4c-2.7-2.1-5.1-3.2-6.7-4.1c-3-1.7-6.9-2.9-11.3-4c-4.7,13.2-6.7,27.3-6.6,41.3
	C510,1692.6,513.8,1711,522.4,1727z"/>
<path fill="#E8A7B6" d="M546.3,1627.6c4.8-3.5,10.6-5.8,16.7-5.7c6,0,11.8,2.4,16.4,6c2.5,2,4.8,4.3,6.8,6.8
	c6-5.3,12.3-9.1,18.1-13.2c0-0.1-0.1-0.2-0.2-0.3c-4.2-8.1-9.6-15.6-16.6-21.4s-15.7-9.5-24.8-9.5c-9,0-17.7,3.8-24.6,9.6
	c-7,5.8-12.5,13.2-16.7,21.3c-0.3,0.6-0.6,1.2-0.9,1.8c6.4,3.1,11.7,5.5,13.9,7.5c1.4,1.3,2.8,2.8,4.1,4.5
	C540.8,1632.3,543.4,1629.8,546.3,1627.6z"/>
<path fill="#E08199" d="M609.4,1624.8C609.4,1624.8,609.4,1624.7,609.4,1624.8c-0.2,0-0.3,0.1-0.3,0.1
	C609,1624.8,609.2,1624.8,609.4,1624.8z"/>
<path fill="#E08199" d="M521.3,1621.3c4.2-8.1,9.7-15.6,16.7-21.3c7-5.8,15.6-9.6,24.6-9.6c9-0.1,17.8,3.7,24.8,9.5
	s12.5,13.3,16.7,21.4c0,0.1,0.1,0.2,0.1,0.3c0.9-0.7,1.8-1.2,2.6-1.9c-4.5-8.2-10.2-15.9-17.7-21.9c-7.4-6-16.8-10-26.4-9.9
	c-9.8-0.1-19.1,3.8-26.5,9.8c-7.5,6-13.2,13.8-17.8,22.1c-0.3,0.7-0.6,1.2-1,1.9c1,0.5,2,1,3,1.5
	C520.8,1622.5,521,1621.9,521.3,1621.3z"/>
<path fill="#E08199" d="M615.7,1674.4c-0.2,18.3-4.2,36.7-12.7,52.6c-4.2,7.9-9.8,15.2-16.6,20.7c-6.8,5.5-15.1,9-23.6,8.9
	c-8.7,0.1-17-3.3-23.8-8.9c-6.9-5.5-12.4-12.8-16.6-20.8c-8.5-15.9-12.5-34.3-12.6-52.6c-0.1-14,1.9-28.2,6.6-41.3
	c-1.1-0.3-2.2-0.6-3.5-0.8c-5,13.4-7.4,27.8-7.5,42.2c-0.1,18.9,3.4,38,12.2,55.2c4.4,8.5,10.2,16.4,17.8,22.7
	c3.8,3.1,8,5.8,12.7,7.6c4.6,1.8,9.8,2.9,14.6,2.9c10.3,0.1,20-4.2,27.5-10.4c7.7-6.2,13.4-14.3,17.8-22.8
	c8.8-17.2,12.2-36.4,12.1-55.2l0,0c-0.2-14-2.4-28-7.2-41.2c-1.2,0.1-2.3,0.2-3.5,0.4C613.9,1646.7,615.8,1660.6,615.7,1674.4z"/>
<path fill="#E08199" d="M533,1674.6c0,5.4,0.6,10.7,1.9,15.9c1.1,5.1,2.8,10.2,5.3,14.8c2.4,4.6,5.6,8.8,9.4,12.1
	c3.9,3.2,8.5,5.2,13.4,5.2c4.8,0.1,9.6-1.8,13.7-4.8c4-3.1,7.4-7.3,10-11.9c5.2-9.4,7.7-20.3,7.8-31.3c0.2-10.8-1.8-21.9-6.7-31.7
	c-1.9,1.7-3.5,3.6-4.8,5.8c-9.2,16.8,1.1,22.8-1.6,28.2c-1.3,2.6-8.5,7.7-12.9-2.2c-4.4-12.9,6.2-29.4,15.5-38.2
	c-1.8-2.5-3.9-4.8-6.2-6.7c-4.2-3.4-9.5-5.5-14.8-5.4c-5.3,0-10.5,2.3-14.5,5.8c-2.8,2.4-5.2,5.4-7.1,8.6
	c9.2,13.3,16.3,32.5,15.2,37.4c0,0.2-4.8,8.9-11,2.2c-1.4-1.5-2.8-4.8-2.4-6.8c1.5-6.4,1.3-17.7-2.4-23.3c-0.8-1.2-1.7-2.4-2.5-3.4
	c-1.9,4.3-3.2,8.9-4,13.5C533.4,1663.9,533,1669.2,533,1674.6z"/>
<path fill="#AD4D6B" d="M527,1692.3c1.4,5.8,3.5,11.5,6.4,16.8c3,5.2,6.8,10.2,11.8,14c5,3.8,11.3,6.3,17.8,6.1
	c6.5,0,12.7-2.8,17.5-6.6c4.8-3.9,8.5-8.8,11.2-14c5.5-10.6,7.7-22.4,7.5-33.9l0,0c-0.2-11.6-2.9-23.2-8.6-33.3
	c0-0.1-0.2-0.2-0.2-0.3c-0.9,0.6-1.7,1.2-2.5,2c4.9,9.8,6.9,20.8,6.7,31.7c-0.2,10.9-2.7,21.9-7.9,31.2c-2.6,4.7-6,8.8-10,12
	c-4,3.1-8.8,4.9-13.7,4.8c-4.8-0.1-9.5-2.1-13.3-5.2c-3.9-3.2-7-7.4-9.4-12c-2.5-4.6-4.1-9.7-5.3-14.9c-1.2-5.2-1.8-10.5-1.9-15.8
	c-0.1-5.3,0.3-10.7,1.3-16c0.8-4.6,2.1-9.2,3.9-13.5c-1.3-1.6-2.8-2.9-4-3.9c-6,10-9,21.8-9.2,33.4
	C525,1680.5,525.7,1686.4,527,1692.3z"/>
<path fill="#AD4D6B" d="M548.5,1630.4c4-3.5,9.2-5.7,14.5-5.8c5.4-0.1,10.6,2,14.8,5.4c2.4,1.9,4.5,4.2,6.2,6.6
	c0.3-0.3,0.7-0.6,1-0.9c0.4-0.4,0.8-0.7,1.1-1c-2-2.5-4.2-4.8-6.8-6.8c-4.6-3.6-10.4-6-16.4-6c-6-0.2-11.9,2.2-16.7,5.7
	c-3,2.2-5.6,4.7-7.9,7.5c1,1.2,2,2.5,3,3.9C543.3,1635.9,545.7,1632.9,548.5,1630.4z"/>
<path fill="#F2D1D6" d="M512.8,1632.3c1.2,0.2,2.4,0.5,3.5,0.8c4.4,1.1,8.2,2.4,11.3,4c1.6,0.9,4,2,6.6,4.1c1.3,1,2.7,2.3,4,3.9
	c0.9,1,1.7,2.1,2.5,3.3c3.7,5.7,3.9,17,2.4,23.4c-0.5,1.9,1,5.2,2.3,6.8c6.2,6.8,11-2,11-2.2c1.2-5-6-24.1-15.2-37.4
	c-1-1.4-2-2.7-3-3.9c-1.3-1.7-2.7-3.2-4.1-4.5c-2.2-2.1-7.5-4.5-13.9-7.5c-1-0.4-2-0.9-3-1.4c-15.1-7.5-34.1-19-33.8-39.7
	c-4.5,25.5,11.5,33.2,25.5,39.8c-3-0.5-71.2-6.4-67-36.2C434.1,1624.4,483,1625.5,512.8,1632.3z"/>
<path fill="#F2D1D6" d="M586.1,1634.8c-0.4,0.3-0.8,0.6-1.1,1c-0.3,0.3-0.6,0.6-1,0.9c-9.2,8.8-19.9,25.2-15.5,38.2
	c4.5,9.9,11.7,4.8,12.9,2.2c2.8-5.5-7.5-11.5,1.6-28.2c1.2-2.2,2.9-4.1,4.8-5.8c0.8-0.7,1.6-1.3,2.5-1.9c5.5-3.9,12.6-6.2,19-7.2
	c1.2-0.2,2.4-0.4,3.5-0.5c0.2,0,0.5,0,0.7-0.1c17.2-1.6,61.5,1.8,65.2-44.9c-7,42.4-63.3,35-69.5,36.4c-0.1,0.1-0.2,0.1-0.3,0.1
	c0.1,0,0.2-0.1,0.3-0.1c11.6-5.5,18-18,16-40.5c-1.6,19.4-9.1,28.3-18.5,35.5c-0.9,0.7-1.7,1.3-2.6,1.9
	C598.5,1625.7,592.2,1629.5,586.1,1634.8z"/>
<path fill="#B2DBD7" d="M212.5,2187.4c-0.9-0.1-1.8-0.5-2.3-1.2l-15.1,28.2c1.1-0.3,2.2-0.6,3.3-0.7L212.5,2187.4z"/>
<path fill="#B2DBD7" d="M212.8,2187.4l13.2,26.2c1.1,0.1,2.1,0.2,3.2,0.4l-14-27.8C214.6,2186.9,213.8,2187.4,212.8,2187.4z"/>
<path fill="#62BFB8" d="M212.5,2187.4c0.1,0,0.1,0,0.2,0c0.1,0,0.1,0,0.1,0c0.9-0.1,1.8-0.5,2.3-1.2c0.4-0.6,0.7-1.2,0.7-1.9
	c0-1.8-1.4-3.2-3.2-3.2s-3.1,1.4-3.1,3.2c0,0.7,0.2,1.3,0.6,1.9C210.8,2186.9,211.6,2187.4,212.5,2187.4z"/>
<polygon fill="#AF5795" points="237.2,2289 236.8,2279.3 217.4,2278.7 217.6,2294.5 201.9,2294.8 201.6,2278.2 186.9,2277.7 
	187.9,2287.5 181.4,2288.2 181.4,2381.9 189.9,2383 189,2389.1 205.6,2387.8 205.4,2375.4 219,2375.1 219.1,2386.8 236.1,2385.5 
	235.3,2376.1 244.1,2375.4 244.1,2288.6 "/>
<path fill="#AF5795" d="M237.3,2400l-50.2,3.9l-0.9,7.3l-4.6-0.6v19.3c0,10.5,8.5,19,18.9,19h24.8c10.4,0,18.9-8.4,18.9-19v-21.6
	l-6.1,0.5L237.3,2400z"/>
<path fill="#AF5795" d="M185.6,2264.1l50.4,1.6l-0.8-14.3l8.9-0.4v-18.4c0-9.1-6.4-16.7-15-18.5c-1-0.2-2.1-0.4-3.2-0.4
	c-0.2,0-0.6-0.1-0.8-0.1h-24.8c-0.6,0-1.3,0.1-1.9,0.1c-1.1,0.1-2.2,0.4-3.4,0.7c-7.9,2.3-13.6,9.5-13.6,18.1v21.4l3.1-0.3
	L185.6,2264.1z"/>
<polygon fill="#D0A3C2" points="201.9,2294.8 217.6,2294.5 217.4,2278.7 201.6,2278.2 "/>
<polygon fill="#D0A3C2" points="219,2375.1 205.4,2375.4 205.6,2387.8 219.1,2386.8 "/>
<polygon fill="#E4CDDE" points="185.6,2264.1 186.9,2277.7 201.6,2278.2 217.4,2278.7 236.8,2279.3 236,2265.7 "/>
<polygon fill="#E4CDDE" points="237.3,2400 236.1,2385.5 219.1,2386.8 205.6,2387.8 189,2389.1 187.1,2403.9 "/>
<polygon fill="#76536D" points="236,2265.7 236.8,2279.3 237.2,2289 244.1,2288.6 254.8,2288 252.8,2250.4 244.1,2250.9 
	235.2,2251.4 "/>
<polygon fill="#76536D" points="186.9,2277.7 185.6,2264.1 184.6,2253.7 181.4,2254 166.2,2255.5 169.6,2289.3 181.4,2288.2 
	187.9,2287.5 "/>
<polygon fill="#76536D" points="236.1,2385.5 237.3,2400 238.1,2408.9 244.1,2408.4 252.9,2407.6 250.1,2374.8 244.1,2375.4 
	235.3,2376.1 "/>
<polygon fill="#76536D" points="187.1,2403.9 189,2389.1 189.9,2383 181.4,2381.9 174.9,2381 171.1,2409.2 181.4,2410.6 
	186.1,2411.2 "/>
<path fill="#8F4C7C" d="M663.2,1784.6l-6.2,295.1l183.2-5.5l4.4-289.6c0-50.1-31.8-92.9-82-92.9
	C712.5,1691.7,663.2,1734.5,663.2,1784.6z M830.8,2000.3l0.5,63.5l-20.7-1.1l-23.7-1.2l-16.8-0.9l-13-0.6l-39.7-2.1l-27.1-1.4
	L679,2056v-72.3l151.6-5.2L830.8,2000.3z M802,1966.9h-5.8h-52.7h-60.8v-16.2v-11.5V1929v-7.9v-28.7l144,9.7l1.3,64.8L802,1966.9
	L802,1966.9z M826.9,1881.9l-13-0.4l-7.9-0.2l-10.1-0.3l-5.7-0.2l-8.3-0.2l-8.3-0.2l-13.2-0.4l-17.1-0.5l-14.1-0.4l-13.5-0.4l-7-0.2
	l-5.7-0.2l-12.2-0.3l-11.8-0.3v-49.1v-14.9l147.8-7l0,23.7L826.9,1881.9z M754.8,1709.2c39.8,0,72,38.3,72,78.2
	c0,0.2-20.5,1.2-45.9,2.6c-18.5,0.9-39.6,2-57.5,2.9c-22.8,1.2-40.3,2-40.3,2C683.1,1744.5,715,1709.2,754.8,1709.2z"/>
<polygon fill="#BF7DAB" points="679,1813.5 679,1828.4 690.8,1828.4 690.8,1823.2 703.1,1823.2 703.1,1830.2 708.8,1830.2 
	715.8,1830.2 715.8,1823.2 729.3,1823.2 729.3,1830.2 743.4,1830.2 743.4,1827.7 760.5,1827.7 760.5,1830.2 773.7,1830.2 
	773.7,1835 782,1835 782,1827.7 790.3,1827.7 790.3,1830.2 796,1830.2 796,1816.2 806,1816.2 806,1828.4 814,1828.4 814,1830.2 
	826.8,1830.2 826.8,1806.5 "/>
<polygon fill="#88CEB9" points="790.3,1830.2 790.3,1880.8 790.3,1880.8 796,1881 796,1830.2 "/>
<polygon fill="#83ADA1" points="806,1828.4 806,1816.2 796,1816.2 796,1830.2 796,1881 806,1881.3 806,1881.3 "/>
<polygon fill="#6B9385" points="679,1828.4 679,1877.5 690.8,1877.9 690.8,1828.4 "/>
<polygon fill="#88CEB9" points="703.1,1823.2 690.8,1823.2 690.8,1828.4 690.8,1877.9 703.1,1878.2 703.1,1830.2 "/>
<polygon fill="#83ADA1" points="708.8,1830.2 703.1,1830.2 703.1,1878.2 708.8,1878.4 708.8,1878.4 "/>
<polygon fill="#88CEB9" points="708.8,1830.2 708.8,1878.4 708.8,1878.4 715.8,1878.6 715.8,1830.2 "/>
<polygon fill="#498271" points="729.3,1823.2 715.8,1823.2 715.8,1830.2 715.8,1878.6 729.3,1879 729.3,1830.2 "/>
<polygon fill="#83ADA1" points="729.3,1830.2 729.3,1879 743.4,1879.4 743.4,1830.2 "/>
<polygon fill="#B7E0D2" points="760.5,1827.7 743.4,1827.7 743.4,1830.2 743.4,1879.4 760.5,1879.9 760.5,1830.2 "/>
<polygon fill="#88CEB9" points="773.7,1830.2 760.5,1830.2 760.5,1879.9 773.7,1880.3 773.7,1835 "/>
<polygon fill="#83ADA1" points="782,1835 773.7,1835 773.7,1880.3 782,1880.6 782,1880.6 "/>
<polygon fill="#B7E0D2" points="790.3,1830.2 790.3,1827.7 782,1827.7 782,1835 782,1880.6 782,1880.6 790.3,1880.8 790.3,1880.8 
	"/>
<polygon fill="#B7E0D2" points="814,1828.4 806,1828.4 806,1881.3 806,1881.3 814,1881.5 814,1830.2 "/>
<polygon fill="#498271" points="814,1881.5 826.9,1881.9 826.8,1830.2 814,1830.2 "/>
<polygon fill="#BF7DAB" points="753,1939.2 741.3,1939.2 741.3,1950.7 743.5,1950.7 743.5,1966.9 796.2,1966.9 753,1929 "/>
<polygon fill="#BF7DAB" points="682.8,1892.4 682.8,1921.1 733.8,1921.1 733.8,1929 752.9,1929 745,1922.1 752.2,1913.8 
	806.7,1961.6 802,1966.9 828,1966.9 826.8,1902 "/>
<polygon fill="#B7E0D2" points="741.3,1950.7 682.8,1950.7 682.8,1966.9 743.5,1966.9 743.5,1950.7 "/>
<rect x="682.8" y="1939.2" fill="#88CEB9" width="58.6" height="11.5"/>
<polygon fill="#8BA79D" points="753,1939.2 753,1929 752.9,1929 733.8,1929 682.8,1929 682.8,1939.2 741.3,1939.2 "/>
<rect x="682.8" y="1921.1" fill="#B7E0D2" width="51" height="7.9"/>
<polygon fill="#B7E0D2" points="752.2,1913.8 745,1922.1 752.9,1929 753,1929 796.2,1966.9 802,1966.9 806.7,1961.6 "/>
<path fill="#BF7DAB" d="M679,2055.9l11.4,0.6l8.2-43.7l5.6,1.5c0.2-1.1,0.4-2.2,0.5-3.2c0.3-2.8,0.8-6.2-0.3-8.9
	c-0.5-1.2-1-2.3-2-3.1c-2.3-2.1-5-1.8-8,0.9c0.5,0.6,0.9,1.2,1.3,1.8c0-0.9,2.5-1.4,2.5-0.7c0,0.3,0,0.6,0,0.9
	c0,0.3-0.3,0.6-0.8,0.8c-1.5,1.8-5,2.8-5.5,0.2c-0.9-5,4.1-6.9,8.4-6.8c6.5,0.2,7.8,5.9,7.2,12.3c2.2-2.6,8-6.8,11.3-4
	c4.2,3.7,2.7,10.8,2.1,15.6c-0.1,1.1-0.2,12,3.7,7.6c1-1.2,1.6-2.8,1-4.3c-1-2.2-0.8-0.1-1.2,1.4c-0.2,0.7-2.7,1.1-2.5,0.5
	c0.5-2.3,1.2-3.8,3.6-4.3c1.8-0.3,2.9,1.5,2.8,3.1c-0.2,3.2-6.8,8.4-9.2,4.4c-3.7-5.8,1.8-14.2-1-20.7c-3.5-7.6-9.7,2.3-11.5,7.2
	l3.2,0.8l7.8,42.1l39.7,2.1v-55.7h13v-9.8H787v7.6h23.7v-1.7h20.2l-0.2-22l-151.7,5.2L679,2055.9L679,2055.9z"/>
<path fill="#586863" d="M718.1,2007.7c2.9,6.4-2.5,14.8,1,20.7c2.5,4,9.1-1.2,9.2-4.5c0-1.6-1.1-3.4-2.8-3c-2.4,0.5-3,1.9-3.6,4.3
	c-0.2,0.6,2.3,0.2,2.5-0.4c0.3-1.5,0.2-3.7,1.2-1.4c0.6,1.5,0,3.2-1,4.3c-3.9,4.5-3.8-6.5-3.7-7.6c0.5-4.8,2.1-11.9-2.1-15.5
	c-3.3-3-9.1,1.4-11.3,3.9c0.5-6.4-0.7-12-7.2-12.3c-4.3-0.2-9.3,1.7-8.4,6.8c0.5,2.6,4,1.7,5.5-0.2c0.5-0.2,0.8-0.5,0.8-0.8
	c0-0.3,0-0.6,0-0.9c0-0.7-2.5-0.2-2.5,0.7c-0.5-0.6-0.9-1.2-1.3-1.8c3-2.8,5.8-3.1,8-1c1,0.8,1.5,2,2,3.1c1.1,2.8,0.7,6.1,0.3,8.9
	c-0.2,1.1-0.3,2.2-0.5,3.2l2.3,0.6C708.5,2010,714.7,2000.1,718.1,2007.7z"/>
<polygon fill="#E5F3ED" points="706.5,2014.9 704.2,2014.3 698.6,2012.8 690.3,2056.5 717.5,2057.9 709.7,2015.8 "/>
<polygon fill="#59786D" points="787,1994.4 770.1,1994.4 770.1,2004.3 770.1,2060.6 787,2061.5 787,2002 "/>
<polygon fill="#88CEB9" points="810.7,2002 810.7,2062.7 831.3,2063.8 830.8,2000.3 810.7,2000.3 "/>
<polygon fill="#B7E0D2" points="787,2002 787,2061.5 810.7,2062.7 810.7,2002 "/>
<polygon fill="#88CEB9" points="757.2,2004.3 757.2,2060 770.1,2060.6 770.1,2004.3 "/>
<path fill="#BF7DAB" d="M723.4,1792.8c-6.8-6.9-11-16.4-11-26.9c0-21.2,17.2-38.5,38.5-38.5s38.5,17.2,38.5,38.5
	c0,9.1-3.2,17.5-8.5,24c25.5-1.3,45.9-2.4,45.9-2.5c0-39.8-32.2-78.2-72-78.2c-39.8,0-71.7,35.2-71.7,85.6
	C683.1,1794.8,700.6,1794,723.4,1792.8z"/>
<path fill="#E5F3ED" d="M741.3,1779l-20.5,1L741.3,1779z"/>
<path fill="#E5F3ED" d="M745.7,1778.7h0.6H745.7z"/>
<path fill="#E5F3ED" d="M750.8,1727.5c-21.2,0-38.5,17.2-38.5,38.4c0,10.5,4.2,20,11,26.9c17.8-0.9,39-2,57.5-2.9
	c5.3-6.6,8.5-14.9,8.5-24C789.3,1744.7,772.1,1727.5,750.8,1727.5z M780.7,1767.9c0,3.2-0.5,6.2-1.3,9.1
	c-3.9,12.8-16.4,11.6-30.5,11.6c-13,0-23.4,2.5-28.1-8.7c-1.5-3.7-2.5-7.8-2.5-12.1c0-17.2,14-31.2,31.2-31.2c3,0,6,0.4,8.8,1.2
	c3-3,10-1.1,15.8,4.3c5.9,5.5,8.2,12.5,5.3,15.7c-0.1,0.1-0.2,0.2-0.3,0.2C780.2,1761.3,780.7,1764.5,780.7,1767.9z"/>
<path fill="#CEE9E0" d="M763.5,1753.8c-5.9-5.5-8.2-12.5-5.3-15.7c0,0,0.1,0,0.2-0.1c-2.8-0.8-5.7-1.2-8.8-1.2
	c-17.2,0-31.2,14-31.2,31.2c0,4.3,0.8,8.4,2.5,12.1l20.5-1c0.3-2.2-0.5-5.4-1-6.7c-1-2.7-2.5-5.5-5.5-6.4c-2-0.6-7.9-1.8-8.7,1.2
	c-0.4,1.6,0.4,3.9,1.7,5c2,1.7,3-1.3,0.2-1.5c-2.5-0.1,0.3-2,1.5-1.9c2.4,0.1,5.8,1.2,3.4,3.9c-1.7,2-5,2.6-7.4,1.7
	c-2.5-0.9-4.2-5-2.8-7.3c1.2-2.2,4.5-3.1,6.8-3.3c6.3-0.7,11.8,0.8,14.3,7.2c0.3,0.8,0.7,1.8,0.9,2.8c1.5-3.8,1.5-7.8-2.5-11.4
	c-2.2-2-5.2-3.3-6.5-6.1c-2.1-3.9,2.9-9.8,5.8-12c3.8-3,7.8-3.3,9.6,1.8c1.3,3.7-3.7,6.1-6.3,4.8c-1.1-0.5-0.3-1.4,0.8-1.9
	c-1-2.8-2.2-3.2-3.3-1.3c-0.7,0.8-1.2,1.6-1.8,2.4c-1.2,2.6-2,5,0.6,6.8c1.3,1,2.5,1.9,3.7,3c1.3-1.6,3.8-2.6,5.9-3.1
	c3.3-0.7,10.8-2,12.5,2.2c1.8,4.5-0.4,9.4-5.5,9.3c-0.5,0-1.2-0.2-1.2-0.8c0.2-1.7,0.7-2.7,1.8-3.9c0.3-0.3,1-0.5,1.7-0.7
	c-0.3-1.7-1-3.4-1.3-3.8c-1.7-1.5-5.5-1-7.5-0.5c-7.1,1.8-1.7,5.8,1.5,8c3.7,2.5,2.6,7,0,10.2c-0.7,0.8-1.3,1.5-2.1,2.1l28.8-1.4
	c0.9-2.9,1.3-6,1.3-9.1c0-3.4-0.5-6.7-1.5-9.7C776,1761,769.2,1759.1,763.5,1753.8z"/>
<path fill="#CEE9E0" d="M751,1772.4c0.3-1.4,0.3-2.9-1-3.9c-0.1-0.1-0.2-0.2-0.3-0.2c0.2,3.7-1.8,7.3-4.1,10.5l0.7-0.1h0.2
	C748.8,1777.3,750.5,1775,751,1772.4z"/>
<path fill="#FFFFFF" d="M774.1,1742.3c-5.8-5.4-12.8-7.3-15.8-4.3c9.8,2.9,17.7,10.5,20.8,20.2c0.1-0.1,0.2-0.2,0.3-0.2
	C782.4,1754.8,780,1747.8,774.1,1742.3z"/>
<path fill="#E5F3ED" d="M758.2,1738c0,0.1-0.1,0.1-0.2,0.1c-3,3.2-0.5,10.2,5.3,15.7c5.7,5.3,12.5,7.2,15.7,4.5
	C776,1748.5,768.1,1740.9,758.2,1738z"/>
<path fill="#498271" d="M745.7,1778.7L745.7,1778.7c2.3-3.2,4.3-6.8,4.1-10.5c0.1,0.1,0.2,0.2,0.3,0.2c1.2,1,1.2,2.4,1,3.9
	c-0.5,2.7-2.3,5-4.6,6.3l4-0.2c0.8-0.6,1.5-1.3,2.1-2.1c2.6-3.1,3.7-7.7,0-10.2c-3.2-2.2-8.6-6.1-1.5-8c2-0.5,5.8-1,7.5,0.5
	c0.4,0.3,1,2.2,1.3,3.8c-0.7,0.1-1.4,0.3-1.7,0.7c-1.1,1.2-1.6,2.2-1.8,3.9c0,0.7,0.7,0.8,1.2,0.8c5.2,0.2,7.4-4.8,5.5-9.3
	c-1.8-4.2-9.2-2.9-12.5-2.2c-2.2,0.5-4.6,1.5-5.9,3.1c-1.2-1.1-2.3-2-3.7-3c-2.6-1.9-1.8-4.3-0.6-6.8c0.5-0.8,1.2-1.7,1.8-2.4
	c1.1-1.8,2.2-1.4,3.3,1.3c-1.2,0.5-2,1.4-0.8,1.9c2.7,1.2,7.7-1.2,6.3-4.8c-1.8-5-5.8-4.8-9.6-1.8c-2.8,2.2-7.8,8.1-5.8,12
	c1.5,2.7,4.4,4.1,6.5,6.1c4,3.7,4,7.7,2.5,11.4c-0.2-0.9-0.5-1.9-0.9-2.8c-2.5-6.3-8-7.8-14.3-7.2c-2.3,0.2-5.5,1.2-6.8,3.3
	c-1.3,2.4,0.3,6.4,2.8,7.3c2.3,0.9,5.7,0.3,7.4-1.7c2.3-2.8-1-3.8-3.4-3.9c-1.2-0.1-4.1,1.8-1.5,1.9c3,0.2,1.9,3.2-0.2,1.5
	c-1.3-1.1-2.1-3.3-1.7-5c0.8-3,6.7-1.8,8.7-1.2c3,0.9,4.4,3.7,5.5,6.4c0.5,1.2,1.3,4.5,1,6.7l0,0L745.7,1778.7z"/>
<path fill="#ADBFB7" d="M746.5,1778.7h-0.2l-0.7,0.1l-4.3,0.2l-20.5,1.1c4.7,11.2,15.2,8.7,28.1,8.7c14,0,26.5,1.2,30.5-11.6
	l-28.8,1.4L746.5,1778.7z"/>
<path fill="#E08199" d="M516,2628.9l4,61.6l12.5-1.4c0.2-1.9,0.6-3.9,1-5.8c-5-1.1-8.7-5.6-8.7-10.9c0-6.1,5-11.1,11.1-11.1
	c6.1,0,11.1,5,11.1,11.1c0,5.2-3.7,9.7-8.6,10.8c-0.4,1.7-0.7,3.4-1,5.2l17.1-1.9l-2.7-54.6L516,2628.9z M533.2,2657.1
	c-5.1,0-9.2-4.2-9.2-9.2c0-5.1,4.2-9.2,9.2-9.2c5.1,0,9.2,4.1,9.2,9.2C542.5,2653,538.3,2657.1,533.2,2657.1z"/>
<path fill="#984455" d="M533.2,2638.7c-5.1,0-9.2,4.1-9.2,9.2c0,5.1,4.2,9.2,9.2,9.2c5.1,0,9.2-4.2,9.2-9.2
	C542.5,2642.8,538.3,2638.7,533.2,2638.7z"/>
<path fill="#DCC1C2" d="M547,2672.5c0-6.1-5-11.1-11.1-11.1c-6.2,0-11.1,5-11.1,11.1c0,5.3,3.8,9.8,8.7,10.9c-0.5,1.9-0.8,3.8-1,5.8
	c-2.4,17,1.9,34.9-4.6,51.7c-4.9,12.7-14.2,24.5-26.6,30.4c-9.5,4.6-19.1,2.9-26.4-2.4l0.3,4.8c6.2,2.6,13.5,3.2,20.8,2.1
	c16.6-2.8,28.6-17.9,35.6-32.1c8.7-17.7,3.5-36.8,6.1-55c0.2-1.8,0.5-3.4,1-5.2C543.4,2682.2,547,2677.8,547,2672.5z"/>
<path fill="#E08199" d="M466,2623.8l-321-5.6l5.6,196.2l326.8-4.8l-2.2-36.1l-0.3-4.8L466,2623.8z M161.5,2640.3l290.5-9.2
	l5.1,162.8l-290.5,9.2L161.5,2640.3z M450.9,2805.8c-4,0-7.4-1.7-7.4-3.9c0-2.1,3.3-3.8,7.4-3.8s7.4,1.7,7.4,3.8
	C458.2,2804,454.9,2805.8,450.9,2805.8z"/>
<polygon fill="#753743" points="451.9,2631.1 161.5,2640.3 166.6,2803.1 457.1,2793.9 "/>
<path fill="#AD4D6B" d="M450.9,2798.1c-4,0-7.4,1.7-7.4,3.8c0,2.1,3.3,3.9,7.4,3.9s7.4-1.7,7.4-3.9
	C458.2,2799.8,454.9,2798.1,450.9,2798.1z"/>
<path fill="#D7EBE9" d="M300.7,2101.7l-3.4-2.7l-2.9,4l-5-15.5c-0.4,0.1-0.8,0.2-1.2,0.2c-0.4,0-0.8-0.1-1.2-0.1l-5,15.5l-2.9-4
	l-3.4,2.7l6-16.1c-2.8-2-4.6-5.2-4.6-8.9c0-0.2,0-0.4,0-0.7l-4.8-2.9v32.1l31.6-1v-12l-8.9-5.4L300.7,2101.7z"/>
<path fill="#D7EBE9" d="M263.6,2092.2l-9-5.4l5.6,14.9l-3.4-2.7l-2.9,4l-5-15.4c-0.4,0.1-0.8,0.2-1.2,0.2c-0.4,0-0.8-0.1-1.2-0.1
	l-4.9,15.5l-2.9-4l-3.3,2.7l6-16.1c-2.8-2-4.6-5.2-4.6-8.9c0-0.2,0-0.4,0-0.7l-4.9-2.9v33.3l31.6-0.9V2092.2L263.6,2092.2z"/>
<path fill="#D7EBE9" d="M247.8,2065.7c6.1,0,11,4.9,11,11c0,0.6-0.1,1.1-0.2,1.6l5,2.7v-25h9v7.9l8.5,4.6c2-1.7,4.5-2.8,7.2-2.8
	c6.1,0,11,4.9,11,11c0,0.6-0.1,1.1-0.2,1.6l5,2.7v-26.2h-16.4v-13.1l-8.9-5.4l5.5,14.9l-3.4-2.7l-2.8,3.9l-5-15.4
	c-0.4,0.1-0.8,0.2-1.2,0.2c-0.4,0-0.8-0.1-1.2-0.1l-5,15.4l-2.9-3.9l-3.4,2.7l6-16.1c-2.8-2-4.6-5.2-4.6-8.9c0-0.2,0-0.4,0-0.7
	l-4.8-2.9v32.2H232v9l8.5,4.7C242.4,2066.8,244.9,2065.7,247.8,2065.7z"/>
<path fill="#D7EBE9" d="M271.9,2015.3c6.1,0,11,4.9,11,11c0,0.5,0,1.2-0.1,1.7l5,2.7v-26.2h-31.6v9l8.5,4.7
	C266.6,2016.3,269.1,2015.3,271.9,2015.3z"/>
<path fill="#85163E" d="M278.3,2035.1l0.5,1.2l8.9,5.4v-11.1l-5-2.7C282.2,2030.9,280.6,2033.4,278.3,2035.1z"/>
<path fill="#85163E" d="M264.6,2018.1l-8.5-4.7v9.2l4.9,2.9C261.1,2022.6,262.5,2019.9,264.6,2018.1z"/>
<path fill="#1DB3A9" d="M282.7,2027.9c0.1-0.5,0.1-1.1,0.1-1.7c0-6-4.9-10.9-10.9-10.9c-2.8,0-5.4,1-7.2,2.8
	c-2.1,1.8-3.5,4.6-3.6,7.6c0,0.2-0.1,0.4-0.1,0.7c0,3.7,1.8,6.9,4.6,8.9l-6,16.1l3.4-2.7l2.9,4l4.9-15.5c0.4,0,0.8,0.1,1.2,0.1
	c0.5,0,0.9-0.1,1.2-0.2l5,15.5l2.9-4l3.4,2.7l-5.5-14.8l-0.5-1.2C280.6,2033.4,282.2,2030.9,282.7,2027.9z"/>
<path fill="#85163E" d="M294.7,2085.5l0.4,1.2l9,5.4v-11.1l-5-2.7C298.6,2081.3,297,2083.9,294.7,2085.5z"/>
<path fill="#85163E" d="M277.4,2076c0.2-3,1.6-5.6,3.6-7.5l-8.5-4.7v9.2L277.4,2076z"/>
<path fill="#1DB3A9" d="M277.4,2076c0,0.2-0.1,0.5-0.1,0.7c0,3.6,1.8,6.9,4.6,8.9l-6,16.1l3.4-2.7l2.8,4l5-15.5
	c0.4,0.1,0.8,0.1,1.2,0.1c0.5,0,0.9-0.1,1.2-0.2l5,15.5l2.9-4l3.4,2.7l-5.5-14.9l-0.5-1.2c2.3-1.7,4-4.2,4.4-7.2
	c0.1-0.6,0.1-1.1,0.1-1.6c0-6.1-4.9-11-11-11c-2.8,0-5.3,1.1-7.2,2.8C279,2070.4,277.6,2073,277.4,2076z"/>
<path fill="#85163E" d="M240.4,2068.5l-8.5-4.6v9.2l4.9,2.9C237,2073,238.4,2070.4,240.4,2068.5z"/>
<path fill="#85163E" d="M258.5,2078.4c-0.4,2.9-2.1,5.5-4.4,7.2l0.5,1.2l8.9,5.4v-11.1L258.5,2078.4z"/>
<path fill="#1DB3A9" d="M258.5,2078.4c0.1-0.6,0.2-1.1,0.2-1.7c0-6-4.9-10.9-11-10.9c-2.8,0-5.3,1.1-7.3,2.8
	c-2.1,1.8-3.5,4.6-3.7,7.6c0,0.2-0.1,0.4-0.1,0.6c0,3.7,1.8,6.9,4.6,8.9l-6,16.1l3.3-2.6l2.8,3.9l5-15.4c0.4,0,0.8,0.1,1.2,0.1
	c0.5,0,0.9-0.1,1.2-0.1l5,15.4l2.9-3.9l3.3,2.6l-5.5-14.8l-0.4-1.2C256.5,2083.9,258.1,2081.3,258.5,2078.4z"/>
<path fill="#A78799" d="M401.2,2036c0,0.8-1.3,1.7-3.5,2.4v63l79.5-2.4v-81c-7.8,2.5-24.8,4.3-44.5,4.3c-16.6,0-31.3-1.2-40.1-3.2
	v13.2C398,2033.3,401.2,2034.6,401.2,2036z M435.2,2030.6c12.2,0,22.1,12.8,22.1,28.6c0,15.8-9.9,28.6-22.1,28.6
	s-22.1-12.8-22.1-28.6C413.1,2043.3,423,2030.6,435.2,2030.6z"/>
<path fill="#875E77" d="M477.3,2018c2.9-0.9,4.5-2,4.5-3.2c0-3.7-17.6-6.8-40.8-7.4c-1.5,3-4.9,5-8.9,5c-4,0-7.4-2-8.9-4.9
	c-22.5,0.7-39.4,3.7-39.4,7.3c0,1.6,3.2,3,8.9,4.3c8.8,2,23.5,3.2,40.1,3.2C452.5,2022.3,469.5,2020.6,477.3,2018z"/>
<path fill="#CBBAC4" d="M432.2,2012.5c4,0,7.5-2.1,8.9-5c0.5-1,0.8-2,0.8-3.1c0-4.4-4.3-8-9.6-8c-5.3,0-9.6,3.6-9.6,8
	c0,1.1,0.2,2.2,0.8,3.1C424.8,2010.4,428.2,2012.5,432.2,2012.5z"/>
<path fill="#8F4C7C" d="M397.8,2038.4c-6,2-19,3.3-34.2,3.3c-12.8,0-24.1-1-30.9-2.4v64.1l65.1-2V2038.4z M378.2,2085.3
	c-0.5,5.6-8.4,9.4-17.4,8.4c-9-0.9-15.9-6.2-15.2-11.8c0.4-3.8,4.1-6.8,9.4-8c-0.5-2.8-0.7-6.8-0.2-11.2c0.9-8.2,3.4-14.7,5.7-14.4
	c2.3,0.2,3.5,7.1,2.6,15.3c-0.4,3.8-1.1,7.2-2.1,9.7c0.6,0,1.2,0.1,1.9,0.1c1.1,0.1,2.3,0.3,3.4,0.6c-0.4-2.7-0.4-6.2,0-10.1
	c0.8-8.2,3.4-14.7,5.7-14.4s3.5,7.1,2.6,15.3c-0.5,4.7-1.5,8.7-2.7,11.4C376.1,2078.5,378.6,2081.8,378.2,2085.3z"/>
<path fill="#D0A3C2" d="M397.8,2038.4c2.2-0.8,3.5-1.5,3.5-2.4c0-1.4-3.2-2.7-8.5-3.7c-5-0.9-11.9-1.6-19.7-1.9
	c-0.9,3.2-3.7,5.6-7,5.6s-6.2-2.4-7-5.7c-18.6,0.3-33.1,2.8-33.1,5.7c0,1.2,2.5,2.3,6.8,3.3c6.8,1.5,18.1,2.5,30.9,2.5
	C378.7,2041.7,391.8,2040.4,397.8,2038.4z"/>
<path fill="#8F4C7C" d="M366,2036c3.3,0,6.1-2.3,7-5.6c0.2-0.8,0.4-1.5,0.4-2.3c0-4.3-3.3-7.9-7.4-7.9c-4.1,0-7.4,3.6-7.4,7.9
	c0,0.8,0.1,1.5,0.3,2.2C359.9,2033.6,362.6,2036,366,2036z"/>
<path fill="#E4CDDE" d="M372,2076.2c1.2-2.7,2.2-6.7,2.7-11.4c0.9-8.2-0.4-15.1-2.6-15.3s-4.9,6.2-5.7,14.4
	c-0.4,3.9-0.3,7.4,0.1,10.1c-1.1-0.2-2.2-0.4-3.4-0.6c-0.6,0-1.2-0.1-1.9-0.1c0.9-2.6,1.6-5.9,2.1-9.7c0.9-8.2-0.4-15-2.6-15.3
	c-2.3-0.2-4.9,6.2-5.7,14.4c-0.4,4.3-0.3,8.3,0.2,11.2c-5.2,1.2-9,4.1-9.4,8c-0.5,5.6,6.2,10.8,15.2,11.8c9,0.9,16.8-2.8,17.4-8.4
	C378.6,2081.8,376.1,2078.5,372,2076.2z"/>
<polygon fill="#62BFB8" points="530.3,2097.4 477.3,2099 397.8,2101.4 332.6,2103.4 304.1,2104.2 272.5,2105.2 263.6,2105.5 
	231.9,2106.4 166,2108.4 166.9,2138 531.2,2126.9 "/>
<path fill="#FFFFFF" d="M435.2,2087.6c12.2,0,22.1-12.8,22.1-28.6s-9.9-28.6-22.1-28.6s-22.1,12.8-22.1,28.6
	C413.1,2074.9,423,2087.6,435.2,2087.6z"/>
<path fill="#84C9C4" d="M601,2636.2l-3.9,215.4l185.4,1.7l38.8-224.6L601,2636.2z M785.2,2762.9c-1.7-0.2-2.3-8.1-1.5-17.7
	c0.9-9.6,3-17.1,4.8-16.9s2.3,8.2,1.5,17.7C789,2755.5,786.8,2763.1,785.2,2762.9z"/>
<path fill="#84C9C4" d="M793.1,2853.4l206.5,1.9l13.9-233.1l-187,6.3L793.1,2853.4z M829.4,2739.1c2.2,0.4,2.5,8.3,1,17.6
	s-4.7,16.4-6.8,15.9c-2.2-0.4-2.5-8.3-1-17.6C824.2,2745.8,827.2,2738.6,829.4,2739.1z"/>
<path fill="#487B76" d="M597,2628.4l-3.8,0.1l0,3.8l-4.1,227.1l417.9,11.9l7.9,0.2l0.2-7.9l6.5-245.3l0.1-4.2l-4.2,0.1L597,2628.4z
	 M597,2851.6l3.9-215.5l220.3-7.4l-38.8,224.6L597,2851.6z M999.5,2855.4l-206.5-1.9l33.3-224.9l187-6.3L999.5,2855.4z"/>
<path fill="#487B76" d="M788.5,2728.2c-1.7-0.2-3.8,7.3-4.8,16.9c-0.9,9.6-0.2,17.5,1.5,17.7s3.8-7.4,4.8-16.9
	C790.8,2736.4,790.2,2728.4,788.5,2728.2z"/>
<path fill="#487B76" d="M823.6,2772.7c2.2,0.4,5.2-6.6,6.8-15.9s1.2-17.2-1-17.6c-2.2-0.4-5.2,6.6-6.8,15.9
	C821,2764.4,821.5,2772.2,823.6,2772.7z"/>
<polygon fill="#88CEB9" points="876,1745.5 915.8,1744.5 915.8,1712.5 876.3,1711.9 "/>
<path fill="#498271" d="M873.8,1706.7l-2.6,0l0,2.6l0.4,38.4v2.1l2.2,0.1l48.5,1.2v-41.8v-3.4l-3.3,0.1L873.8,1706.7z M915.8,1744.5
	l-39.8,1l0.3-33.6l39.4,0.6L915.8,1744.5L915.8,1744.5z"/>
<polygon fill="#88CEB9" points="976.3,1798.9 975,1727.6 934.1,1726.6 935.2,1797.8 "/>
<path fill="#498271" d="M980.2,1802.9l1.3-78.5l0-3.4l-3.3,0.1l-46.3,1.2l-2,0.1l0,2l-1.2,76.6l0,3.4l3.3-0.1L980.2,1802.9z
	 M975,1727.6l1.2,71.3l-41-1.2l-1.2-71.2L975,1727.6z"/>
<polygon fill="#88CEB9" points="889.7,1848.5 913,1848.5 914.2,1769.4 888.2,1769.2 "/>
<path fill="#498271" d="M918.2,1767.4l0-2h-2l-29.8,0.2h-1.7l0,1.8l-1.5,84.4l0,3.3h3.3h33.1L918.2,1767.4z M913,1848.5h-23.3
	l-1.5-79.4l26,0.2L913,1848.5z"/>
<polygon fill="#88CEB9" points="1010.8,1820 935.8,1820 934.6,1879.8 1010.8,1878.7 "/>
<path fill="#498271" d="M929.2,1813.5l0,3.3l1.2,65.2l0,2l2,0.1l84.8,1.3v-68.5v-3.3h-3.3h-81.6H929.2z M935.8,1820h75v58.6
	l-76.2,1.2L935.8,1820z"/>
<rect x="880.8" y="1869.1" fill="#88CEB9" width="26.9" height="47.8"/>
<path fill="#498271" d="M874.2,1923.5h40v-61h-40V1923.5z M880.8,1869.1h26.9v47.8h-26.9V1869.1z"/>
<polygon fill="#88CEB9" points="996,1918.3 994.8,1896.2 926.2,1894.5 927.8,1916.9 "/>
<path fill="#498271" d="M921.2,1923.5l3.5-0.1l74.9-1.5l1.6-28.9l0.2-3.3l-3.5,0.1l-73.2,1.8l-1.4,0l-0.1,1.5l-1.8,27.2
	L921.2,1923.5z M994.8,1896.2l1.2,22.2l-68.2-1.4l-1.5-22.5L994.8,1896.2z"/>
<polygon fill="#88CEB9" points="889.6,1945.6 889.1,1964.3 943,1964.3 942.4,1945.6 "/>
<path fill="#498271" d="M948.8,1942.4l0.1-3.3h-3.4h-59.2H883l0.1,3.3l0.7,24.5l0,2.6h2.5H948L948.8,1942.4z M889.1,1964.3l0.5-18.7
	h52.8l0.5,18.7L889.1,1964.3z"/>
<path fill="#B2DBD7" d="M428.9,1956.6l50.7,0.8c-0.1-1.9-0.1-3.8-0.1-5.7c0-68,49.5-124.4,114.5-135.1H432.4L428.9,1956.6z
	 M437,1953.4c-1.1,0-2-0.9-2-2s0.9-2,2-2s2,0.9,2,2S438.1,1953.4,437,1953.4z M436.9,1819.3c1.4,0,2.5,1.1,2.5,2.5
	c0,1.3-1.1,2.4-2.5,2.4s-2.5-1.1-2.5-2.4C434.5,1820.4,435.5,1819.3,436.9,1819.3z"/>
<path fill="#D7EBE9" d="M479.5,1951.8c0,1.9,0,3.8,0.1,5.7v0l161.2,2.8l-2.8-143.5h-33.5H594C529,1827.4,479.5,1883.8,479.5,1951.8z
	 M633.8,1954c0.8,0,1.3,0.6,1.3,1.3c0,0.8-0.6,1.3-1.3,1.3s-1.3-0.6-1.3-1.3C632.5,1954.6,633,1954,633.8,1954z M630.4,1821.4
	c1,0,1.8,0.8,1.8,1.8c0,1-0.8,1.8-1.8,1.8c-1,0-1.9-0.8-1.9-1.8C628.5,1822.2,629.4,1821.4,630.4,1821.4z"/>
<path fill="#70928F" d="M436.9,1824.2c1.4,0,2.5-1.1,2.5-2.4s-1.1-2.5-2.5-2.5s-2.5,1.1-2.5,2.5
	C434.5,1823.1,435.5,1824.2,436.9,1824.2z"/>
<path fill="#70928F" d="M630.4,1825.1c1,0,1.8-0.8,1.8-1.8c0-1-0.8-1.8-1.8-1.8c-1,0-1.9,0.8-1.9,1.8
	C628.5,1824.2,629.4,1825.1,630.4,1825.1z"/>
<path fill="#70928F" d="M437,1949.4c-1.1,0-2,0.9-2,2s0.9,2,2,2s2-0.9,2-2S438.1,1949.4,437,1949.4z"/>
<path fill="#70928F" d="M633.8,1956.6c0.8,0,1.3-0.6,1.3-1.3c0-0.8-0.6-1.3-1.3-1.3s-1.3,0.6-1.3,1.3
	C632.5,1956,633,1956.6,633.8,1956.6z"/>
</svg>
