<?xml version="1.0" encoding="utf-8"?>
<!-- Generator: Adobe Illustrator 15.0.2, SVG Export Plug-In  -->
<!DOCTYPE svg PUBLIC "-//W3C//DTD SVG 1.1//EN" "http://www.w3.org/Graphics/SVG/1.1/DTD/svg11.dtd" [
	<!ENTITY ns_flows "http://ns.adobe.com/Flows/1.0/">
]>
<svg version="1.1"
	 xmlns="http://www.w3.org/2000/svg" xmlns:xlink="http://www.w3.org/1999/xlink" xmlns:a="http://ns.adobe.com/AdobeSVGViewerExtensions/3.0/"
	 x="0px" y="0px" width="800px" height="3000px" viewBox="0 0 800 3000" overflow="visible" enable-background="new 0 0 800 3000"
	 xml:space="preserve">
<defs>
</defs>
<path d="M0,0v3000h800V0H0z M396.7,1111.7c178.1-10,240.8-46.3,260-64.7c1.8-2.8,6-12,0,0c-102.4,153.9-479.6,125.7-527.6,14.3
	C132.1,964.7,245.8,1120.1,396.7,1111.7z M665,2225.7c-94,163.4-484,136.2-532.9,22.8c0-147.5,116.8-271.9,267.6-280.4
	C667.1,1953,674.3,2209.4,665,2225.7z M396.2,1575.1c267.4-15,275.1,37.2,265.7,53.5c-94,163.4-484,136.2-532.9,22.8
	C129.1,1503.9,245.4,1583.5,396.2,1575.1z M665,2809.6c-102.2,188.4-484.9,167.3-532.9,22.8c0-147.5,76.7-295,214.6-356.6
	c34.4-15.4,69-27.1,105.1-12.7C676.8,2552.7,673.9,2793.1,665,2809.6z"/>
</svg>
