<?xml version="1.0" encoding="utf-8"?>
<!-- Generator: Adobe Illustrator 17.0.2, SVG Export Plug-In . SVG Version: 6.00 Build 0)  -->
<!DOCTYPE svg PUBLIC "-//W3C//DTD SVG 1.1//EN" "http://www.w3.org/Graphics/SVG/1.1/DTD/svg11.dtd">
<svg version="1.1" id="Layer_1" xmlns="http://www.w3.org/2000/svg" xmlns:xlink="http://www.w3.org/1999/xlink" x="0px" y="0px"
	 width="361px" height="68px" viewBox="0 0 361 68" enable-background="new 0 0 361 68" xml:space="preserve">
<g>
	<path fill="#D21A6A" d="M359.5,62.67c-1.09,5.11-5.45,4.51-8.94,4.83c-4.2,0.39-8.47,0.14-12.71,0.09
		c-2.58-0.03-3.97-0.95-4.34-4.02c-0.44-3.62-1.68-7.22-3.06-10.63c-2.99-7.38-8.9-11.22-16.54-12.05
		c-3.72-0.4-7.58,0.12-11.33,0.55c-0.78,0.09-2.13,1.82-1.97,2.48c0.73,3.04,1.9,5.97,2.92,8.94c1.16,3.39,2.72,6.69,3.36,10.18
		c0.64,3.5-0.89,4.73-4.47,4.55c-4.63-0.24-9.27-0.55-14.14-0.85c-0.16-1.43-0.21-3.17-0.56-4.84c-1.49-7.16-5.71-12.57-12.24-15.2
		c-6.57-2.65-13.56-4.87-20.55-5.74c-9.87-1.23-19.91-1.41-29.88-1.4c-32.17,0.04-64.34,0.33-96.51,0.61
		c-13.03,0.11-26.07,0.36-39.1,0.66c-14.65,0.34-29.3,0.82-43.94,1.24c-4.1,0.12-4.45,0.71-2.54,4.37c1.36,2.61,3.18,5.05,4.13,7.79
		c0.94,2.74,1.06,5.77,1.01,8.93C31.74,55.65,16.34,47.33,1.5,36.65c15.32-9.26,29.82-18.95,46.39-26.1
		c0.34,7.27-3.1,12.98-5.42,19.33c1.4,0.11,2.33,0.24,3.27,0.25c28.91,0.23,57.81,0.54,86.72,0.64c26.31,0.09,52.63,0.25,78.94-0.18
		c15.06-0.25,30.11-1.4,45.14-2.57c6.49-0.51,12.89-2.18,18.32-6.19c5.27-3.89,7.81-9.3,7.91-15.79c0.04-2.37,0.51-3.71,3.17-3.73
		c6.04-0.05,12.09-0.36,18.13-0.36c3.24,0,3.29,2.62,2.76,4.76c-0.88,3.58-2.2,7.06-3.41,10.55c-0.68,1.96-1.48,3.88-2.28,5.79
		c-0.94,2.22-0.43,3.37,2.1,3.88c15.74,3.17,28.44-3.71,33.81-18.46c2.45-6.74,2.4-6.73,9.7-7.25c1.23-0.09,2.42-0.61,3.63-0.93
		c1.96,0,3.91,0,5.87,0c2.44,5.81,2.19,11.6-0.9,16.98c-2.37,4.13-5.15,8.07-8.18,11.74c-3.97,4.81-4.1,4.61,0.29,9.27
		c4.56,4.84,9.07,9.74,10.75,16.5c0.39,1.55,0.86,3.08,1.3,4.62C359.5,60.48,359.5,61.57,359.5,62.67z"/>
</g>
</svg>
