<?xml version="1.0" encoding="utf-8"?>
<!-- Generator: Adobe Illustrator 17.0.2, SVG Export Plug-In . SVG Version: 6.00 Build 0)  -->
<!DOCTYPE svg PUBLIC "-//W3C//DTD SVG 1.1//EN" "http://www.w3.org/Graphics/SVG/1.1/DTD/svg11.dtd">
<svg version="1.1" id="Layer_1" xmlns="http://www.w3.org/2000/svg" xmlns:xlink="http://www.w3.org/1999/xlink" x="0px" y="0px"
	 width="604px" height="36px" viewBox="0 0 604 36" enable-background="new 0 0 604 36" xml:space="preserve" preserveAspectRatio="none">
<g>
	<path fill="#63154C" d="M300.51,36c-3.4-1.83-5.43-4.56-5.08-8.53c0.13-1.54,0.87-3.04,1.44-4.89c-1.82-1.88-4.37-3.44-7.27-3.97
		c-4.79-0.87-9.64-1.56-14.5-1.96c-20.59-1.71-41.22-1.33-61.85-1.29c-6.18,0.01-12.35,0.18-18.53,0.2
		c-16.71,0.04-33.39-0.62-50.08-1.35c-14.16-0.62-28.35-0.68-42.53-0.63c-7.13,0.03-14.24,1.08-21.37,1.25
		c-5.46,0.13-10.93-0.4-16.4-0.64c-6.27-0.27-12.53-0.61-18.8-0.79c-4.33-0.12-7.54,1.64-9.17,5.9c-0.49,1.28-1.27,2.51-2.16,3.56
		c-0.75,0.87-1.86,1.44-2.91,2.21c-1.08-2.18-0.51-3.73,0.57-5.17c0.97-1.28,2.08-2.47,2.98-3.8c0.98-1.47,0.52-2.52-1.23-2.65
		c-2.08-0.16-4.19-0.08-6.28,0c-0.38,0.01-0.86,0.45-1.09,0.82c-1.18,1.85-2.27,3.76-3.44,5.62c-1.03,1.63-1.99,3.33-3.23,4.79
		c-0.86,1.01-2.14,1.65-3.36,2.54c-0.79-1.77-0.34-3.09,0.38-4.29c0.69-1.14,1.64-2.12,2.37-3.25c0.86-1.34,1.67-2.73,2.37-4.16
		c0.55-1.12,0.21-1.86-1.14-2.22c-1.93-0.51-3.68-0.2-5.18,0.98c-1.72,1.36-3.19,3.05-4.95,4.35c-1.7,1.25-3.59,2.25-5.47,3.21
		c-1.14,0.58-1.68-0.22-1.47-1.24c0.16-0.77,0.62-1.59,1.18-2.15c0.75-0.74,1.82-1.16,2.6-1.87c0.83-0.75,1.49-1.68,2.23-2.53
		c-0.09-0.2-0.17-0.4-0.26-0.6c-1.07-0.13-2.14-0.34-3.22-0.39c-1.96-0.09-3.99,0.29-5.76-0.94c0-0.54,0-1.08,0-1.61
		c1.7-1.65,3.88-1.06,6.47-1.23c-0.96-1.4-1.63-2.58-2.49-3.58C2.74,4.37,2.1,2.97,2.64,0.92C3.56,1.64,4.4,2.2,5.11,2.88
		C6.35,4.06,7.5,5.35,8.73,6.55c2.05,1.99,4.4,3.22,7.39,2.74c1.6-0.26,2.09-1.07,1.18-2.42c-0.68-1.01-1.58-1.89-2.48-2.72
		c-1.26-1.17-2-2.5-1.69-4.26c0.32,0,0.65,0,0.97,0c1.74,1.55,3.62,2.98,5.18,4.69C21.6,7.1,23.85,9.64,27.53,10
		c1.11,0.11,2.24,0,3.37-0.04c1.45-0.05,1.74-0.96,1.32-2.1c-0.35-0.95-1.04-1.77-1.39-2.71c-0.33-0.87-0.41-1.84-0.65-3.02
		c0.57,0.2,0.72,0.21,0.75,0.27c2.62,5.94,7.84,8,13.66,8.39c5.92,0.4,11.92,0.36,17.85-0.08C74.66,9.79,86.9,9.25,99.14,9.61
		c16.42,0.49,32.84,1.29,49.26,1.99c11.96,0.51,23.92,1.25,35.89,1.56c11.27,0.29,22.56,0.24,33.84,0.15
		c9.51-0.07,19.01-0.59,28.51-0.56c10.2,0.03,20.4,0.37,30.59,0.75c5.65,0.21,11.21,1,16.26,3.94c3.92,2.28,8.1,2.43,12.24,0.62
		c11.29-4.92,23.25-5.79,35.32-5.92c9.73-0.1,19.45-0.06,29.18-0.1c10.75-0.04,21.49-0.26,32.24-0.09
		c12.56,0.19,25.12,0.83,37.68,1.07c17.72,0.34,35.45,0.44,53.18,0.76c9.34,0.17,18.68,0.58,28.02,0.94
		c6.22,0.24,12.44,0.71,18.67,0.81c5.26,0.08,10.53-0.13,15.62-1.74c4.61-1.45,8.31-3.98,10.21-8.63c0.05-0.13,0.2-0.23,0.31-0.36
		c0.97,0.79,0.94,1.68,0.24,2.54c-0.54,0.66-1.24,1.19-1.81,1.82c-0.68,0.75-1.43,1.48-1.92,2.35c-0.84,1.48-0.5,2.11,1.1,2.51
		c3.45,0.85,6.65,0.27,9.45-1.89c1.83-1.41,3.46-3.05,5.23-4.54c1.14-0.96,2.35-1.83,3.81-2.95c0.09,2.12-0.71,3.4-1.81,4.59
		c-1.07,1.16-2.09,2.36-3.39,3.83c8.71,3.15,13.67-1.78,18.5-7.32c0.91,1.67,0.22,2.87-0.65,4.05c-0.82,1.1-1.64,2.2-2.77,3.7
		c2.07,0,3.59-0.03,5.11,0.01c1.87,0.05,3.75,0.09,5.6,0.29c0.54,0.06,1.01,0.67,1.51,1.03c-0.43,0.51-0.78,1.34-1.3,1.47
		c-1.75,0.43-3.56,0.65-5.36,0.87c-1.33,0.17-2.69,0.1-4,0.34c-2.13,0.4-2.62,1.46-1.75,3.49c0.34,0.78,0.86,1.49,1.24,2.26
		c0.5,0.99,0.62,2.13-0.39,2.74c-1.05,0.64-2.04-0.03-2.55-0.99c-0.75-1.41-1.36-2.91-1.95-4.4c-0.72-1.84-1.5-3.29-3.96-3.18
		c-2.16,0.1-4.36-0.54-6.53-0.5c-1.82,0.04-2.27,0.89-1.59,2.6c0.43,1.07,1.18,2.02,1.84,2.99c0.93,1.37,1,1.89,0.27,3.26
		c-1.87-0.43-2.95-1.82-3.97-3.29c-1.07-1.54-2.12-3.09-3.25-4.59c-0.65-0.86-1.55-1.17-2.7-0.98c-1.43,0.23-2.89,0.21-4.33,0.37
		c-1.93,0.21-2.42,1.04-1.62,2.83c0.28,0.62,0.75,1.17,1.18,1.72c0.33,0.42,0.73,0.79,1.09,1.19c0.83,0.93,1.29,2.13,0.38,2.99
		c-0.34,0.32-1.96-0.24-2.59-0.83c-1.04-0.96-1.95-2.19-2.57-3.47c-1.66-3.48-4.06-4.89-8.11-4.64c-6.53,0.4-13.11,0.18-19.67,0.09
		c-13.54-0.17-27.07-0.39-40.61-0.64c-9.08-0.17-18.15-0.44-27.22-0.63c-11.22-0.24-22.45-0.53-33.67-0.63
		c-15.1-0.14-30.2-0.18-45.3-0.13c-11.17,0.04-22.34,0.27-33.51,0.44c-8.27,0.12-16.54,0.08-24.8,0.45
		c-7.2,0.33-14.27,1.71-21.13,4.03c-1.27,0.43-1.48,0.99-0.96,2.1c0.34,0.73,0.63,1.48,0.95,2.22c0.3,0.69,0.69,1.35,0.9,2.06
		c1.25,4.27,1.82,7.15-2.73,9.57C302.87,36,301.69,36,300.51,36z M301.17,31.43c2.6,0.13,3.19-0.18,3.25-1.66
		c0.1-2.51-0.92-4.18-2.61-4.31c-1.67-0.12-3.18,1.44-3.31,3.43C298.37,30.98,298.7,31.31,301.17,31.43z"/>
</g>
</svg>
