<?xml version="1.0" encoding="utf-8"?>
<!-- Generator: Adobe Illustrator 17.0.0, SVG Export Plug-In . SVG Version: 6.00 Build 0)  -->
<!DOCTYPE svg PUBLIC "-//W3C//DTD SVG 1.1//EN" "http://www.w3.org/Graphics/SVG/1.1/DTD/svg11.dtd">
<svg version="1.1" id="code" xmlns="http://www.w3.org/2000/svg" xmlns:xlink="http://www.w3.org/1999/xlink" x="0px" y="0px"
	 width="100px" height="100px" viewBox="0 0 100 100" enable-background="new 0 0 100 100" xml:space="preserve">
<path fill="#BF5C82" d="M2.34,54.1C0.94,53.16,0,51.29,0,49.65c0-1.64,0.7-3.16,2.46-3.98H2.34c8.32-4.92,19.92-11.48,27.65-16.05
	v10.9c-3.05,1.76-7.15,3.75-17.45,9.26l0.12,0.12c5.51,2.46,11.83,6.21,17.34,9.49v11.01L2.34,54.1z"/>
<path fill="#BF5C82" d="M97.66,45.9c1.4,0.94,2.34,2.81,2.34,4.45s-0.7,3.16-2.46,3.98h0.12c-8.32,4.92-19.92,11.48-27.65,16.05
	V59.49c3.05-1.76,7.15-3.75,17.46-9.25l-0.12-0.12c-5.5-2.46-11.83-6.21-17.34-9.49V29.62L97.66,45.9z"/>
<path fill="#BF5C82" d="M46.4,71.84h-7.01l14.09-43.69h7.13L46.4,71.84z"/>
</svg>
