<?xml version="1.0" encoding="utf-8"?>
<!-- Generator: Adobe Illustrator 17.0.0, SVG Export Plug-In . SVG Version: 6.00 Build 0)  -->
<!DOCTYPE svg PUBLIC "-//W3C//DTD SVG 1.1//EN" "http://www.w3.org/Graphics/SVG/1.1/DTD/svg11.dtd">
<svg version="1.1" id="art" xmlns="http://www.w3.org/2000/svg" xmlns:xlink="http://www.w3.org/1999/xlink" x="0px" y="0px"
	 width="100px" height="100px" viewBox="0 0 100 100" enable-background="new 0 0 100 100" xml:space="preserve">
<path fill="#BF5C82" d="M67.42,61.06c7.35-8.55-3.03-14.57,1.57-22.6c0.53-0.34,0.81-0.7,0.81-1.07c0-2.02-8.36-3.65-18.68-3.65
	s-18.68,1.63-18.68,3.65c0,0.34,0.26,0.67,0.71,0.99c1.5,1.22,2.05,2.8,2.08,4.58c-12.83-8.78-17.24-1.55-10.89,10.09
	c0.71,1.28,5.92,0.06,8.89,0.22c-0.35,2.08-0.36,4.04,0.52,5.66c1.18,2.17,3.52,3.94,6.47,5.22c0.31,0.76,0.66,2.38-1.22,3.53
	c0,0,14.53,5.11,23.9-0.56c0,0-1.89,0.19-1.58-2.1C63.78,64.13,65.9,62.83,67.42,61.06z M33.54,51.74
	c-1.79,0.04-3.77,0.73-6.85-1.03c-5.26-3.01-5.54-12.75,4.05-7.95l4.25,2.93C34.64,47.65,34,49.73,33.54,51.74z"/>
<path fill="#BF5C82" d="M95.38,80.3V18.95c1.33-1.13,2.18-2.82,2.18-4.7c0-3.41-2.77-6.18-6.18-6.18c-1.64,0-3.12,0.64-4.22,1.68
	h-7.59C76.13,7.95,64.2,6.62,50,6.62S23.87,7.95,20.43,9.75H13.2c-1.13-1.33-2.82-2.18-4.7-2.18c-3.41,0-6.18,2.77-6.18,6.18
	c0,1.64,0.64,3.12,1.68,4.22v63.31c-1.04,1.1-1.68,2.59-1.68,4.22c0,3.41,2.77,6.18,6.18,6.18c1.88,0,3.57-0.85,4.7-2.18h6.43
	c2.61,1.95,15.07,3.43,30.05,3.43s27.44-1.48,30.05-3.43h7.41c1.1,1.04,2.59,1.68,4.22,1.68c3.41,0,6.18-2.77,6.18-6.18
	C97.55,83.12,96.71,81.43,95.38,80.3z M13,80.5V18.75h73.38V80.5H13z"/>
</svg>
