<?xml version="1.0" encoding="utf-8"?>
<!-- Generator: Adobe Illustrator 15.0.2, SVG Export Plug-In . SVG Version: 6.00 Build 0)  -->
<!DOCTYPE svg PUBLIC "-//W3C//DTD SVG 1.1//EN" "http://www.w3.org/Graphics/SVG/1.1/DTD/svg11.dtd">
<svg version="1.1" id="Layer_1" xmlns="http://www.w3.org/2000/svg" xmlns:xlink="http://www.w3.org/1999/xlink" x="0px" y="0px"
	 width="1250px" height="1070px" viewBox="-603 0 1250 1070" enable-background="new -603 0 1250 1070" xml:space="preserve">
<polygon fill="#1DB3A9" points="647,0 342.903,0 496.238,260.425 "/>
<polygon fill="#1DB3A9" points="326.561,0 21.998,0 175.54,260.82 "/>
<polygon fill="#1DB3A9" points="488.084,274.556 334.778,14.089 183.802,274.917 336.814,535 183.802,795.083 334.778,1055.918 
	488.084,795.444 337.312,535 "/>
<polygon fill="#1DB3A9" points="342.942,1070 647,1070 496.238,809.536 "/>
<polygon fill="#1DB3A9" points="21.998,1070 326.561,1070 175.54,809.17 "/>
<polygon fill="#88CEB9" points="-603,1070 -298.906,1070 -449.704,809.507 "/>
<polygon fill="#88CEB9" points="-137.146,274.937 -290.673,14.089 -441.418,274.536 -288.146,535 -441.418,795.464 
	-290.673,1055.918 -137.146,795.063 -287.688,535 "/>
<polygon fill="#88CEB9" points="-282.482,1070 21.998,1070 -128.994,809.17 "/>
<polygon fill="#88CEB9" points="-298.906,0 -603,0 -449.704,260.444 "/>
<polygon fill="#88CEB9" points="21.998,0 -282.482,0 -128.994,260.811 "/>
<polygon fill="#A22882" points="337.312,535 488.084,795.444 641.365,535 488.084,274.556 "/>
<polygon fill="#A22882" points="496.238,260.425 647,516.602 647,0 "/>
<polygon fill="#A22882" points="647,1070 647,553.389 496.238,809.536 "/>
<polygon fill="#A22882" points="24.549,548.281 -128.994,809.17 21.998,1070 175.54,809.17 "/>
<polygon fill="#A22882" points="183.802,274.917 33.265,535 183.802,795.083 336.814,535 "/>
<polygon fill="#A22882" points="24.549,521.689 175.54,260.82 21.998,0 -128.994,260.811 "/>
<polygon fill="#A22882" points="-287.688,535 -137.146,795.063 15.926,535 -137.146,274.937 "/>
<polygon fill="#A22882" points="-441.418,274.536 -592.241,535 -441.418,795.464 -288.146,535 "/>
<polygon fill="#A22882" points="-603,0 -603,525.288 -449.704,260.444 "/>
<polygon fill="#A22882" points="-603,544.683 -603,1070 -449.704,809.507 "/>
<path fill="#D21A6A" d="M342.903,0h-16.343L175.599,260.82L24.578,521.689l-153.545-260.879L-282.482,0h-16.423l-150.798,260.444
	L-603,525.288v19.414l153.296,264.834L-298.906,1070h16.45l153.489-260.83L24.578,548.281L175.599,809.17L326.561,1070h16.382
	l153.296-260.464L647,553.389v-36.787L496.238,260.444L342.903,0z M-137.146,795.063l-153.528,260.854l-150.774-260.454
	L-592.241,535l150.793-260.464l150.774-260.447l153.528,260.847L15.926,535L-137.146,795.063z M488.084,795.444l-153.306,260.474
	L183.802,795.083L33.265,535l150.537-260.083L334.778,14.089l153.306,260.466L641.365,535L488.084,795.444z"/>
</svg>
