<?xml version="1.0" encoding="utf-8"?>
<!-- Generator: Adobe Illustrator 15.0.2, SVG Export Plug-In . SVG Version: 6.00 Build 0)  -->
<!DOCTYPE svg PUBLIC "-//W3C//DTD SVG 1.1//EN" "http://www.w3.org/Graphics/SVG/1.1/DTD/svg11.dtd">
<svg version="1.1" id="Layer_1" xmlns="http://www.w3.org/2000/svg" xmlns:xlink="http://www.w3.org/1999/xlink" x="0px" y="0px"
	 width="816px" height="1896px" viewBox="0 0 816 1896" enable-background="new 0 0 816 1896" xml:space="preserve">
<g>
	<path fill-rule="evenodd" clip-rule="evenodd" fill="#64044B" d="M726,1075c-1.78-9.33,2.23-18.26-1-29
		c-1.78-5.94-18.23-24.54-3-27c11.16-1.8,15.48,17.82,14,31C734.67,1061.86,728.86,1067.19,726,1075z"/>
	<path fill-rule="evenodd" clip-rule="evenodd" fill="#64044B" d="M701,1061c-2.64,3.04-5.44-4.2-8-6c-9.12-6.41-26.17-6.38-34-14
		c0.77-2.9,1.58-5.75,4-7C683.78,1030.93,693.93,1047.05,701,1061z"/>
	<path fill-rule="evenodd" clip-rule="evenodd" fill="#64044B" d="M517,0c54.96,6.71,98.67,24.67,120,65c3.92,0.57,6.24-3.47,9-1
		c2.67,9.92,6.9,21.62,4,34c8.85-4.15,19.45-17.73,34-20c4.25-0.66,11.28,1.86,14-1c4.95,31.08-16.59,52.64-34,68
		c57.37-2.86,110.14,11.68,104,67c-1.6,14.45-7.6,28.73-15,38c-2.17,2.71-6.95,4.3-9,8c-3.86,6.95-6.94,23.36-5,30
		c1.69,5.81,12.39,8.23,15,13c2.41,8.94-13.64,9.41-10,20c-12.45-0.78-19.04,4.3-25,10c-3.07,3.8,3.33,4.81,2,10
		c-13.39,2.61-21.11,10.89-29,19c-25.91,5.12-49-17.38-62,3c-6.01,9.43-3.79,34.96-5,53c-1.54,23-7.16,39.53-18,50
		c2.77,15.23,4.95,31.05,9,45c29.03-11.63,58.46-22.87,86-36c0.97-8.7,1.55-17.79,4-25c16.36-5.98,31.03-13.64,48-19
		c2.43,5.92-2.19,11.22-5,15c8.96,1.04,6.06,13.94,14,16c-3.12,6.66,1.46,9.25,3,14c-11.33,6.01-15.32,19.35-29,23
		c-2.04-3.24-2.2-6.82-1-11c-7.32,2.03-16.42,7.56-25,5c-18.88,15.06-47.76,41.85-77,51c-8.77,2.74-23.61,7.15-31,5
		c-11.82-3.43-19.38-32.29-23-46c-6.92,6.19-14.91,16.61-16,26c-1.17,10.12,4.56,23.15,6,33c13.23,90.38,43.93,189.26,86,253
		c-8.88,12.45-27.66,15.01-40,24c0.43,13.23,7.07,20.26,8,33c2.55,1.77,1.7-1.98,5,1c11.93,22.07,23.82,44.18,37,65
		c14.79-4.9,33.1-0.18,43,6c11.67-4.67,22.7-9.97,39-10c-0.63,9.22-10.32,15.03-18,22c-13.6,12.35-21.66,23.82-49,16
		c-2.12,6.04,5.37,10.44,8,15c-9.29,2.23-12.34,9.34-22,8c-11.84-1.64-21.62-18.42-21-30c-12.71-13.63-30.33-22.34-44-35
		c-0.48-3.15,1.42-3.91,2-6c-17.15-18.18-37.51-33.16-39-67c-78.78,19.64-164.45-0.14-170-76c-8.75,3.44-20.03,16.6-32,17
		c-10.23,0.34-36.29-14.47-45-20c-14.5-9.21-27.42-19.81-37-27c-1.75,0.92-2.21,3.13-2,6c-20.33-18-39.01-37.66-57-58
		c-14.52,7.81-26.96,17.71-41,26c-1.99,12.35-7.36,21.3-16,27c-11.36-16.06-5.39-48.06,0-65c11.52-5.48,24.75-9.25,30-21
		c-1.75-6.25-5.78-10.22-10-14c6.17-7.5,11.92-15.42,19-22c10.82,4.71,20.19,6.54,27,15c3.94,4.9,3.87,12.3,7,18
		c9.87,17.94,34.63,20.02,47,36c34.38,8.29,61.78,23.56,85,43c2.79-9.21,7.04-16.96,12-24c-30.27-72.73-105.94-100.06-205-104
		c22.62-5.36,57.32-0.34,84-2c96.03-5.97,165.24-42.51,220-91c-64.34-8.97-116.3,20.79-157,47c-18.46,11.88-48.06,38.89-68,13
		c-11.73-15.23-16.77-41.76-16-69c64.84,18.21,123.23-16.42,191-17c-1.33-16.41,2.71-34.99,8-48c24.93,7.4,43.66,21,51,46
		c4.51-3.15,4.49-10.85,9-14c7.76-32.91,25.54-55.8,40-82c-3.28-5.39-12.52-4.81-13-13c1.44-4.23,6.3-5.03,10-7
		c-10.43-6.74-15.75-33.62-7-47c16.54,3.12,32.18,7.16,44,15c4.62-3.71,11.93-4.73,15-10c-0.85-6.48-1.35-13.32-3-19
		c-37.72-18.17-49.13-100.41-19-135c-14.83-14.27-52.83-2.96-75,6c-19.3,7.8-35.53,15.87-49,26c-18.9,14.21-30.43,33.11-46,49
		c-31.85,32.5-83.2,58.4-154,54c-52.52-3.26-110.2-22.49-151-42c-6.89-3.29-13.34-7.43-20-12c-6.52-4.48-14.44-7.79-20-12
		c-4.78-3.62-5.35-9.28-13-13c-10.91-5.31-21.9-2.71-29-13c18.06,8.19,40.1,13.36,71,12c96.2-4.23,154.71-66.9,209-117
		C347.73,64.8,404.91,13.17,495,0C502.33,0,509.67,0,517,0z"/>
	<path fill-rule="evenodd" clip-rule="evenodd" fill="#64044B" d="M609,1896c-47.26-7.08-66.56-42.1-77-86c-0.43-3.4-2.15,4.38-2-1
		c-16.14-60.2,31.29-80.86,30-136c-35.71,15.03-74.14,32.43-124,30c-19.84,21.03-48.14,39.06-79,55c-29.22,15.09-58.84,36.4-92,42
		c-42.18,7.12-81.15-0.82-106-17c-30-19.54-40.39-58.23-52-96c-26.18,15.27-46.93,37.18-54,73c-4.11,20.83-5.96,39.83-29,27
		c-19.95-11.11-26.45-45.52-21-76c6.79-37.96,38.45-87.4,70-109c11.34-7.76,31.65-17.62,45-15c10.74,2.11,21.2,17.6,26,30
		c9.13,23.58,10.41,50.42,34,56c18.06-0.05,33.59,0.84,47-4c25.39-9.17,46.23-24.02,60-44c-14.04,0.7-24.15-2.51-31-9
		c-29.1,6.53-56.94-3.98-63-27c-5.06-1.28-9.97-2.7-13-6c43.96,16.68,91.08-3.93,116-25c-20.46,7.21-41.5,19.17-66,19
		c15.2-3.46,26.03-11.3,36-20c-21.36,10.27-56.99,10.66-85,6c55.18-7.96,98.38-26.06,125-62c21.19-28.61,29.08-66,50-97
		c0.25-5.26-0.64-8.53,3-14c1.33-4.86,5.66-0.51,8-4c17.99-30.98,42.34-57.32,68-81c25.71-23.72,53.3-48.02,92-58
		c-11.71,0.04-19.12-4.21-25-10c12.76,3.43,34.16,2.65,45-2c-12.46-1.54-22.39-5.61-31-11c15.17,6.14,35.65,4.05,45-4
		c1.84-1.58,6.63-6.36,4-6c-10.78-1.28-19.66-1.51-27-5c-6.9-3.29-9.1-11.73-17-13c14.87,0.2,29.72,0.39,38-6
		c-14.2-0.8-23.29-6.71-34-11c16.45,3.64,41.64,3.57,49-8c-36.78-1.59-69.99-14.38-98-29c-49.94-26.06-87.87-64.56-104-119
		c19.21,3.79,37.63,8.37,57,12c-2.99-10.16-2.99-28.82,0-39c45.54,2.68,85.46,22.69,123,38c45.49,18.56,85.37,43.38,110,81
		c-0.22-7.89,2.04-13.29,2-21c7.72,2.95,9.27,12.06,15,17c6.02-3.75,12.6-7.25,20-11c6.46-3.28,15.76-10,22-9
		c5.72,0.92,10.9,12.75,15,18c15.62,20,42.49,29.8,55,46c-12.53,17.8-24.57,36.1-33,58c8.07,6.6,18.2,11.14,25,19
		c-8.27-3.73-18.52-5.48-27-9c-4.33,19.11-19.09,30.83-16,51c0.85,5.54,7.22,11.08,7,17c-0.21,5.62-5.27,10.58-9,14
		c-4.21,3.85-8.99,7.27-13,11c-5.79,1.79-4.6-3.4-9-3c-6.21,1.3-21.59,5.54-23-3c6.84-2.82,14.43-4.9,20-9
		c-4.15-17.57-35.04-15.82-50-9c-0.17,20.22,12.32,18.01,25,15c-1.53,5.13-7.6,5.73-11,9c2.66,0.93,7.42,3.08,5,6
		c-29.66,8.15-41.82-23.38-61-29c14.96,34.83-5.32,70.68-21,93c10.9,19.5,29.03,16.17,55,11c22.62-4.51,39.91-9.84,49-23
		c1.57-13.76,4.26-26.41,12-34c8.36,1.18,17.43-1.66,22-1c9.39,10.4-4.45,17.25-13,19c6.41,3.87,12.55-2.36,17-6
		c15.53-12.7,31.06-26.32,49-35c8.81,4.19,18.76,7.24,27,12c0,0.33,0,0.67,0,1c-0.33,0-0.67,0-1,0c0,1,0,2,0,3
		c-15.35,11.31-32.63,20.71-48,32c0.14,3.86,3.38,4.62,3,9c-3.22,4.51-9.22,6.71-6,15c-10.21,1.46-6.66,16.67-15,20
		c-1.2,3.8-2.13,7.87-3,12c-36.83,22.74-78.26,52.94-133,62c-25.05,4.15-55.95,12.47-77,1c5.85,0.83,16.56,2.08,21,1
		c-12.85-3.86-18.72-19.89-28-24c-3.99,14.68-6.77,30.56-6,50c-2.67,4.62-9.92,6.71-12,9c1.26,3.41,1.74,7.6,3,11
		c63.1-6.63,128.56-18.35,143,36c9.82,36.96-3.9,79.94-14,108c-11.47,31.87-38.84,56.35-33,97c2.33,16.2,12.54,39.73,24,48
		c14.93,10.77,34.57,9.35,31,40c-2.63,22.6-24,31.46-51,36C612.33,1896,610.67,1896,609,1896z"/>
</g>
</svg>
