<?xml version="1.0" encoding="utf-8"?>
<!-- Generator: Adobe Illustrator 17.0.0, SVG Export Plug-In . SVG Version: 6.00 Build 0)  -->
<!DOCTYPE svg PUBLIC "-//W3C//DTD SVG 1.1//EN" "http://www.w3.org/Graphics/SVG/1.1/DTD/svg11.dtd">
<svg version="1.1" id="Layer_1" xmlns="http://www.w3.org/2000/svg" xmlns:xlink="http://www.w3.org/1999/xlink" x="0px" y="0px"
	 width="440px" height="327px" viewBox="0 0 440 327" enable-background="new 0 0 440 327" xml:space="preserve">
<g>
	<path fill="none" d="M361.3,68.9l-38.4,26.5c3.2,17.7,8.9,36.5,13.1,54.7c16.2,0.4,34.1,6.5,61.9-9.3
		C445.4,113.5,447.9,25.5,361.3,68.9z"/>
	<path fill="#F5FBFB" d="M315.5,84.3c0.3-16.5,5.4-31.1,19.7-42.2l-0.7,0c-20.1,13.9-85.3,24-162.6,24c-76.7,0-141.5-10-162.1-23.7
		C53,115.6-42.2,170.2,24.6,248c13.7,16,32.9,27.8,55,35.8c2.8,20.7-14.3,19-14.3,19c84.7,51.3,216.1,5.1,216.1,5.1
		c-17-10.4-13.8-25-11-31.9c26.7-11.6,47.8-27.6,58.5-47.2c8-14.7,7.9-32.4,4.7-51.2c26.9-1.5,74,9.7,80.4-2
		C471.4,70.3,431.5,4.9,315.5,84.3z M392.8,154.3c-27.8,15.9-45.7,9.7-61.9,9.3c-4.1-18.2-9.9-37-13.1-54.7l38.4-26.5
		C442.9,39,440.4,127.1,392.8,154.3z"/>
	<path fill="#DDF0EE" d="M334.5,42.1c4.1-2.9,6.4-5.9,6.4-9c0-18.2-75.7-33-169-33S2.9,14.8,2.9,33c0,3.3,2.4,6.4,6.9,9.4
		c20.6,13.7,85.4,23.7,162.1,23.7C249.2,66.1,314.4,55.9,334.5,42.1z"/>
</g>
<g>
</g>
<g>
</g>
<g>
</g>
<g>
</g>
<g>
</g>
<g>
</g>
</svg>
