<?xml version="1.0" encoding="utf-8"?>
<!-- Generator: Adobe Illustrator 17.0.0, SVG Export Plug-In . SVG Version: 6.00 Build 0)  -->
<!DOCTYPE svg PUBLIC "-//W3C//DTD SVG 1.1//EN" "http://www.w3.org/Graphics/SVG/1.1/DTD/svg11.dtd">
<svg version="1.1" id="Layer_1" xmlns="http://www.w3.org/2000/svg" xmlns:xlink="http://www.w3.org/1999/xlink" x="0px" y="0px"
	 width="440px" height="326px" viewBox="0 0 440 326" enable-background="new 0 0 440 326" xml:space="preserve">
<path fill="#F5FBFB" d="M315.5,83.4c0.3-16.5,5.4-31.1,19.7-42.2L9.3,40.7C53.8,114.3-42.5,169,24.6,247c13.7,16,32.9,27.7,55,35.8
	c2.8,20.7-14.3,19-14.3,19c84.7,51.3,216.1,5.1,216.1,5.1c-17-10.4-13.8-25-11-31.9c26.7-11.6,47.8-27.6,58.5-47.2
	c8-14.7,7.9-32.4,4.7-51.2c26.9-1.5,74,9.6,80.4-2C471.4,69.4,431.5,4,315.5,83.4z M392.8,153.4c-27.8,15.9-45.7,9.7-61.9,9.3
	c-4.1-18.2-9.9-37-13.1-54.7l38.4-26.5C442.9,38.1,440.4,126.2,392.8,153.4z"/>
<ellipse fill="#DDF0EE" cx="171.9" cy="33" rx="168.9" ry="33"/>
<g>
</g>
<g>
</g>
<g>
</g>
<g>
</g>
<g>
</g>
<g>
</g>
</svg>
