<?xml version="1.0" encoding="utf-8"?>
<!-- Generator: Adobe Illustrator 15.0.2, SVG Export Plug-In  -->
<!DOCTYPE svg PUBLIC "-//W3C//DTD SVG 1.1//EN" "http://www.w3.org/Graphics/SVG/1.1/DTD/svg11.dtd" [
	<!ENTITY ns_flows "http://ns.adobe.com/Flows/1.0/">
]>
<svg version="1.1"
	 xmlns="http://www.w3.org/2000/svg" xmlns:xlink="http://www.w3.org/1999/xlink" xmlns:a="http://ns.adobe.com/AdobeSVGViewerExtensions/3.0/"
	 x="0px" y="0px" width="2048px" height="1536px" viewBox="0 0 2048 1536"
	 overflow="visible" enable-background="new 0 0 2048 1536" xml:space="preserve">
<defs>
</defs>
<path fill-rule="evenodd" clip-rule="evenodd" d="M1327.8,0c3.8,12.9,6.4,40.6,0,52.9c-24.5,10.6-53.8,8.1-81.9,10.2
	c-81.3,6.3-176.7,6.3-266.2,6.8c-120.4,0.6-241.5,1.5-358.4,6.8c-107.2,4.9-248.4-9.7-346.5,18.8c-71.1,20.6-126.2,49.5-180.9,92.2
	c-16.4,12.8-38.7,30.2-44.4,46.1c-10.9,30.4-3.1,66.3,10.2,83.6c29.5,38.3,116.8,44.4,187.7,44.4c159.1,0,310.6,0,455.7-8.5
	c146.9-8.6,302.7,0.3,447.1,8.5c148.1,8.4,293.4,10.2,407.9,56.3c41.2,16.6,138.7,50,121.2,116.1c-10.8,40.7-79.5,63.2-134.8,75.1
	c-290.2,62.2-625.7,65.3-955.7,90.5c-63.4,4.8-128,10-189.4,20.5c-64.5,11-128.6,22.8-170.7,49.5c-15.6,9.9-24.3,27.6-37.5,42.7
	c-33.7,38.4-75.1,93.3-90.5,145.1c-12.4,42-5.4,101.9-8.5,157c-2.5,44-8.5,89.1-8.5,133.1c0,43.5-1.7,91.4-1.7,139.9
	c0,24.4-1.7,51.3,0,76.8c1.7,24.5,7.3,53.4,3.4,71.7c-28.4,0-56.9,0-85.3,0C0,1024,0,512,0,0C442.6,0,885.2,0,1327.8,0z"/>
<path fill-rule="evenodd" clip-rule="evenodd" d="M1438.7,0c203.1,0,406.2,0,609.3,0c0,512,0,1024,0,1536c-19.3,0-38.7,0-58,0
	c0.1-22.8-11.9-44.4-13.7-68.3c-2.2-28.8,4.6-59.6,6.8-90.5c4.3-58.9,17.4-120.2,13.7-180.9c-1.8-28.4-8.3-57-10.2-87
	c-4.2-66-5.3-131-1.7-192.9c3.5-59.6,9.3-117.8-5.1-172.4c-25.7-12.3-56-19.2-90.5-27.3c-24.6-5.8-79-13.1-80.2-37.5
	c-0.8-15.9,22.8-30.2,32.4-37.5c15.2-11.5,29.2-20.5,37.5-32.4c16.9-24.2,35.1-68.1,39.3-105.8c2.8-25.9-25-70.2-41-90.5
	c-51-65-136.4-85.6-240.6-95.6c-66.9-6.4-133.1-20.8-194.6-29c-67.8-9-135.8-14.5-203.1-20.5c-143.7-12.8-282.7,20.8-419.8,22.2
	c-73.4,0.8-147.3,0-221.9,0c-72.6,0-147.5-7.9-218.5-1.7c-35.1,3.1-71.9,1.7-107.5,1.7c-32.3,0-73.4,9.8-97.3-15.4
	c3.5-20.2,16-39,32.4-51.2c15-11.1,37-25,54.6-29c20.5-4.7,46.6-3.7,71.7-6.8c70.9-8.9,145.1-15.4,218.5-20.5
	c88.2-6.1,208.2-21.6,302.1-10.2c24.4,3,47.3,7,71.7,6.8c23.8-0.1,47.5-5.1,73.4-6.8c49.4-3.3,100.3-0.6,153.6,1.7
	c80.9,3.6,145-15,209.9-29c25.7-5.5,50.2-9,61.4-18.8C1446.1,91.2,1445.6,30.5,1438.7,0z"/>
</svg>
