<?xml version="1.0" encoding="utf-8"?>
<!-- Generator: Adobe Illustrator 15.0.2, SVG Export Plug-In . SVG Version: 6.00 Build 0)  -->
<!DOCTYPE svg PUBLIC "-//W3C//DTD SVG 1.1//EN" "http://www.w3.org/Graphics/SVG/1.1/DTD/svg11.dtd">
<svg version="1.1" id="Layer_1" xmlns="http://www.w3.org/2000/svg" xmlns:xlink="http://www.w3.org/1999/xlink" x="0px" y="0px"
	 width="2048px" height="1000px" viewBox="0 0 2048 1000" enable-background="new 0 0 2048 1000" xml:space="preserve">
<path d="M1327.8,0c3.8,12.9,6.4,40.6,0,52.9c-24.5,10.6-53.8,8.1-81.899,10.2c-81.301,6.3-176.7,6.3-266.2,6.8
	c-120.4,0.6-241.5,1.5-358.4,6.8C514.1,81.6,372.9,67,274.8,95.5c-71.1,20.6-126.2,49.5-180.9,92.2c-16.4,12.8-38.7,30.2-44.4,46.1
	c-10.9,30.4-3.1,66.3,10.2,83.6c29.5,38.3,116.8,44.4,187.7,44.4c159.1,0,310.6,0,455.7-8.5c146.9-8.6,302.7,0.3,447.101,8.5
	c148.1,8.4,293.399,10.2,407.899,56.3c41.2,16.601,138.7,50,121.2,116.101c-10.8,40.7-79.5,63.2-134.8,75.1
	c-290.2,62.2-625.7,65.3-955.7,90.5c-63.399,4.8-128,10-189.399,20.5c-64.5,11-128.601,22.8-170.7,49.5
	c-15.6,9.9-24.3,27.601-37.5,42.7c-33.7,38.4-79.8,71.075-95.2,122.875c-8.2,25.9,3.9,46.3,0,64.6c-28.4,0-67.5,0.125-95.9,0.125
	C0,488,0,512,0,0C442.6,0,885.2,0,1327.8,0z"/>
<path d="M1438.7,0c203.1,0,406.2,0,609.3,0c0,512,0,488,0,1000c-19.3,0-76.7,0-96,0c0.1-22.8-12.7-21.7-9.1-83.6
	c3.5-59.601,9.3-117.801-5.1-172.4c-25.701-12.3-14.001-19.2-48.501-27.3c-24.6-5.8-79-13.101-80.199-37.5
	c-0.801-15.9,22.8-30.2,32.399-37.5c15.2-11.5,29.2-20.5,37.5-32.4c16.9-24.2,35.101-68.1,39.301-105.8c2.8-25.9-25-70.2-41-90.5
	c-51-65-136.4-85.6-240.601-95.6c-66.899-6.4-133.1-20.8-194.6-29c-67.8-9-135.8-14.5-203.101-20.5
	c-143.699-12.8-282.699,20.8-419.8,22.2c-73.399,0.8-147.3,0-221.899,0c-72.601,0-147.5-7.9-218.5-1.7
	c-35.101,3.1-71.9,1.7-107.5,1.7c-32.3,0-73.4,9.8-97.3-15.4c3.5-20.2,16-39,32.4-51.2c15-11.1,37-25,54.6-29
	c20.5-4.7,46.6-3.7,71.7-6.8c70.9-8.9,145.101-15.4,218.5-20.5C639.4,161.1,759.4,145.6,853.301,157c24.399,3,47.3,7,71.699,6.8
	c23.801-0.1,47.5-5.1,73.4-6.8c49.4-3.3,100.3-0.6,153.6,1.7c80.9,3.6,145-15,209.9-29c25.7-5.5,50.2-9,61.4-18.8
	C1446.1,91.2,1445.6,30.5,1438.7,0z"/>
<path fill="none" d="M96,999.975"/>
</svg>
